<svg width="769" height="144" viewBox="0 0 769 144" fill="none" xmlns="http://www.w3.org/2000/svg">
<path d="M727.913 123.573C727.913 112.304 737.044 103.162 748.285 103.162C759.532 103.162 768.652 112.304 768.652 123.573C768.652 134.841 759.532 143.977 748.285 143.977C737.044 143.977 727.913 134.841 727.913 123.573Z" fill="#B0B0B0"/>
<path d="M78.1901 69.5191C78.1901 56.5913 75.6969 47.0003 70.7098 40.752C65.7166 34.5095 58.153 31.3912 47.9846 31.3912H37.1677V110.446H45.4436C56.7382 110.446 65.015 107.092 70.285 100.359C75.5489 93.6384 78.1901 83.3563 78.1901 69.5191ZM116.766 68.1727C116.766 91.725 110.447 109.873 97.8079 122.612C85.1692 135.357 67.4025 141.729 44.5006 141.729H0V0.598633H47.6069C69.6892 0.598633 86.7371 6.39217 98.7508 17.9734C110.759 29.5606 116.766 46.2858 116.766 68.1727Z" fill="#B0B0B0"/>
<path d="M240.032 141.728H275.443V0.00683594H240.032V141.728Z" fill="#B0B0B0"/>
<path d="M325.188 88.8651C325.188 97.9009 326.367 104.793 328.719 109.529C331.077 114.272 335.026 116.64 340.579 116.64C346.073 116.64 349.958 114.272 352.221 109.529C354.485 104.793 355.611 97.9009 355.611 88.8651C355.611 79.8765 354.467 73.0965 352.174 68.5195C349.875 63.9307 345.956 61.6333 340.397 61.6333C334.962 61.6333 331.077 63.919 328.719 68.4665C326.367 73.0198 325.188 79.8174 325.188 88.8651ZM391.652 88.8651C391.652 106.08 387.148 119.51 378.117 129.137C369.092 138.769 356.46 143.588 340.22 143.588C324.645 143.588 312.248 138.663 303.046 128.812C293.833 118.961 289.229 105.649 289.229 88.8651C289.229 71.7028 293.739 58.3674 302.77 48.8591C311.8 39.3508 324.462 34.5967 340.768 34.5967C350.842 34.5967 359.755 36.7996 367.478 41.1995C375.206 45.5993 381.172 51.9008 385.363 60.1098C389.56 68.3071 391.652 77.898 391.652 88.8651Z" fill="#B0B0B0"/>
<path d="M405.715 141.728H441.131V87.4891V36.457H405.715V141.728Z" fill="#B0B0B0"/>
<path d="M405.714 23.7235H441.131V0H405.714V23.7235Z" fill="#B0B0B0"/>
<path d="M512.883 114.877C517.664 114.877 523.358 113.66 530.001 111.245V137.732C525.226 139.834 520.687 141.34 516.372 142.232C512.057 143.136 506.993 143.585 501.199 143.585C489.309 143.585 480.738 140.59 475.473 134.614C470.233 128.637 467.604 119.46 467.604 107.075V63.6794H455.201V36.4654H467.604V9.58224L503.292 3.36328V36.4654H525.887V63.6794H503.292V104.654C503.292 111.469 506.493 114.877 512.883 114.877Z" fill="#B0B0B0"/>
<path d="M594.85 114.877C599.631 114.877 605.326 113.66 611.969 111.245V137.732C607.201 139.834 602.655 141.34 598.34 142.232C594.019 143.136 588.973 143.585 583.166 143.585C571.276 143.585 562.706 140.59 557.453 134.614C552.201 128.637 549.572 119.46 549.572 107.075V63.6794H537.163V36.4654H549.572V9.17478L585.253 3.36328V36.4654H607.86V63.6794H585.253V104.654C585.253 111.469 588.454 114.877 594.85 114.877Z" fill="#B0B0B0"/>
<path d="M656.656 76.0405C657.139 70.2764 658.785 66.0538 661.59 63.3549C664.408 60.6618 667.886 59.3154 672.048 59.3154C676.587 59.3154 680.194 60.8271 682.871 63.8745C685.564 66.9042 686.968 70.9615 687.08 76.0405H656.656ZM706.597 47.0078C698.18 38.7397 686.236 34.5996 670.786 34.5996C654.545 34.5996 642.049 39.3537 633.289 48.862C624.535 58.3704 620.154 72.0129 620.154 89.7893C620.154 107.005 624.889 120.281 634.332 129.6C643.781 138.919 657.05 143.585 674.14 143.585C682.346 143.585 689.408 143.024 695.327 141.908C701.21 140.804 706.904 138.807 712.428 135.925L706.987 112.202C702.972 113.843 699.152 115.107 695.545 115.94C690.333 117.151 684.616 117.759 678.391 117.759C671.565 117.759 666.176 116.088 662.227 112.745C658.277 109.396 656.173 104.778 655.931 98.896H719.23V82.7318C719.23 67.1819 715.021 55.27 706.597 47.0078Z" fill="#B0B0B0"/>
<path d="M163.764 76.0405C164.247 70.2764 165.892 66.0538 168.697 63.3549C171.51 60.6618 174.994 59.3154 179.162 59.3154C183.689 59.3154 187.296 60.8271 189.979 63.8745C192.673 66.9042 194.07 70.9615 194.194 76.0405H163.764ZM213.712 47.0078C205.288 38.7397 193.35 34.5996 177.894 34.5996C161.648 34.5996 149.156 39.3537 140.402 48.862C131.648 58.3704 127.263 72.0129 127.263 89.7893C127.263 107.005 131.991 120.281 141.446 129.6C150.89 138.919 164.159 143.585 181.248 143.585C189.454 143.585 196.516 143.024 202.434 141.908C208.317 140.804 214.013 138.807 219.542 135.925L214.095 112.202C210.08 113.843 206.26 115.107 202.659 115.94C197.436 117.151 191.723 117.759 185.498 117.759C178.678 117.759 173.285 116.088 169.335 112.745C165.38 109.396 163.281 104.778 163.04 98.896H226.338V82.7318C226.338 67.1819 222.129 55.27 213.712 47.0078Z" fill="#B0B0B0"/>
</svg>
