<svg width="909" height="142" viewBox="0 0 909 142" fill="none" xmlns="http://www.w3.org/2000/svg">
<path d="M2.39549 2.40039C8.31691 2.40039 14.2383 2.40039 20.3479 2.40039C20.3605 5.07675 20.3856 7.74055 20.4107 10.4923C20.4357 12.6409 20.4608 14.777 20.4859 16.9131C20.511 19.1748 20.5361 21.4239 20.5487 23.6731C20.5612 25.8469 20.5863 28.0206 20.6239 30.1944C20.6239 31.0237 20.6365 31.853 20.6365 32.6823C20.5361 40.1585 20.5361 40.1585 24.1617 46.4033C27.2479 48.3258 29.8448 49.0169 33.508 48.5771C37.0207 47.5091 38.6516 46.1269 40.684 43.1741C41.3865 41.1386 41.374 39.1407 41.4116 36.9795C41.4242 35.8361 41.4242 35.8361 41.4493 34.655C41.4493 33.8257 41.4618 32.9838 41.4743 32.1545C41.4869 31.2875 41.4994 30.4331 41.512 29.5787C41.5496 27.3295 41.5747 25.0804 41.5998 22.8187C41.6374 20.1172 41.6751 17.4157 41.7127 14.7142C41.7754 10.6054 41.8256 6.50918 41.8883 2.40039C47.8098 2.40039 53.7312 2.40039 59.8282 2.40039C59.8659 7.16256 59.9035 11.9373 59.9286 16.6995C59.9411 18.9235 59.9537 21.1349 59.9662 23.359C59.9913 25.5076 60.0039 27.6562 60.0039 29.8049C60.0039 30.9985 60.029 32.2048 60.0415 33.3985C60.0415 42.4202 58.787 51.1781 52.5017 58.1014C45.5892 64.4343 36.4562 65.1756 27.5364 64.9369C19.9214 64.5976 13.3602 62.0092 8.09109 56.3675C2.25749 48.8033 2.29513 39.5805 2.33276 30.4582C2.33276 29.6415 2.33276 28.8248 2.33276 28.0206C2.34531 25.8971 2.34531 23.7736 2.35785 21.6501C2.35785 19.4764 2.35785 17.3152 2.35785 15.1414C2.3704 10.8944 2.38295 6.64739 2.39549 2.40039Z" fill="#B0B0B0"/>
<path d="M119.281 7.67704C121.276 9.37332 122.932 11.057 124.45 13.1931C123.133 16.3344 120.574 17.9427 117.952 19.9783C117.462 20.3678 116.973 20.7699 116.471 21.1719C115.995 21.5489 115.518 21.9133 115.041 22.2902C114.602 22.6295 114.175 22.9688 113.736 23.3206C112.494 23.9865 112.494 23.9865 111.215 23.886C110.098 23.3834 110.098 23.3834 108.743 22.0012C105.783 19.0987 102.458 17.6286 98.3055 17.327C94.1655 17.5155 90.8159 19.1992 87.9556 22.1897C84.8192 27.3414 84.1292 32.6941 85.2458 38.65C86.4627 42.319 88.8338 45.1461 91.9952 47.3073C96.2104 48.7649 100.137 48.9911 104.39 47.5586C107.326 46.0508 109.596 43.7137 111.892 41.3766C116.421 44.1912 120.774 47.1817 125.052 50.3732C122.192 56.5929 116.446 60.8651 110.173 63.1896C101.919 65.9665 92.3841 65.8786 84.3676 62.3729C83.8909 62.1593 83.4016 61.9457 82.9123 61.7321C75.0464 57.7992 70.5928 51.3659 67.469 43.3745C65.2359 36.5516 65.5621 27.6053 68.2092 20.996C68.4099 20.4934 68.6106 19.9908 68.8113 19.4757C72.1233 12.0246 78.4587 6.06871 85.9734 3.07821C96.9883 -0.992878 109.923 0.502369 119.281 7.67704Z" fill="#B0B0B0"/>
<path d="M324.298 17.3905C328.3 20.3433 330.094 23.9243 330.885 28.787C330.935 29.9682 330.96 31.1367 330.947 32.3178C330.947 33.3607 330.947 33.3607 330.947 34.4288C330.947 35.1701 330.947 35.924 330.947 36.6905C330.947 37.457 330.947 38.2234 330.947 39.015C330.935 41.0506 330.935 43.0861 330.922 45.1217C330.922 47.1949 330.922 49.2681 330.91 51.3539C330.91 55.425 330.897 59.4961 330.885 63.5672C325.352 63.5672 319.832 63.5672 314.137 63.5672C314.099 61.7201 314.074 59.8605 314.049 57.9506C314.011 56.1412 313.973 54.3319 313.936 52.5225C313.923 51.2786 313.898 50.022 313.886 48.7781C313.848 46.9687 313.823 45.1719 313.785 43.3625C313.773 42.8097 313.773 42.2568 313.76 41.6788C313.685 36.4141 313.685 36.414 311.364 31.8278C309.294 30.898 307.362 30.7849 305.154 31.187C303.097 32.456 302.331 33.0717 301.566 35.3837C301.503 36.3135 301.466 37.2433 301.441 38.1732C301.428 38.7386 301.416 39.304 301.403 39.882C301.39 40.7993 301.39 40.7993 301.378 41.7291C301.365 42.3448 301.353 42.973 301.34 43.6138C301.303 45.5991 301.265 47.597 301.227 49.5948C301.202 50.9393 301.177 52.2838 301.152 53.6408C301.089 56.9454 301.027 60.2626 300.964 63.5672C295.243 63.5672 289.51 63.5672 283.614 63.5672C283.614 47.9362 283.614 32.3053 283.614 16.1968C289.347 16.1968 295.068 16.1968 300.964 16.1968C301.165 17.78 301.365 19.3632 301.566 20.9967C301.855 20.7077 302.131 20.4312 302.419 20.1297C308.805 14.111 316.495 13.3194 324.298 17.3905Z" fill="#B0B0B0"/>
<path d="M375.144 19.3629C380.263 23.6978 382.822 28.8118 384.139 35.3834C384.139 38.5498 384.139 41.7162 384.139 44.9831C373.865 44.9831 363.603 44.9831 353.027 44.9831C355.423 48.9788 355.423 48.9788 359.086 51.1274C362.436 51.7808 365.221 51.9065 368.244 50.1097C369.16 49.4563 370.063 48.7903 370.954 48.0867C372.171 47.383 372.171 47.383 373.325 47.5338C374.655 48.0113 375.433 48.5516 376.499 49.4814C376.838 49.7704 377.189 50.072 377.541 50.3735C377.892 50.6877 378.243 50.9892 378.607 51.3159C378.958 51.63 379.322 51.9316 379.698 52.2583C380.577 53.0248 381.467 53.8038 382.345 54.5703C380.577 58.6539 376.75 61.1921 372.861 63.0768C365.735 65.816 357.656 65.7155 350.493 63.1271C347.996 61.9837 346.039 60.6643 344.044 58.767C343.63 58.3775 343.216 57.9754 342.777 57.5733C337.621 52.2583 336.053 45.7873 336.141 38.5372C336.605 31.4882 339.114 25.5952 344.27 20.7702C352.901 13.5955 365.898 12.5023 375.144 19.3629ZM354.47 30.5835C353.265 32.1416 353.265 32.1416 352.425 35.9865C357.556 35.9865 362.699 35.9865 367.981 35.9865C367.329 32.0285 366.952 31.4756 364.393 28.7867C360.73 26.9522 357.38 28.0328 354.47 30.5835Z" fill="#B0B0B0"/>
<path d="M613.908 2.40039C616.467 2.40039 619.039 2.40039 621.686 2.40039C623.417 4.24746 624.521 5.65475 625.751 7.79082C626.918 9.73841 628.21 11.6106 629.477 13.4954C631.396 16.3225 633.265 19.1622 635.147 22.0019C635.925 23.1831 636.715 24.3642 637.506 25.5579C639.413 28.4353 641.32 31.3001 643.227 34.1901C645.56 31.3881 647.555 28.385 649.587 25.3568C649.963 24.7914 650.34 24.2385 650.729 23.6605C651.519 22.4794 652.322 21.2857 653.112 20.1046C654.329 18.2952 655.546 16.4859 656.763 14.6765C657.528 13.5331 658.306 12.3771 659.084 11.2211C659.448 10.6934 659.811 10.1531 660.175 9.58762C660.514 9.08502 660.853 8.58242 661.204 8.05468C661.505 7.61491 661.806 7.17513 662.107 6.72278C663.036 5.30293 663.889 3.84537 664.767 2.40039C667.326 2.40039 669.898 2.40039 672.545 2.40039C672.545 22.5799 672.545 42.772 672.545 63.5673C670.174 63.5673 667.803 63.5673 665.357 63.5673C665.168 47.9363 664.968 32.3053 664.767 16.1969C658.432 25.7086 658.432 25.7086 652.109 35.233C651.293 36.4518 650.478 37.6832 649.65 38.902C649.022 39.8695 649.022 39.8695 648.37 40.8496C647.969 41.4527 647.555 42.0558 647.141 42.6841C646.789 43.2244 646.438 43.7521 646.074 44.2924C644.995 45.6118 644.193 46.1646 642.624 46.7803C639.337 42.3197 636.201 37.7963 633.165 33.1723C629.401 27.4678 625.55 21.826 621.686 16.1969C621.485 31.8278 621.285 47.4588 621.084 63.5673C618.713 63.5673 616.342 63.5673 613.908 63.5673C613.908 43.3877 613.908 23.1956 613.908 2.40039Z" fill="#B0B0B0"/>
<path d="M202.244 16.1973C208.166 16.1973 214.087 16.1973 220.197 16.1973C222.957 24.3018 225.717 32.4188 228.564 40.7872C229.543 39.3045 230.07 38.3118 230.609 36.6909C230.772 36.226 230.923 35.7737 231.086 35.3088C231.249 34.8187 231.412 34.3287 231.588 33.8261C231.751 33.3235 231.927 32.8209 232.102 32.2931C232.642 30.6848 233.194 29.0891 233.733 27.4807C234.097 26.3876 234.473 25.2944 234.837 24.2012C235.74 21.5374 236.644 18.8611 237.547 16.1973C243.468 16.1973 249.39 16.1973 255.499 16.1973C252.928 23.1081 250.281 29.9812 247.571 36.8417C247.169 37.8469 246.78 38.8396 246.379 39.8448C245.413 42.295 244.447 44.7577 243.468 47.2079C242.954 48.5021 242.452 49.7838 241.938 51.078C241.097 53.2015 240.257 55.3375 239.416 57.461C239.165 58.0767 238.927 58.705 238.663 59.3458C238.45 59.8987 238.224 60.4641 237.999 61.0295C237.81 61.5196 237.622 61.997 237.421 62.4871C236.945 63.5677 236.945 63.5677 236.343 64.1708C235.188 64.2211 234.034 64.2336 232.88 64.2336C231.839 64.2211 231.839 64.2211 230.76 64.2211C230.032 64.2211 229.292 64.2085 228.527 64.2085C227.423 64.2085 227.423 64.2085 226.294 64.1959C224.462 64.1959 222.618 64.1834 220.786 64.1708C216.96 54.8224 213.196 45.4614 209.495 36.0627C209.307 35.5726 209.119 35.0952 208.918 34.5926C207.852 31.8785 206.786 29.1519 205.719 26.4253C205.393 25.6085 205.08 24.7918 204.753 23.9751C204.327 22.8819 203.9 21.7887 203.474 20.683C203.235 20.0799 202.997 19.4642 202.746 18.8359C202.244 17.391 202.244 17.391 202.244 16.1973Z" fill="#B0B0B0"/>
<path d="M843.664 19.7893C845.621 21.2845 847.302 22.8551 849.059 24.5891C849.247 22.4154 849.448 20.229 849.648 17.9924C852.02 17.9924 854.391 17.9924 856.837 17.9924C856.875 23.4331 856.9 28.8864 856.925 34.3396C856.937 36.8652 856.95 39.3908 856.962 41.929C856.988 44.3666 857 46.8168 857 49.267C857 50.1968 857.013 51.1266 857.025 52.0564C857.1 59.495 856.561 66.1419 851.442 71.9595C845.32 77.262 838.031 78.3049 830.153 77.8274C823.918 77.1112 818.197 75.1636 813.154 71.369C813.957 69.2078 814.948 67.323 816.14 65.3629C816.742 65.6518 817.332 65.9408 817.934 66.2424C818.737 66.6319 819.54 67.0089 820.33 67.3984C820.92 67.6748 820.92 67.6748 821.509 67.9638C827.644 70.8915 834.017 71.9218 840.603 69.8235C844.53 68.2151 846.663 65.7649 848.381 61.92C849.385 58.9421 849.209 55.8888 849.059 52.7726C848.62 53.1873 848.62 53.1873 848.168 53.6145C842.171 59.118 836.764 60.4248 828.748 60.0729C823.654 59.6332 819.088 56.5422 815.713 52.848C812.313 48.5759 811.034 44.442 811.134 39.0139C811.134 38.5489 811.147 38.0715 811.147 37.5814C811.322 31.4371 813.016 27.2404 817.344 22.7923C819.038 21.385 820.794 20.2542 822.726 19.1861C823.077 18.9851 823.429 18.784 823.792 18.5704C829.601 15.8061 838.232 16.6731 843.664 19.7893ZM821.848 28.7733C819.264 32.1659 818.097 35.5836 818.31 39.8557C819 44.5299 820.756 47.822 824.482 50.7371C828.999 53.8281 833.766 54.1045 839.085 53.1119C843.125 51.8302 846.587 48.8272 848.758 45.2084C850.351 41.5269 850.288 37.1919 849.272 33.3596C847.566 29.4392 844.129 26.3734 840.265 24.6268C833.59 22.5033 826.603 23.5839 821.848 28.7733Z" fill="#B0B0B0"/>
<path d="M415.854 2.40039C450.931 2.40039 450.931 2.40039 457.643 8.85885C460.905 12.8043 462.348 18.0314 462.134 23.1202C461.356 28.6489 459.763 33.5995 455.347 37.1806C450.128 40.6737 445.135 42.1815 438.925 42.0935C438.511 42.0935 438.11 42.0935 437.696 42.0935C436.19 42.0935 434.698 42.0684 433.205 42.0558C429.842 42.0307 426.493 42.0056 423.03 41.9804C423.03 49.1048 423.03 56.2293 423.03 63.5673C420.659 63.5673 418.288 63.5673 415.854 63.5673C415.854 43.3877 415.854 23.1956 415.854 2.40039ZM423.03 8.99706C423.03 17.7047 423.03 26.4123 423.03 35.3838C425.953 35.434 428.876 35.4843 431.9 35.5345C432.803 35.5597 433.706 35.5722 434.647 35.5974C440.945 35.6476 446.791 34.9189 451.533 30.3577C453.98 27.4552 454.482 24.3642 454.356 20.6826C453.804 16.6869 451.747 13.9603 448.635 11.5101C444.859 8.99706 440.105 8.92168 435.714 8.93424C435.036 8.93424 434.371 8.9468 433.681 8.9468C432.841 8.9468 432.013 8.95937 431.147 8.95937C428.462 8.97193 425.79 8.9845 423.03 8.99706Z" fill="#B0B0B0"/>
<path d="M200.45 15.5938C200.45 21.5245 200.45 27.4678 200.45 33.587C197.878 33.9765 195.307 34.3786 192.672 34.7807C189.561 36.6277 189.561 36.6277 188.03 39.5051C187.792 40.0077 187.541 40.5229 187.29 41.0381C186.149 43.9406 185.985 46.7049 185.898 49.8085C185.885 50.198 185.873 50.6001 185.86 51.0022C185.822 52.2587 185.785 53.5152 185.747 54.7591C185.722 55.6136 185.697 56.468 185.672 57.3224C185.609 59.4082 185.546 61.4815 185.484 63.5673C179.964 63.5673 174.431 63.5673 168.736 63.5673C168.736 47.9363 168.736 32.3053 168.736 16.1969C174.268 16.1969 179.788 16.1969 185.484 16.1969C185.684 18.3706 185.885 20.5444 186.086 22.7936C186.663 21.8386 186.663 21.8386 187.24 20.8837C190.853 15.8827 194.366 15.5938 200.45 15.5938Z" fill="#B0B0B0"/>
<path d="M141.813 2.40039C147.534 2.40039 153.255 2.40039 159.163 2.40039C159.163 22.5799 159.163 42.772 159.163 63.5673C153.43 63.5673 147.71 63.5673 141.813 63.5673C141.813 43.3877 141.813 23.1956 141.813 2.40039Z" fill="#B0B0B0"/>
<path d="M346.44 89.3633C376.361 89.3633 376.361 89.3633 382.345 94.1506C385.043 97.518 385.005 100.471 384.992 104.705C384.578 108.035 383.349 110.297 380.74 112.37C380.363 112.672 379.987 112.973 379.61 113.287C379.322 113.501 379.046 113.727 378.757 113.941C379.109 114.167 379.46 114.38 379.824 114.607C383.311 116.831 386.372 118.866 387.727 122.937C388.129 127.398 388.104 131.28 385.331 134.937C382.032 138.618 378.143 140.089 373.363 140.93C372.434 140.981 371.494 141.006 370.553 141.006C370.013 141.006 369.461 141.006 368.897 141.006C368.332 140.993 367.768 140.993 367.191 140.993C366.664 140.993 366.137 140.993 365.585 140.993C363.628 140.993 361.671 140.981 359.713 140.968C355.335 140.956 350.957 140.943 346.44 140.93C346.44 123.917 346.44 106.892 346.44 89.3633ZM352.425 95.3568C352.425 100.898 352.425 106.439 352.425 112.144C354.896 112.194 357.367 112.219 359.826 112.244C360.667 112.257 361.507 112.269 362.348 112.282C370.239 112.521 370.239 112.521 376.926 108.739C378.494 106.213 378.757 104.931 378.757 101.954C377.729 98.8248 376.198 97.5432 373.363 95.96C371.268 95.2563 369.386 95.2814 367.203 95.294C366.789 95.294 366.363 95.294 365.923 95.294C364.581 95.3066 363.239 95.3066 361.884 95.3191C360.968 95.3191 360.052 95.3191 359.149 95.3317C356.903 95.3317 354.67 95.3443 352.425 95.3568ZM352.425 117.547C352.425 123.289 352.425 129.019 352.425 134.937C355.323 134.975 358.221 135.012 361.106 135.037C362.097 135.05 363.076 135.063 364.054 135.075C365.484 135.1 366.902 135.1 368.32 135.113C368.759 135.125 369.185 135.125 369.637 135.138C372.836 135.138 375.22 134.472 378.155 133.14C380.664 130.489 381.43 128.566 381.392 124.973C380.953 122.447 379.51 120.914 377.553 119.344C373.827 117.597 369.637 117.471 365.572 117.484C364.882 117.484 364.18 117.484 363.465 117.497C362.172 117.497 362.172 117.497 360.843 117.509C358.057 117.522 355.285 117.534 352.425 117.547Z" fill="#B0B0B0"/>
<path d="M500.222 20.996C503.973 24.4263 505.767 28.5225 506.206 33.5863C506.281 35.9108 506.269 38.2228 506.256 40.5473C506.256 41.2133 506.256 41.8666 506.256 42.5577C506.256 44.6435 506.244 46.7419 506.244 48.8403C506.231 50.2601 506.231 51.6925 506.231 53.1124C506.219 56.6055 506.219 60.086 506.206 63.5666C503.835 63.5666 501.464 63.5666 499.017 63.5666C498.729 61.1918 498.729 61.1918 498.428 58.7667C498.127 59.0054 497.838 59.2442 497.537 59.4955C492.494 63.5037 486.949 65.4513 480.475 64.7728C474.868 63.5791 470.753 61.9205 467.378 57.1961C465.496 53.2129 465.534 48.6392 466.826 44.4928C469.624 39.5547 472.597 37.5066 477.891 35.9234C480.613 35.27 483.248 35.2071 486.046 35.2323C486.535 35.2323 487.037 35.2323 487.551 35.2448C491.264 35.2951 494.815 35.6721 498.428 36.5767C498.24 32.3423 497.499 29.5906 494.351 26.5372C488.881 23.4085 483.085 24.3383 477.314 25.909C475.558 26.4241 473.814 26.9644 472.095 27.5927C470.301 23.685 470.301 23.685 470.301 20.996C479.284 16.8872 491.553 14.9773 500.222 20.996ZM475.344 44.4928C473.601 46.855 473.249 48.6518 473.287 51.5795C474.265 54.4066 475.57 55.9772 478.079 57.573C483.235 59.5206 487.162 59.0431 492.155 57.0453C495.367 55.5877 497.111 53.7658 498.591 50.5994C499.381 47.9607 499.206 45.2969 499.017 42.5829C486.472 39.517 486.472 39.517 475.344 44.4928Z" fill="#B0B0B0"/>
<path d="M796.067 20.8077C799.768 23.9238 801.562 27.6431 802.377 32.3801C802.54 34.8177 802.528 37.2428 802.503 39.6804C802.503 40.359 802.49 41.05 802.49 41.7537C802.49 43.9274 802.478 46.1012 802.453 48.275C802.453 49.7576 802.44 51.2403 802.44 52.723C802.427 56.3418 802.402 59.9479 802.377 63.5667C800.019 63.5667 797.648 63.5667 795.201 63.5667C794.9 61.1919 794.9 61.1919 794.599 58.7668C794.311 59.0056 794.01 59.2443 793.708 59.4956C790.045 62.3604 786.758 64.2955 782.041 64.7729C781.464 64.8232 781.464 64.8232 780.887 64.886C775.919 65.1624 770.424 63.8305 766.447 60.7647C763.562 57.8998 762.194 54.4444 761.994 50.411C762.182 46.6415 763.085 43.0353 765.77 40.271C770.788 36.313 775.869 35.2701 782.116 35.2701C782.869 35.2701 782.869 35.2701 783.634 35.2701C787.386 35.2952 790.961 35.6596 794.599 36.5769C794.587 32.7948 794.26 29.9927 791.526 27.2284C787.9 24.4767 783.459 24.0997 779.043 24.5898C775.38 25.3185 771.792 26.3112 768.279 27.5928C767.978 26.8263 767.677 26.0599 767.376 25.306C767.213 24.8788 767.05 24.4515 766.874 24.0118C766.485 22.793 766.485 22.793 766.485 20.9961C775.656 17.3271 787.248 14.7136 796.067 20.8077ZM771.528 44.5306C769.973 46.6415 769.383 48.3001 769.471 50.9765C770.274 53.7659 771.44 55.7386 773.962 57.2339C778.491 59.2694 782.618 59.3197 787.273 57.5983C790.258 56.2035 792.617 54.4193 794.599 51.8058C795.502 48.7399 795.339 45.7494 795.201 42.583C782.631 39.5045 782.631 39.5045 771.528 44.5306Z" fill="#B0B0B0"/>
<path d="M898.111 19.1878C902.401 21.7762 904.923 24.9049 907.093 29.3907C907.294 29.8053 907.495 30.22 907.708 30.6597C909.539 35.158 908.887 38.5381 908.887 43.7777C897.232 43.7777 885.59 43.7777 873.584 43.7777C876.445 51.7063 876.445 51.7063 882.667 56.6695C887.635 58.5668 892.628 58.0391 897.408 55.9156C898.663 55.1994 899.666 54.4455 900.733 53.4905C902.301 52.1712 902.301 52.1712 903.543 52.1335C905.073 52.9879 906.365 54.0308 907.695 55.1742C905.951 59.1574 902.539 61.5824 898.6 63.1908C891.612 65.8043 884.587 65.3268 877.775 62.374C872.769 59.4966 869.043 54.8978 867.036 49.4822C865.066 41.6416 865.969 33.7382 869.959 26.7646C871.263 25.0934 872.631 23.6358 874.187 22.1909C874.613 21.7762 875.052 21.3741 875.491 20.9595C881.789 16.5994 891.186 15.4183 898.111 19.1878ZM876.884 29.2148C875.065 31.9791 873.584 35.045 873.584 38.3873C882.868 38.3873 892.152 38.3873 901.711 38.3873C900.958 32.3686 899.829 29.2524 895.125 25.4327C888.777 20.9595 881.388 23.6107 876.884 29.2148Z" fill="#B0B0B0"/>
<path d="M716.215 19.79C721.472 22.9689 724.345 28.9625 725.787 34.7801C725.787 37.7581 725.787 40.7234 725.787 43.7767C714.145 43.7767 702.491 43.7767 690.485 43.7767C693.345 51.7053 693.345 51.7053 699.58 56.6685C704.535 58.5659 709.529 58.0381 714.308 55.9146C715.575 55.1984 716.566 54.4445 717.645 53.4896C719.214 52.1702 719.214 52.1702 720.443 52.1325C721.986 52.987 723.266 54.0299 724.596 55.1733C722.852 59.1564 719.439 61.5815 715.513 63.1898C708.512 65.8033 701.499 65.3259 694.675 62.3731C689.657 59.4957 685.931 54.8843 683.948 49.4436C682.242 42.6961 682.531 34.7047 685.88 28.573C686.746 27.1782 687.674 25.884 688.691 24.5898C688.992 24.2003 689.293 23.8234 689.606 23.4213C696.143 16.033 707.822 15.2163 716.215 19.79ZM693.784 29.2138C691.978 31.9781 690.485 35.044 690.485 38.3863C699.768 38.3863 709.052 38.3863 718.611 38.3863C717.859 32.3676 716.742 29.2515 712.038 25.4317C705.677 20.9585 698.288 23.6098 693.784 29.2138Z" fill="#B0B0B0"/>
<path d="M258.485 16.1973C264.205 16.1973 269.939 16.1973 275.835 16.1973C275.835 31.8282 275.835 47.4592 275.835 63.5677C270.114 63.5677 264.381 63.5677 258.485 63.5677C258.485 47.9367 258.485 32.3057 258.485 16.1973Z" fill="#B0B0B0"/>
<path d="M516.97 17.9941C519.341 17.9941 521.712 17.9941 524.146 17.9941C524.158 18.8863 524.158 19.7909 524.171 20.7082C524.196 24.0631 524.233 27.418 524.271 30.7603C524.296 32.2053 524.309 33.6628 524.309 35.1078C524.321 37.1936 524.359 39.2794 524.384 41.3652C524.384 42.006 524.384 42.6469 524.384 43.3002C524.472 47.9745 525.312 51.8068 528.373 55.4381C531.723 57.2224 535.549 58.0014 539.3 57.1972C543.704 55.5512 546.037 53.3523 548.082 49.1807C548.622 47.3839 548.772 45.7379 548.81 43.8657C548.822 43.2877 548.835 42.7097 548.847 42.1191C548.86 41.1893 548.86 41.1893 548.873 40.2469C548.885 39.6061 548.898 38.9778 548.91 38.3245C548.948 36.2889 548.985 34.2659 549.023 32.2304C549.048 30.8608 549.073 29.4786 549.098 28.109C549.161 24.7416 549.224 21.3616 549.287 17.9941C551.645 17.9941 554.016 17.9941 556.462 17.9941C556.462 33.0346 556.462 48.075 556.462 63.5677C554.091 63.5677 551.72 63.5677 549.287 63.5677C549.086 61.595 548.885 59.6097 548.684 57.5742C548.308 58.1019 547.944 58.6422 547.555 59.1825C544.595 62.7761 539.99 64.4599 535.461 64.8871C530.268 65.0127 525.689 63.7688 521.611 60.4642C518.249 56.9836 516.894 52.9754 516.907 48.2258C516.907 47.5472 516.907 46.8813 516.907 46.1902C516.907 45.4614 516.907 44.7452 516.907 43.9913C516.919 42.8856 516.919 42.8856 516.919 41.7422C516.919 39.782 516.919 37.8093 516.932 35.8491C516.932 33.8387 516.945 31.8283 516.945 29.8179C516.945 25.8725 516.957 21.927 516.97 17.9941Z" fill="#B0B0B0"/>
<path d="M34.2614 92.7687C35.2149 93.4221 36.1558 94.0755 37.0967 94.754C36.3063 96.8147 35.5034 98.4356 34.1109 100.157C32.0158 99.3528 30.0336 98.4356 28.0515 97.4178C24.9778 95.8472 22.7322 95.2441 19.2572 95.2064C18.5421 95.1938 17.8144 95.1687 17.0743 95.1561C14.0885 95.4325 12.1439 96.4377 9.94848 98.4607C8.58104 100.848 8.71904 102.218 8.96995 104.957C9.7603 107.156 10.7514 107.872 12.8214 108.89C16.0455 110.41 19.2948 111.29 22.7322 112.106C28.2898 113.551 33.4585 114.908 37.172 119.608C39.1039 123.201 38.8279 127.398 38.2885 131.344C37.611 133.291 36.7078 134.636 35.3027 136.131C35.0016 136.47 34.7005 136.809 34.3869 137.161C30.5104 140.956 25.9815 141.634 20.7124 141.76C13.3106 141.572 6.26014 139.712 0.689997 134.51C0.464178 134.246 0.238362 133.995 0 133.743C1.25454 130.137 1.25454 130.137 2.9858 128.944C5.82105 129.283 7.96632 131.168 10.2621 132.726C15.0921 135.591 21.3271 135.854 26.7593 134.548C29.0175 133.555 29.8204 132.688 31.1502 130.552C31.79 128.052 31.8402 126.619 31.1125 124.144C28.1769 119.784 22.2555 119.08 17.4757 117.849C13.7497 116.894 10.4879 115.914 7.17596 113.941C6.6365 113.627 6.09705 113.3 5.53251 112.973C3.04853 110.347 1.70617 106.766 1.4929 103.147C1.74381 99.2649 3.18653 95.4325 6.02178 92.731C14.2892 86.5616 25.8435 87.4411 34.2614 92.7687Z" fill="#B0B0B0"/>
<path d="M86.1624 87.5537C88.3327 87.5537 90.5031 87.5537 92.7487 87.5537C92.9369 93.8865 93.1376 100.219 93.3383 106.753C95.1198 105.27 95.1198 105.27 96.9388 103.75C100.891 101.426 105.532 101.287 109.923 102.343C113.536 103.612 115.845 105.296 117.877 108.55C119.659 112.458 119.909 116.127 119.847 120.374C119.847 120.964 119.834 121.555 119.834 122.171C119.822 124.043 119.809 125.902 119.784 127.775C119.771 129.056 119.759 130.325 119.759 131.607C119.734 134.711 119.709 137.827 119.671 140.93C117.701 140.93 115.719 140.93 113.687 140.93C113.674 139.938 113.674 139.938 113.649 138.932C113.599 136.444 113.549 133.969 113.499 131.494C113.474 130.426 113.449 129.358 113.436 128.29C113.411 126.744 113.373 125.199 113.336 123.653C113.323 123.188 113.323 122.711 113.311 122.233C113.198 117.672 112.922 113.073 109.497 109.744C106.549 107.909 103.274 108.198 99.9246 108.55C96.9765 109.43 95.2954 111.201 93.8401 113.89C92.8992 116.265 92.987 118.677 92.9745 121.203C92.9619 121.768 92.9619 122.334 92.9494 122.912C92.9243 124.709 92.9118 126.506 92.8992 128.302C92.8741 129.521 92.8616 130.753 92.8365 131.971C92.7989 134.962 92.7612 137.952 92.7487 140.93C90.5783 140.93 88.3954 140.93 86.1624 140.93C86.1624 123.314 86.1624 105.71 86.1624 87.5537Z" fill="#B0B0B0"/>
<path d="M558.257 104.352C561.945 106.639 564.002 110.119 565.621 114.052C566.223 117.369 566.035 120.774 566.035 124.142C556.362 124.142 546.69 124.142 536.716 124.142C539.1 130.638 539.1 130.638 543.967 134.86C547.869 136.28 552.034 136.066 555.823 134.483C557.767 133.503 559.248 132.435 560.653 130.739C562.372 131.518 563.563 132.334 564.843 133.742C563.3 137.197 560.678 139.057 557.429 140.854C552.774 142.386 546.063 142.462 541.471 140.59C537.03 138.152 532.99 134.571 531.384 129.683C529.628 123.187 529.528 117.281 532.601 111.175C535.173 106.865 538.761 104.025 543.478 102.342C548.747 101.06 553.514 101.751 558.257 104.352ZM539.188 111.991C537.494 114.341 537.494 114.341 536.716 119.342C544.419 119.342 552.122 119.342 560.051 119.342C558.771 113.248 558.771 113.248 554.794 108.951C548.685 105.47 543.942 107.43 539.188 111.991Z" fill="#B0B0B0"/>
<path d="M204.226 105.924C207.914 108.927 210.411 113.476 211.214 118.15C211.816 124.709 210.486 130.476 206.296 135.666C202.558 139.448 198.179 141.647 192.847 141.76C186.387 141.747 181.745 140.616 176.965 136.093C172.536 131.23 171.432 126.292 171.533 119.796C171.947 114.808 174.155 110.284 177.705 106.753C185.96 100.597 195.607 100.157 204.226 105.924ZM181.005 112.056C178.345 115.851 177.203 119.947 177.943 124.533C179.135 129.22 181.557 132.173 185.483 134.937C188.971 136.608 192.647 136.646 196.297 135.502C199.798 134.032 202.031 131.444 204 128.265C205.531 123.98 205.28 119.004 203.436 114.883C201.328 111.214 198.568 109.191 194.654 107.721C189.36 106.728 184.68 107.985 181.005 112.056Z" fill="#B0B0B0"/>
<path d="M286.198 105.924C289.886 108.927 292.383 113.476 293.186 118.15C293.788 124.709 292.458 130.476 288.268 135.666C284.529 139.448 280.164 141.647 274.819 141.76C268.358 141.747 263.717 140.616 258.937 136.093C254.508 131.23 253.404 126.292 253.517 119.796C253.931 114.808 256.127 110.284 259.677 106.753C267.932 100.597 277.579 100.157 286.198 105.924ZM262.939 112.219C260.517 115.386 259.589 119.004 259.677 122.937C260.342 127.511 262.299 130.64 265.661 133.743C268.873 136.055 271.909 136.52 275.835 136.131C279.775 135.314 282.346 133.266 284.818 130.137C287.126 126.405 287.139 122.447 286.612 118.15C285.295 113.677 282.848 110.824 278.834 108.55C272.975 105.974 267.141 107.545 262.939 112.219Z" fill="#B0B0B0"/>
<path d="M159.05 105.661C162.902 108.689 165.424 113.376 166.339 118.151C167.042 124.433 165.7 129.723 161.999 134.862C158.624 138.908 154.421 141.258 149.152 141.735C142.327 141.886 137.184 140.906 132.09 136.093C127.637 131.193 126.596 126.293 126.708 119.759C127.047 114.444 129.054 110.524 132.831 106.754C140.947 100.647 150.444 100.22 159.05 105.661ZM135.227 113.351C132.893 116.768 132.442 120.953 133.056 124.999C134.236 129.233 136.908 132.362 140.421 134.9C143.971 136.533 147.697 136.684 151.423 135.503C154.923 134.033 157.156 131.444 159.126 128.265C160.656 123.981 160.405 119.005 158.561 114.884C156.454 111.215 153.694 109.192 149.779 107.721C143.682 106.578 139.066 108.513 135.227 113.351Z" fill="#B0B0B0"/>
<path d="M518.576 104.693C522.553 108.877 523.393 113.426 523.243 119.03C523.243 119.658 523.243 120.286 523.23 120.939C523.218 122.937 523.18 124.923 523.143 126.92C523.13 128.277 523.117 129.634 523.105 130.992C523.067 134.309 523.017 137.626 522.954 140.931C520.985 140.931 519.003 140.931 516.97 140.931C516.958 139.8 516.958 139.8 516.958 138.644C516.933 135.817 516.895 133.002 516.845 130.175C516.832 128.956 516.82 127.75 516.807 126.531C516.795 124.772 516.77 123.013 516.732 121.254C516.732 120.713 516.732 120.173 516.732 119.62C516.657 116.077 516.017 113.287 513.984 110.347C510.986 107.997 507.448 108.148 503.81 108.55C500.962 109.53 499.457 110.825 497.826 113.35C496.534 116.441 496.421 119.256 496.383 122.548C496.371 123.076 496.358 123.603 496.346 124.144C496.308 125.815 496.283 127.486 496.258 129.17C496.233 130.3 496.208 131.444 496.183 132.587C496.132 135.364 496.07 138.154 496.032 140.931C494.05 140.931 492.08 140.931 490.048 140.931C490.048 128.265 490.048 115.599 490.048 102.557C492.017 102.557 494 102.557 496.032 102.557C496.233 104.14 496.421 105.723 496.622 107.344C496.935 107.055 497.236 106.766 497.55 106.477C503.835 100.697 511.224 100.408 518.576 104.693Z" fill="#B0B0B0"/>
<path d="M395.506 102.557C397.476 102.557 399.458 102.557 401.49 102.557C401.49 103.311 401.503 104.064 401.503 104.843C401.528 107.658 401.565 110.485 401.616 113.312C401.628 114.519 401.641 115.737 401.653 116.956C401.666 118.715 401.691 120.474 401.728 122.234C401.728 122.774 401.728 123.314 401.728 123.867C401.804 127.423 402.481 130.162 404.488 133.14C406.859 135.251 409.757 135.615 412.856 135.54C415.528 135.037 417.536 134.082 419.367 132.047C421.776 128.428 422.027 125.161 422.077 120.939C422.09 120.412 422.102 119.884 422.115 119.344C422.152 117.672 422.177 116.001 422.202 114.318C422.228 113.187 422.253 112.043 422.278 110.9C422.34 108.123 422.391 105.334 422.428 102.557C424.41 102.557 426.38 102.557 428.412 102.557C428.412 115.222 428.412 127.888 428.412 140.93C426.443 140.93 424.473 140.93 422.428 140.93C422.14 138.556 422.14 138.556 421.839 136.131C421.525 136.42 421.211 136.709 420.898 137.01C420.471 137.387 420.057 137.764 419.631 138.166C419.217 138.531 418.803 138.907 418.389 139.297C414.587 142.237 410.284 141.936 405.68 141.534C402.092 140.667 399.746 138.933 397.413 136.118C395.217 132.462 395.343 128.83 395.393 124.684C395.393 124.056 395.393 123.427 395.393 122.774C395.406 120.751 395.418 118.74 395.431 116.718C395.443 115.348 395.443 113.978 395.443 112.609C395.456 109.254 395.481 105.899 395.506 102.557Z" fill="#B0B0B0"/>
<path d="M463.125 105.546C463.753 106.677 463.753 106.677 463.715 107.946C462.862 109.592 462.862 109.592 461.921 110.949C459.726 110.572 457.781 109.944 455.711 109.115C452.198 107.821 449.702 107.318 446.139 108.776C444.521 109.592 444.521 109.592 443.969 110.949C443.943 112.143 443.943 113.349 443.969 114.543C447.406 116.654 450.793 117.936 454.607 119.167C458.684 120.537 461.808 122.308 464.317 125.94C465.383 129.169 465.346 131.983 463.941 135.049C462.335 137.939 460.378 139.749 457.267 140.993C450.329 142.928 443.391 141.244 437.244 137.788C436.429 137.261 436.429 137.261 435.601 136.733C435.914 134.446 436.491 133.102 437.984 131.343C440.28 132.197 442.425 133.252 444.596 134.396C447.657 135.803 450.831 135.841 454.143 135.539C456.351 134.572 456.991 133.956 458.333 131.933C458.684 130.463 458.684 130.463 458.333 128.943C455.799 126.354 452.75 125.512 449.401 124.444C440.945 121.73 440.945 121.73 437.984 118.149C436.968 115.083 436.805 111.565 437.796 108.462C439.515 105.169 441.986 103.674 445.361 102.405C451.345 101.186 457.932 102.129 463.125 105.546Z" fill="#B0B0B0"/>
<path d="M596.921 104.617C598.351 105.547 598.351 105.547 599.016 106.677C598.903 108.613 597.824 109.555 596.545 110.95C592.957 109.743 592.957 109.743 591.665 109.266C588.014 107.947 585.103 107.218 581.365 108.814C579.897 109.605 579.897 109.605 579.195 110.347C578.843 112.369 578.843 112.369 579.195 114.543C581.904 116.792 584.765 117.685 588.102 118.665C592.969 120.21 596.746 121.617 599.581 126.091C600.497 129.785 600.233 132.876 598.602 136.319C595.742 139.498 592.518 141.357 588.24 141.659C581.453 141.759 576.585 140.264 570.827 136.733C571.216 134.446 571.705 133.114 573.21 131.343C575.519 132.21 577.689 133.265 579.872 134.396C582.958 135.891 586.019 135.816 589.369 135.54C591.614 134.572 592.204 133.981 593.559 131.933C593.647 130.137 593.647 130.137 592.957 128.34C590.197 126.116 587.349 125.148 583.987 124.143C579.345 122.748 575.318 121.253 572.621 116.943C571.906 113.324 571.956 109.567 574.001 106.414C580.11 99.5908 589.494 101.664 596.921 104.617Z" fill="#B0B0B0"/>
<path d="M617.446 101.865C622.928 101.614 627.871 103.184 632.45 106.15C631.572 109.517 631.572 109.517 630.18 110.535C628.423 111.088 627.783 110.686 626.165 109.856C622.979 108.261 620.507 107.695 616.894 107.947C614.736 108.726 613.632 109.241 612.365 111.176C611.951 112.772 611.951 112.772 612.767 114.254C614.184 116.114 615.288 116.516 617.496 117.282C618.538 117.659 618.538 117.659 619.591 118.036C620.896 118.476 622.201 118.916 623.506 119.343C627.758 120.763 631.133 122.321 633.354 126.392C633.893 129.935 633.655 133.064 632.112 136.318C629.251 139.497 626.027 141.357 621.749 141.659C614.536 141.759 609.731 140.088 603.734 136.13C604.524 134.748 605.315 133.366 606.13 131.933C608.602 131.933 609.43 132.273 611.55 133.403C615.426 135.452 618.5 135.904 622.878 135.539C625.111 134.572 625.714 133.981 627.068 131.933C627.156 130.136 627.156 130.136 626.466 128.34C623.706 126.116 620.858 125.148 617.496 124.143C612.867 122.748 608.815 121.253 606.13 116.943C605.541 113.525 605.653 110.246 607.021 107.054C610.082 103.976 613.118 102.204 617.446 101.865Z" fill="#B0B0B0"/>
<path d="M758.255 17.3527C759.359 17.3779 759.359 17.3779 760.501 17.3904C760.501 19.9663 760.501 22.5421 760.501 25.1933C759.309 25.4195 758.13 25.6582 756.913 25.897C751.819 27.1032 748.733 28.4351 745.91 32.946C743.602 37.0171 742.962 40.573 742.9 45.1844C742.887 45.7121 742.875 46.2399 742.862 46.7802C742.824 48.4513 742.799 50.1225 742.774 51.8062C742.749 52.9371 742.724 54.0805 742.699 55.2239C742.649 58.0008 742.599 60.7902 742.548 63.5671C739.977 63.5671 737.417 63.5671 734.77 63.5671C734.77 48.5267 734.77 33.4863 734.77 17.9935C737.329 17.9935 739.901 17.9935 742.548 17.9935C742.749 20.7579 742.937 23.5347 743.151 26.387C743.828 25.5577 744.505 24.7284 745.208 23.874C748.721 19.9034 752.848 17.2648 758.255 17.3527Z" fill="#B0B0B0"/>
<path d="M73.5911 103.75C75.4979 105.032 77.2543 106.427 78.9856 107.947C78.4963 110.825 77.0285 111.629 74.7954 113.35C74.419 112.986 74.419 112.986 74.0427 112.621C71.1071 109.92 68.4224 108.085 64.3577 107.872C60.6693 108.06 57.7964 109.053 55.049 111.553C51.7621 115.687 51.0219 119.532 51.461 124.747C52.2137 128.139 53.7192 130.728 56.2408 133.14C59.603 135.251 63.078 136.319 67.0173 135.54C69.564 134.56 72.048 133.492 73.9925 131.532C74.256 131.268 74.5194 131.004 74.7954 130.74C76.5894 130.803 77.2041 131.343 78.5339 132.575C79.0483 133.153 79.0483 133.153 79.5752 133.743C78.0321 137.349 74.8581 139.058 71.496 140.855C66.2645 142.589 59.4399 142.275 54.5095 139.888C49.5667 136.947 46.1543 132.575 44.6112 126.958C43.5323 120.437 44.7743 114.594 48.4627 109.153C54.6852 101.765 64.8344 99.604 73.5911 103.75Z" fill="#B0B0B0"/>
<path d="M320.71 87.5535C320.71 89.5388 320.71 91.5115 320.71 93.5596C320.233 93.4968 319.744 93.4214 319.242 93.3586C318.288 93.2581 318.288 93.2581 317.31 93.145C316.356 93.0319 316.356 93.0319 315.39 92.9062C313.22 92.9691 312.242 93.4088 310.535 94.7533C309.469 97.5553 309.181 100.144 308.741 103.147C312.693 103.147 316.645 103.147 320.71 103.147C320.71 104.931 320.71 106.715 320.71 108.55C316.959 108.55 313.208 108.55 309.344 108.55C309.344 119.23 309.344 129.923 309.344 140.93C307.173 140.93 305.003 140.93 302.757 140.93C302.757 130.25 302.757 119.557 302.757 108.55C301.189 108.55 299.608 108.55 297.978 108.55C297.978 106.564 297.978 104.592 297.978 102.556C299.558 102.556 301.139 102.556 302.757 102.556C302.72 101.777 302.695 100.998 302.644 100.194C302.657 96.3993 303.661 93.2957 305.567 90.0288C309.733 86.1965 315.491 86.2467 320.71 87.5535Z" fill="#B0B0B0"/>
<path d="M569.033 0C571.392 0 573.763 0 576.209 0C576.209 20.9837 576.209 41.9548 576.209 63.5668C573.838 63.5668 571.467 63.5668 569.033 63.5668C569.033 42.5957 569.033 21.612 569.033 0Z" fill="#B0B0B0"/>
<path d="M219.594 87.5537C221.564 87.5537 223.546 87.5537 225.578 87.5537C225.578 105.17 225.578 122.786 225.578 140.93C223.596 140.93 221.627 140.93 219.594 140.93C219.594 123.314 219.594 105.71 219.594 87.5537Z" fill="#B0B0B0"/>
<path d="M473.287 102.557C475.269 102.557 477.238 102.557 479.271 102.557C479.271 115.222 479.271 127.888 479.271 140.93C477.301 140.93 475.332 140.93 473.287 140.93C473.287 128.265 473.287 115.599 473.287 102.557Z" fill="#B0B0B0"/>
<path d="M258.485 0C264.205 0 269.939 0 275.835 0C275.835 4.15905 275.835 8.31809 275.835 12.5902C270.114 12.5902 264.381 12.5902 258.485 12.5902C258.485 8.44374 258.485 4.2847 258.485 0Z" fill="#B0B0B0"/>
<path d="M472.697 88.1562C475.068 88.1562 477.427 88.1562 479.873 88.1562C479.873 90.5311 479.873 92.9059 479.873 95.356C477.502 95.356 475.131 95.356 472.697 95.356C472.697 92.9812 472.697 90.6064 472.697 88.1562Z" fill="#B0B0B0"/>
</svg>
