<svg width="1114" height="534" viewBox="0 0 1114 534" fill="none" xmlns="http://www.w3.org/2000/svg">
<rect width="1114" height="534" fill="white"/>
<path fill-rule="evenodd" clip-rule="evenodd" d="M247.649 240.615V200.275L275.846 191V288.315H275.796C275.404 296.609 273.242 304.314 269.312 311.184C264.989 318.791 258.751 324.827 250.891 329.146C243.032 333.464 233.993 335.624 224.021 335.624C214.049 335.624 205.011 333.464 197.151 329.146C189.291 324.827 183.053 318.791 178.632 311.184C174.26 303.578 172 295.039 172 285.763C172 276.341 174.26 267.753 178.681 260.245C183.053 252.687 189.291 246.651 197.151 242.283C205.011 237.916 214.049 235.707 224.021 235.707C232.667 235.707 240.575 237.376 247.649 240.615ZM224.021 260.343C217.291 260.343 211.986 262.649 207.663 267.409C203.291 272.219 201.179 278.206 201.179 285.763C201.179 293.174 203.291 299.112 207.663 303.921C211.937 308.681 217.291 310.988 224.021 310.988C230.604 310.988 235.909 308.681 240.281 303.921C244.702 299.112 246.863 293.174 246.863 285.763C246.863 278.206 244.702 272.219 240.281 267.409C235.909 262.649 230.604 260.343 224.021 260.343ZM818.947 302.547L835.158 323.698L833.144 325.171C823.516 332.09 812.267 335.624 799.691 335.624C790.063 335.624 781.319 333.415 773.607 329.047C765.895 324.631 759.754 318.595 755.382 311.086C751.06 303.578 748.849 295.039 748.849 285.763C748.849 276.488 751.06 267.949 755.382 260.343C759.754 252.736 765.846 246.7 773.607 242.283C781.319 237.916 790.112 235.707 799.691 235.707C812.267 235.707 823.516 239.241 833.144 246.16L835.158 247.632L818.947 268.784L816.982 266.919C814.87 264.956 812.316 263.336 809.467 262.257C806.618 261.128 803.572 260.539 800.477 260.539C793.502 260.539 788.098 262.796 783.923 267.459C779.747 272.17 777.635 278.304 777.635 285.763C777.635 293.321 779.698 299.259 783.923 303.921C788.098 308.534 793.502 310.792 800.477 310.792C803.572 310.792 806.618 310.203 809.467 309.074C812.316 307.945 814.87 306.375 816.982 304.412L818.947 302.547ZM559.137 238.063L549.116 266.821H540.077V335.624H511.095V240.467C511.144 231.29 513.354 222.899 517.628 215.439C521.951 207.833 528.14 201.796 536.049 197.478C543.86 193.159 552.898 191 562.919 191C565.768 191 568.716 191.245 572.253 191.785L575.102 192.227L566.898 215.881L564.982 215.734C564.197 215.685 563.509 215.636 562.919 215.636C556.337 215.636 550.982 217.942 546.611 222.702C542.779 226.874 540.667 231.928 540.175 238.063H559.137ZM747.621 237.523L739.27 261.128L737.207 260.735C735.733 260.474 734.194 260.343 732.589 260.343C726.007 260.343 720.702 262.649 716.33 267.409C711.909 272.17 709.747 278.157 709.747 285.567V335.624H680.765V283.015H680.814C681.207 274.673 683.368 267.017 687.298 260.146C691.67 252.54 697.86 246.504 705.719 242.185C713.579 237.866 722.618 235.707 732.589 235.707C736.667 235.707 740.695 236.1 744.919 236.983L747.621 237.523ZM468.751 238.014H499.011L440.014 374H410.737L431.368 328.262L392.414 238.014H422.674L445.516 294.94L468.751 238.014ZM661.018 260.195C665.389 267.704 667.551 276.292 667.551 285.714C667.551 294.99 665.389 303.529 661.018 311.135C656.695 318.742 650.456 324.778 642.596 329.097C634.786 333.415 625.747 335.574 615.726 335.574C605.754 335.574 596.716 333.415 588.856 329.097C580.996 324.778 574.758 318.742 570.337 311.135C565.965 303.529 563.705 294.99 563.705 285.714C563.705 276.292 565.965 267.704 570.337 260.195C574.758 252.638 580.996 246.602 588.856 242.234C596.716 237.866 605.754 235.658 615.726 235.658C625.747 235.658 634.786 237.866 642.596 242.234C650.456 246.602 656.646 252.638 661.018 260.195ZM632.035 267.311C627.663 262.6 622.309 260.294 615.726 260.294C609.046 260.294 603.691 262.6 599.368 267.311C595.046 272.121 592.884 278.157 592.884 285.714C592.884 293.125 594.996 299.063 599.368 303.872C603.691 308.632 609.046 310.939 615.726 310.939C622.309 310.939 627.663 308.632 632.035 303.872C636.407 299.063 638.568 293.125 638.568 285.714C638.568 278.157 636.407 272.17 632.035 267.311ZM390.744 335.574H366.379V328.753C366.182 328.851 365.986 328.998 365.789 329.097C357.93 333.415 348.891 335.574 338.919 335.574C328.898 335.574 319.86 333.415 312.049 329.097C304.189 324.778 297.951 318.742 293.53 311.135C289.109 303.529 286.898 294.99 286.898 285.714C286.898 276.292 289.109 267.704 293.53 260.195C297.951 252.638 304.189 246.602 312 242.234C319.86 237.866 328.898 235.658 338.919 235.658C348.891 235.658 357.93 237.866 365.789 242.234C373.649 246.602 379.839 252.638 384.211 260.195C388.533 267.704 390.695 276.243 390.744 285.616V335.574ZM361.712 285.665C361.712 278.157 359.551 272.121 355.179 267.311C350.807 262.6 345.453 260.294 338.87 260.294C332.189 260.294 326.835 262.6 322.512 267.311C318.189 272.121 316.028 278.157 316.028 285.665C316.028 293.125 318.14 299.063 322.512 303.872C326.835 308.632 332.189 310.939 338.87 310.939C345.453 310.939 350.807 308.583 355.179 303.872C359.551 299.063 361.712 293.125 361.712 285.665ZM911.298 299.75H942C940.919 303.725 939.347 307.553 937.284 311.086C932.961 318.693 926.723 324.778 918.863 329.097C911.053 333.366 902.014 335.574 891.993 335.574C882.021 335.574 872.982 333.366 865.123 329.097C857.263 324.778 851.025 318.742 846.653 311.135C842.232 303.529 839.972 294.99 839.972 285.714C839.972 276.292 842.232 267.704 846.653 260.146C851.025 252.638 857.263 246.602 865.123 242.234C872.982 237.866 882.021 235.658 891.993 235.658C902.014 235.658 911.053 237.866 918.863 242.234C926.723 246.602 932.961 252.638 937.284 260.195C939.298 263.68 940.87 267.459 941.951 271.385L914.786 286.941L879.418 307.209C882.954 309.663 887.13 310.939 891.993 310.939C898.575 310.939 903.881 308.583 908.253 303.872C909.432 302.596 910.414 301.173 911.298 299.75ZM869.2 287.579L906.877 265.986C902.8 262.158 897.888 260.294 891.993 260.294C885.312 260.294 879.958 262.6 875.635 267.311C871.263 272.121 869.151 278.157 869.151 285.665C869.151 286.352 869.2 286.941 869.2 287.579Z" fill="black"/>
</svg>
