<svg width="1114" height="534" viewBox="0 0 1114 534" fill="none" xmlns="http://www.w3.org/2000/svg">
<rect width="1114" height="534" fill="white"/>
<path d="M900.913 318.573C900.913 307.304 910.044 298.162 921.285 298.162C932.532 298.162 941.652 307.304 941.652 318.573C941.652 329.841 932.532 338.977 921.285 338.977C910.044 338.977 900.913 329.841 900.913 318.573Z" fill="black"/>
<path d="M251.19 264.519C251.19 251.591 248.697 242 243.71 235.752C238.717 229.51 231.153 226.391 220.985 226.391H210.168V305.446H218.444C229.738 305.446 238.015 302.092 243.285 295.359C248.549 288.638 251.19 278.356 251.19 264.519ZM289.766 263.173C289.766 286.725 283.447 304.873 270.808 317.612C258.169 330.357 240.402 336.729 217.501 336.729H173V195.599H220.607C242.689 195.599 259.737 201.392 271.751 212.973C283.759 224.561 289.766 241.286 289.766 263.173Z" fill="black"/>
<path d="M413.032 336.728H448.443V195.007H413.032V336.728Z" fill="black"/>
<path d="M498.188 283.865C498.188 292.901 499.367 299.793 501.719 304.529C504.077 309.272 508.026 311.64 513.579 311.64C519.073 311.64 522.958 309.272 525.221 304.529C527.485 299.793 528.611 292.901 528.611 283.865C528.611 274.876 527.467 268.097 525.174 263.52C522.875 258.931 518.956 256.633 513.397 256.633C507.962 256.633 504.077 258.919 501.719 263.466C499.367 268.02 498.188 274.817 498.188 283.865ZM564.653 283.865C564.653 301.08 560.148 314.51 551.117 324.137C542.093 333.769 529.46 338.588 513.22 338.588C497.645 338.588 485.248 333.663 476.046 323.812C466.833 313.961 462.229 300.649 462.229 283.865C462.229 266.703 466.739 253.367 475.77 243.859C484.8 234.351 497.463 229.597 513.768 229.597C523.842 229.597 532.756 231.8 540.478 236.199C548.206 240.599 554.172 246.901 558.363 255.11C562.56 263.307 564.653 272.898 564.653 283.865Z" fill="black"/>
<path d="M578.715 336.728H614.131V282.489V231.457H578.715V336.728Z" fill="black"/>
<path d="M578.714 218.724H614.13V195H578.714V218.724Z" fill="black"/>
<path d="M685.883 309.877C690.664 309.877 696.358 308.66 703.001 306.245V332.732C698.226 334.834 693.687 336.34 689.372 337.232C685.057 338.136 679.993 338.585 674.199 338.585C662.309 338.585 653.738 335.59 648.473 329.614C643.233 323.637 640.604 314.46 640.604 302.075V258.679H628.201V231.465H640.604V204.582L676.292 198.363V231.465H698.887V258.679H676.292V299.654C676.292 306.469 679.493 309.877 685.883 309.877Z" fill="black"/>
<path d="M767.85 309.877C772.631 309.877 778.326 308.66 784.969 306.245V332.732C780.201 334.834 775.655 336.34 771.34 337.232C767.019 338.136 761.973 338.585 756.166 338.585C744.276 338.585 735.706 335.59 730.453 329.614C725.201 323.637 722.572 314.46 722.572 302.075V258.679H710.163V231.465H722.572V204.175L758.254 198.363V231.465H780.86V258.679H758.254V299.654C758.254 306.469 761.454 309.877 767.85 309.877Z" fill="black"/>
<path d="M829.656 271.041C830.139 265.276 831.785 261.054 834.59 258.355C837.409 255.662 840.886 254.315 845.048 254.315C849.587 254.315 853.194 255.827 855.871 258.875C858.564 261.904 859.968 265.962 860.08 271.041H829.656ZM879.597 242.008C871.18 233.74 859.236 229.6 843.786 229.6C827.545 229.6 815.049 234.354 806.289 243.862C797.535 253.37 793.155 267.013 793.155 284.789C793.155 302.005 797.889 315.281 807.332 324.6C816.781 333.919 830.05 338.585 847.14 338.585C855.346 338.585 862.409 338.024 868.327 336.908C874.21 335.804 879.904 333.807 885.428 330.925L879.987 307.202C875.972 308.843 872.152 310.107 868.545 310.94C863.334 312.151 857.616 312.759 851.391 312.759C844.565 312.759 839.177 311.088 835.227 307.745C831.277 304.396 829.173 299.778 828.931 293.896H892.23V277.732C892.23 262.182 888.021 250.27 879.597 242.008Z" fill="black"/>
<path d="M336.764 271.041C337.247 265.276 338.892 261.054 341.697 258.355C344.51 255.662 347.994 254.315 352.162 254.315C356.689 254.315 360.296 255.827 362.979 258.875C365.673 261.904 367.07 265.962 367.194 271.041H336.764ZM386.712 242.008C378.288 233.74 366.35 229.6 350.894 229.6C334.648 229.6 322.156 234.354 313.402 243.862C304.648 253.37 300.263 267.013 300.263 284.789C300.263 302.005 304.991 315.281 314.446 324.6C323.89 333.919 337.159 338.585 354.248 338.585C362.454 338.585 369.516 338.024 375.434 336.908C381.317 335.804 387.013 333.807 392.542 330.925L387.095 307.202C383.08 308.843 379.26 310.107 375.659 310.94C370.436 312.151 364.723 312.759 358.498 312.759C351.678 312.759 346.285 311.088 342.335 307.745C338.38 304.396 336.281 299.778 336.04 293.896H399.338V277.732C399.338 262.182 395.129 250.27 386.712 242.008Z" fill="black"/>
</svg>
