<svg width="1114" height="534" viewBox="0 0 1114 534" fill="none" xmlns="http://www.w3.org/2000/svg">
<rect width="1114" height="534" fill="white"/>
<path d="M448.011 212.511C406.706 212.511 387.869 239.633 387.869 264.757C387.869 279.356 393.164 292.71 402.621 301.499C413.061 311.232 426.942 316.06 445.061 316.06C460.758 316.06 473.543 312.175 479.86 309.873L481.411 309.421V261.664H464.011V298.708C461.515 299.651 456.068 301.046 446.12 301.046C421.685 301.046 406.025 286.561 406.025 264.153C406.025 241.897 422.252 227.562 447.519 227.562C457.014 227.562 464.352 229.033 471.463 232.202L473.808 233.145L478.46 218.584L476.758 217.792C471.614 215.378 460.985 212.511 448.011 212.511ZM847.9 212.699V227.26L881.149 227.411C896.392 227.411 907.778 231.146 915.04 238.426C920.903 244.273 923.815 252.422 923.74 262.456C923.74 273.584 920.26 282.977 913.64 289.579C905.924 297.312 893.744 301.273 878.69 301.197C874.113 301.197 869.007 301.122 865.338 300.745V254.836H847.938V314.664L849.943 314.815C857.583 315.57 865.867 316.06 876.383 316.06C897.943 316.06 915.721 310.439 926.425 300.254C936.449 290.446 941.972 276.866 941.972 261.965C941.972 247.668 936.979 235.861 927.22 226.921C917.158 217.49 901.574 212.662 880.77 212.662L847.9 212.699ZM511.898 213.454V314.966H529.449V213.454H511.898ZM648.826 213.454V314.966H713.318V299.915H666.377V269.699H708.514V254.647H666.377V228.618H710.973V213.416L648.826 213.454ZM771.266 213.454L732.873 314.966H750.576L761.772 283.958H797.517L809.318 314.966H827.361L788.552 213.454H771.266ZM562.887 213.605V314.966H626.773V299.613H580.475V213.605H562.887ZM779.512 233.447C780.495 236.54 790.217 262.154 793.016 269.548H766.273C766.311 269.548 778.566 236.54 779.512 233.447Z" fill="black"/>
<path d="M329.731 162C198.175 174.486 181.532 264.983 224.539 293.917C217.126 326.585 223.934 325.83 223.934 325.83C225.258 316.06 227.187 306.403 229.684 296.859C246.478 233.183 288.01 177.768 329.921 163.245V163.094C330.185 163.056 330.526 162.943 330.526 162.641C330.526 162.302 330.261 162.038 329.921 162.038C329.921 162.038 329.921 162.038 329.883 162.038L329.731 162ZM322.923 182.785C322.696 182.785 322.431 183.012 322.318 183.238C311.424 204.514 308.36 234.918 300.076 258.269C290.582 284.901 273.712 302.933 247.688 301.197V366.005C247.688 366.005 178.203 334.544 178.203 284.184V189.764L234.941 184.483H235.093C235.395 184.483 235.546 184.332 235.546 184.03C235.546 183.653 235.395 183.427 235.093 183.427H172V284.184C172 340.806 247.688 372.343 247.688 372.343C247.688 372.343 323.528 340.316 323.528 284.147V183.389C323.528 183.125 323.226 182.785 322.923 182.785Z" fill="black"/>
</svg>
