<svg width="1114" height="534" viewBox="0 0 1114 534" fill="none" xmlns="http://www.w3.org/2000/svg">
<rect width="1114" height="534" fill="white"/>
<path d="M131.396 198.4C137.317 198.4 143.238 198.4 149.348 198.4C149.361 201.077 149.386 203.741 149.411 206.492C149.436 208.641 149.461 210.777 149.486 212.913C149.511 215.175 149.536 217.424 149.549 219.673C149.561 221.847 149.586 224.021 149.624 226.194C149.624 227.024 149.637 227.853 149.637 228.682C149.536 236.158 149.536 236.158 153.162 242.403C156.248 244.326 158.845 245.017 162.508 244.577C166.021 243.509 167.652 242.127 169.684 239.174C170.387 237.139 170.374 235.141 170.412 232.98C170.424 231.836 170.424 231.836 170.449 230.655C170.449 229.826 170.462 228.984 170.474 228.155C170.487 227.288 170.499 226.433 170.512 225.579C170.55 223.33 170.575 221.08 170.6 218.819C170.637 216.117 170.675 213.416 170.713 210.714C170.775 206.605 170.826 202.509 170.888 198.4C176.81 198.4 182.731 198.4 188.828 198.4C188.866 203.163 188.904 207.937 188.929 212.699C188.941 214.923 188.954 217.135 188.966 219.359C188.991 221.508 189.004 223.656 189.004 225.805C189.004 226.999 189.029 228.205 189.042 229.398C189.042 238.42 187.787 247.178 181.502 254.101C174.589 260.434 165.456 261.176 156.536 260.937C148.921 260.598 142.36 258.009 137.091 252.367C131.258 244.803 131.295 235.581 131.333 226.458C131.333 225.642 131.333 224.825 131.333 224.021C131.345 221.897 131.345 219.774 131.358 217.65C131.358 215.476 131.358 213.315 131.358 211.141C131.37 206.894 131.383 202.647 131.396 198.4Z" fill="black"/>
<path d="M248.281 203.677C250.276 205.373 251.932 207.057 253.45 209.193C252.133 212.334 249.574 213.943 246.952 215.978C246.462 216.368 245.973 216.77 245.471 217.172C244.994 217.549 244.518 217.913 244.041 218.29C243.602 218.629 243.175 218.969 242.736 219.321C241.494 219.987 241.494 219.987 240.215 219.886C239.098 219.383 239.098 219.383 237.743 218.001C234.783 215.099 231.458 213.629 227.305 213.327C223.166 213.516 219.816 215.199 216.956 218.19C213.819 223.341 213.129 228.694 214.246 234.65C215.463 238.319 217.834 241.146 220.995 243.307C225.21 244.765 229.137 244.991 233.39 243.559C236.326 242.051 238.596 239.714 240.892 237.377C245.421 240.191 249.774 243.182 254.052 246.373C251.192 252.593 245.446 256.865 239.173 259.19C230.919 261.967 221.384 261.879 213.368 258.373C212.891 258.159 212.402 257.946 211.912 257.732C204.046 253.799 199.593 247.366 196.469 239.374C194.236 232.552 194.562 223.605 197.209 216.996C197.41 216.493 197.611 215.991 197.811 215.476C201.123 208.025 207.459 202.069 214.973 199.078C225.988 195.007 238.923 196.502 248.281 203.677Z" fill="black"/>
<path d="M453.298 213.39C457.3 216.343 459.094 219.924 459.885 224.787C459.935 225.968 459.96 227.137 459.947 228.318C459.947 229.361 459.947 229.361 459.947 230.429C459.947 231.17 459.947 231.924 459.947 232.69C459.947 233.457 459.947 234.223 459.947 235.015C459.935 237.051 459.935 239.086 459.922 241.122C459.922 243.195 459.922 245.268 459.91 247.354C459.91 251.425 459.897 255.496 459.885 259.567C454.352 259.567 448.832 259.567 443.137 259.567C443.099 257.72 443.074 255.861 443.049 253.951C443.011 252.141 442.974 250.332 442.936 248.522C442.923 247.279 442.898 246.022 442.886 244.778C442.848 242.969 442.823 241.172 442.785 239.363C442.773 238.81 442.773 238.257 442.76 237.679C442.685 232.414 442.685 232.414 440.364 227.828C438.294 226.898 436.362 226.785 434.154 227.187C432.097 228.456 431.331 229.072 430.566 231.384C430.503 232.314 430.466 233.243 430.441 234.173C430.428 234.739 430.416 235.304 430.403 235.882C430.391 236.799 430.391 236.799 430.378 237.729C430.365 238.345 430.353 238.973 430.34 239.614C430.303 241.599 430.265 243.597 430.227 245.595C430.202 246.939 430.177 248.284 430.152 249.641C430.089 252.945 430.027 256.263 429.964 259.567C424.243 259.567 418.51 259.567 412.614 259.567C412.614 243.936 412.614 228.305 412.614 212.197C418.347 212.197 424.068 212.197 429.964 212.197C430.165 213.78 430.365 215.363 430.566 216.997C430.855 216.708 431.131 216.431 431.419 216.13C437.805 210.111 445.495 209.319 453.298 213.39Z" fill="black"/>
<path d="M504.144 215.363C509.263 219.698 511.822 224.812 513.139 231.383C513.139 234.55 513.139 237.716 513.139 240.983C502.865 240.983 492.602 240.983 482.027 240.983C484.423 244.979 484.423 244.979 488.086 247.127C491.436 247.781 494.221 247.906 497.244 246.11C498.16 245.456 499.063 244.79 499.954 244.087C501.171 243.383 501.171 243.383 502.325 243.534C503.655 244.011 504.433 244.552 505.499 245.481C505.838 245.77 506.189 246.072 506.54 246.374C506.892 246.688 507.243 246.989 507.607 247.316C507.958 247.63 508.322 247.932 508.698 248.258C509.576 249.025 510.467 249.804 511.345 250.57C509.576 254.654 505.75 257.192 501.861 259.077C494.735 261.816 486.656 261.716 479.493 259.127C476.996 257.984 475.039 256.664 473.044 254.767C472.63 254.377 472.216 253.975 471.777 253.573C466.621 248.258 465.053 241.787 465.141 234.537C465.605 227.488 468.114 221.595 473.27 216.77C481.901 209.595 494.898 208.502 504.144 215.363ZM483.469 226.584C482.265 228.142 482.265 228.142 481.425 231.986C486.556 231.986 491.699 231.986 496.981 231.986C496.328 228.028 495.952 227.476 493.393 224.787C489.73 222.952 486.38 224.033 483.469 226.584Z" fill="black"/>
<path d="M742.908 198.4C745.467 198.4 748.039 198.4 750.686 198.4C752.417 200.247 753.521 201.655 754.751 203.791C755.918 205.738 757.21 207.611 758.477 209.495C760.396 212.323 762.265 215.162 764.147 218.002C764.925 219.183 765.715 220.364 766.506 221.558C768.413 224.435 770.32 227.3 772.227 230.19C774.56 227.388 776.555 224.385 778.587 221.357C778.963 220.791 779.34 220.239 779.729 219.661C780.519 218.479 781.322 217.286 782.112 216.105C783.329 214.295 784.546 212.486 785.763 210.676C786.528 209.533 787.306 208.377 788.084 207.221C788.448 206.693 788.811 206.153 789.175 205.588C789.514 205.085 789.853 204.582 790.204 204.055C790.505 203.615 790.806 203.175 791.107 202.723C792.036 201.303 792.889 199.845 793.767 198.4C796.326 198.4 798.898 198.4 801.545 198.4C801.545 218.58 801.545 238.772 801.545 259.567C799.174 259.567 796.803 259.567 794.357 259.567C794.168 243.936 793.968 228.305 793.767 212.197C787.432 221.709 787.432 221.709 781.109 231.233C780.293 232.452 779.478 233.683 778.65 234.902C778.022 235.869 778.022 235.869 777.37 236.85C776.969 237.453 776.555 238.056 776.141 238.684C775.789 239.224 775.438 239.752 775.074 240.292C773.995 241.612 773.193 242.165 771.624 242.78C768.337 238.32 765.201 233.796 762.165 229.172C758.401 223.468 754.55 217.826 750.686 212.197C750.485 227.828 750.285 243.459 750.084 259.567C747.713 259.567 745.342 259.567 742.908 259.567C742.908 239.388 742.908 219.196 742.908 198.4Z" fill="black"/>
<path d="M331.244 212.197C337.166 212.197 343.087 212.197 349.197 212.197C351.957 220.302 354.717 228.419 357.564 236.787C358.543 235.304 359.07 234.312 359.609 232.691C359.772 232.226 359.923 231.774 360.086 231.309C360.249 230.819 360.412 230.329 360.588 229.826C360.751 229.323 360.927 228.821 361.102 228.293C361.642 226.685 362.194 225.089 362.733 223.481C363.097 222.388 363.473 221.294 363.837 220.201C364.74 217.537 365.644 214.861 366.547 212.197C372.468 212.197 378.39 212.197 384.499 212.197C381.927 219.108 379.28 225.981 376.571 232.842C376.169 233.847 375.78 234.84 375.379 235.845C374.413 238.295 373.447 240.758 372.468 243.208C371.954 244.502 371.452 245.784 370.938 247.078C370.097 249.201 369.257 251.338 368.416 253.461C368.165 254.077 367.927 254.705 367.663 255.346C367.45 255.899 367.224 256.464 366.998 257.03C366.81 257.52 366.622 257.997 366.421 258.487C365.945 259.568 365.945 259.568 365.342 260.171C364.188 260.221 363.034 260.234 361.88 260.234C360.839 260.221 360.839 260.221 359.76 260.221C359.032 260.221 358.292 260.208 357.527 260.208C356.423 260.208 356.423 260.208 355.294 260.196C353.462 260.196 351.618 260.183 349.786 260.171C345.96 250.822 342.196 241.461 338.495 232.063C338.307 231.573 338.119 231.095 337.918 230.593C336.852 227.879 335.786 225.152 334.719 222.425C334.393 221.609 334.079 220.792 333.753 219.975C333.327 218.882 332.9 217.789 332.474 216.683C332.235 216.08 331.997 215.464 331.746 214.836C331.244 213.391 331.244 213.391 331.244 212.197Z" fill="black"/>
<path d="M972.664 215.789C974.621 217.285 976.302 218.855 978.059 220.589C978.247 218.415 978.448 216.229 978.648 213.992C981.019 213.992 983.391 213.992 985.837 213.992C985.875 219.433 985.9 224.886 985.925 230.34C985.937 232.865 985.95 235.391 985.962 237.929C985.987 240.367 986 242.817 986 245.267C986 246.197 986.013 247.127 986.025 248.056C986.1 255.495 985.561 262.142 980.442 267.96C974.32 273.262 967.031 274.305 959.153 273.827C952.918 273.111 947.197 271.164 942.154 267.369C942.957 265.208 943.948 263.323 945.14 261.363C945.742 261.652 946.332 261.941 946.934 262.242C947.737 262.632 948.54 263.009 949.33 263.398C949.919 263.675 949.919 263.675 950.509 263.964C956.644 266.891 963.017 267.922 969.603 265.823C973.53 264.215 975.663 261.765 977.381 257.92C978.385 254.942 978.209 251.889 978.059 248.773C977.62 249.187 977.62 249.187 977.168 249.614C971.171 255.118 965.764 256.425 957.748 256.073C952.654 255.633 948.088 252.542 944.713 248.848C941.313 244.576 940.034 240.442 940.134 235.014C940.134 234.549 940.147 234.071 940.147 233.581C940.322 227.437 942.016 223.24 946.344 218.792C948.038 217.385 949.794 216.254 951.726 215.186C952.077 214.985 952.429 214.784 952.792 214.57C958.601 211.806 967.232 212.673 972.664 215.789ZM950.848 224.773C948.264 228.166 947.097 231.584 947.31 235.856C948 240.53 949.756 243.822 953.482 246.737C957.999 249.828 962.766 250.105 968.085 249.112C972.125 247.83 975.587 244.827 977.758 241.208C979.351 237.527 979.288 233.192 978.272 229.36C976.566 225.439 973.128 222.373 969.264 220.627C962.59 218.503 955.603 219.584 950.848 224.773Z" fill="black"/>
<path d="M544.854 198.4C579.931 198.4 579.931 198.4 586.643 204.859C589.905 208.804 591.348 214.031 591.134 219.12C590.357 224.649 588.763 229.6 584.347 233.181C579.128 236.674 574.135 238.181 567.925 238.094C567.511 238.094 567.11 238.094 566.696 238.094C565.191 238.094 563.698 238.068 562.205 238.056C558.843 238.031 555.493 238.006 552.03 237.98C552.03 245.105 552.03 252.229 552.03 259.567C549.659 259.567 547.288 259.567 544.854 259.567C544.854 239.388 544.854 219.196 544.854 198.4ZM552.03 204.997C552.03 213.705 552.03 222.412 552.03 231.384C554.954 231.434 557.877 231.484 560.9 231.535C561.803 231.56 562.707 231.572 563.647 231.597C569.945 231.648 575.791 230.919 580.534 226.358C582.98 223.455 583.482 220.364 583.356 216.683C582.804 212.687 580.747 209.96 577.636 207.51C573.859 204.997 569.105 204.922 564.714 204.934C564.036 204.934 563.371 204.947 562.681 204.947C561.841 204.947 561.013 204.959 560.147 204.959C557.463 204.972 554.79 204.984 552.03 204.997Z" fill="black"/>
<path d="M329.45 211.594C329.45 217.524 329.45 223.468 329.45 229.587C326.879 229.976 324.307 230.379 321.672 230.781C318.561 232.628 318.561 232.628 317.03 235.505C316.792 236.008 316.541 236.523 316.29 237.038C315.149 239.941 314.985 242.705 314.898 245.809C314.885 246.198 314.873 246.6 314.86 247.002C314.822 248.259 314.785 249.515 314.747 250.759C314.722 251.614 314.697 252.468 314.672 253.322C314.609 255.408 314.546 257.481 314.484 259.567C308.964 259.567 303.431 259.567 297.736 259.567C297.736 243.936 297.736 228.305 297.736 212.197C303.268 212.197 308.788 212.197 314.484 212.197C314.684 214.371 314.885 216.544 315.086 218.794C315.663 217.839 315.663 217.839 316.24 216.884C319.853 211.883 323.366 211.594 329.45 211.594Z" fill="black"/>
<path d="M270.813 198.4C276.534 198.4 282.255 198.4 288.163 198.4C288.163 218.58 288.163 238.772 288.163 259.567C282.43 259.567 276.71 259.567 270.813 259.567C270.813 239.388 270.813 219.196 270.813 198.4Z" fill="black"/>
<path d="M475.44 285.363C505.361 285.363 505.361 285.363 511.345 290.151C514.043 293.518 514.005 296.471 513.992 300.705C513.578 304.035 512.349 306.297 509.739 308.37C509.363 308.672 508.987 308.973 508.61 309.287C508.322 309.501 508.046 309.727 507.757 309.941C508.109 310.167 508.46 310.38 508.824 310.607C512.311 312.831 515.372 314.866 516.727 318.937C517.129 323.398 517.104 327.28 514.331 330.937C511.032 334.618 507.143 336.089 502.363 336.93C501.434 336.981 500.494 337.006 499.553 337.006C499.013 337.006 498.461 337.006 497.897 337.006C497.332 336.993 496.768 336.993 496.19 336.993C495.664 336.993 495.137 336.993 494.585 336.993C492.628 336.993 490.671 336.981 488.713 336.968C484.335 336.956 479.957 336.943 475.44 336.93C475.44 319.917 475.44 302.892 475.44 285.363ZM481.425 291.357C481.425 296.898 481.425 302.439 481.425 308.144C483.896 308.194 486.367 308.219 488.826 308.244C489.667 308.257 490.507 308.269 491.348 308.282C499.239 308.521 499.239 308.521 505.926 304.739C507.494 302.213 507.757 300.931 507.757 297.954C506.729 294.825 505.198 293.543 502.363 291.96C500.268 291.256 498.386 291.281 496.203 291.294C495.789 291.294 495.362 291.294 494.923 291.294C493.581 291.307 492.239 291.307 490.884 291.319C489.968 291.319 489.052 291.319 488.149 291.332C485.903 291.332 483.67 291.344 481.425 291.357ZM481.425 313.547C481.425 319.289 481.425 325.019 481.425 330.937C484.323 330.975 487.221 331.012 490.106 331.037C491.097 331.05 492.076 331.063 493.054 331.075C494.484 331.1 495.902 331.1 497.32 331.113C497.759 331.125 498.185 331.125 498.637 331.138C501.836 331.138 504.22 330.472 507.155 329.14C509.664 326.489 510.429 324.566 510.392 320.973C509.953 318.447 508.51 316.914 506.553 315.344C502.827 313.597 498.637 313.471 494.572 313.484C493.882 313.484 493.18 313.484 492.465 313.497C491.172 313.497 491.172 313.497 489.843 313.509C487.057 313.522 484.285 313.534 481.425 313.547Z" fill="black"/>
<path d="M629.222 216.996C632.973 220.426 634.767 224.523 635.206 229.586C635.281 231.911 635.269 234.223 635.256 236.547C635.256 237.213 635.256 237.867 635.256 238.558C635.256 240.644 635.243 242.742 635.243 244.84C635.231 246.26 635.231 247.693 635.231 249.112C635.218 252.605 635.218 256.086 635.206 259.567C632.835 259.567 630.464 259.567 628.017 259.567C627.729 257.192 627.729 257.192 627.428 254.767C627.127 255.005 626.838 255.244 626.537 255.495C621.494 259.504 615.949 261.451 609.475 260.773C603.867 259.579 599.753 257.921 596.378 253.196C594.496 249.213 594.534 244.639 595.826 240.493C598.624 235.555 601.597 233.507 606.891 231.923C609.613 231.27 612.248 231.207 615.045 231.232C615.535 231.232 616.037 231.232 616.551 231.245C620.264 231.295 623.815 231.672 627.428 232.577C627.24 228.342 626.499 225.591 623.35 222.537C617.881 219.409 612.085 220.338 606.314 221.909C604.557 222.424 602.814 222.964 601.095 223.593C599.301 219.685 599.301 219.685 599.301 216.996C608.283 212.887 620.553 210.977 629.222 216.996ZM604.344 240.493C602.6 242.855 602.249 244.652 602.287 247.579C603.265 250.407 604.57 251.977 607.079 253.573C612.235 255.521 616.162 255.043 621.155 253.045C624.367 251.588 626.11 249.766 627.591 246.599C628.381 243.961 628.206 241.297 628.017 238.583C615.472 235.517 615.472 235.517 604.344 240.493Z" fill="black"/>
<path d="M925.067 216.808C928.768 219.924 930.562 223.643 931.377 228.38C931.54 230.818 931.528 233.243 931.503 235.68C931.503 236.359 931.49 237.05 931.49 237.754C931.49 239.927 931.478 242.101 931.452 244.275C931.452 245.758 931.44 247.24 931.44 248.723C931.427 252.342 931.402 255.948 931.377 259.567C929.019 259.567 926.648 259.567 924.201 259.567C923.9 257.192 923.9 257.192 923.599 254.767C923.311 255.006 923.009 255.244 922.708 255.496C919.045 258.36 915.758 260.295 911.041 260.773C910.464 260.823 910.464 260.823 909.887 260.886C904.919 261.162 899.424 259.831 895.447 256.765C892.562 253.9 891.194 250.444 890.994 246.411C891.182 242.641 892.085 239.035 894.77 236.271C899.788 232.313 904.869 231.27 911.116 231.27C911.869 231.27 911.869 231.27 912.634 231.27C916.385 231.295 919.961 231.66 923.599 232.577C923.587 228.795 923.26 225.993 920.525 223.228C916.9 220.477 912.459 220.1 908.043 220.59C904.38 221.319 900.792 222.311 897.279 223.593C896.978 222.826 896.677 222.06 896.376 221.306C896.213 220.879 896.049 220.452 895.874 220.012C895.485 218.793 895.485 218.793 895.485 216.996C904.656 213.327 916.247 210.714 925.067 216.808ZM900.528 240.531C898.973 242.641 898.383 244.3 898.471 246.976C899.274 249.766 900.44 251.739 902.962 253.234C907.491 255.269 911.618 255.32 916.273 253.598C919.258 252.204 921.617 250.419 923.599 247.806C924.502 244.74 924.339 241.749 924.201 238.583C911.631 235.505 911.631 235.505 900.528 240.531Z" fill="black"/>
<path d="M1027.11 215.188C1031.4 217.776 1033.92 220.905 1036.09 225.391C1036.29 225.805 1036.49 226.22 1036.71 226.66C1038.54 231.158 1037.89 234.538 1037.89 239.778C1026.23 239.778 1014.59 239.778 1002.58 239.778C1005.44 247.706 1005.44 247.706 1011.67 252.669C1016.64 254.567 1021.63 254.039 1026.41 251.916C1027.66 251.199 1028.67 250.445 1029.73 249.491C1031.3 248.171 1031.3 248.171 1032.54 248.133C1034.07 248.988 1035.37 250.031 1036.7 251.174C1034.95 255.157 1031.54 257.582 1027.6 259.191C1020.61 261.804 1013.59 261.327 1006.77 258.374C1001.77 255.497 998.043 250.898 996.036 245.482C994.066 237.642 994.969 229.738 998.959 222.765C1000.26 221.093 1001.63 219.636 1003.19 218.191C1003.61 217.776 1004.05 217.374 1004.49 216.959C1010.79 212.599 1020.19 211.418 1027.11 215.188ZM1005.88 225.215C1004.06 227.979 1002.58 231.045 1002.58 234.387C1011.87 234.387 1021.15 234.387 1030.71 234.387C1029.96 228.369 1028.83 225.252 1024.12 221.433C1017.78 216.959 1010.39 219.611 1005.88 225.215Z" fill="black"/>
<path d="M845.215 215.79C850.472 218.969 853.345 224.962 854.787 230.78C854.787 233.758 854.787 236.723 854.787 239.777C843.145 239.777 831.491 239.777 819.485 239.777C822.345 247.705 822.345 247.705 828.58 252.669C833.536 254.566 838.529 254.038 843.308 251.915C844.576 251.198 845.567 250.445 846.645 249.49C848.214 248.17 848.214 248.17 849.443 248.133C850.986 248.987 852.266 250.03 853.596 251.173C851.852 255.156 848.439 257.581 844.513 259.19C837.512 261.803 830.5 261.326 823.675 258.373C818.657 255.496 814.931 250.884 812.949 245.444C811.242 238.696 811.531 230.705 814.881 224.573C815.746 223.178 816.675 221.884 817.691 220.59C817.992 220.2 818.293 219.823 818.607 219.421C825.143 212.033 836.822 211.216 845.215 215.79ZM822.784 225.214C820.978 227.978 819.485 231.044 819.485 234.386C828.768 234.386 838.052 234.386 847.611 234.386C846.859 228.368 845.742 225.251 841.038 221.432C834.677 216.959 827.288 219.61 822.784 225.214Z" fill="black"/>
<path d="M387.485 212.197C393.205 212.197 398.939 212.197 404.835 212.197C404.835 227.828 404.835 243.459 404.835 259.568C399.114 259.568 393.381 259.568 387.485 259.568C387.485 243.937 387.485 228.306 387.485 212.197Z" fill="black"/>
<path d="M645.97 213.994C648.341 213.994 650.712 213.994 653.146 213.994C653.158 214.886 653.158 215.791 653.171 216.708C653.196 220.063 653.233 223.418 653.271 226.76C653.296 228.205 653.309 229.663 653.309 231.108C653.321 233.194 653.359 235.279 653.384 237.365C653.384 238.006 653.384 238.647 653.384 239.3C653.472 243.974 654.312 247.807 657.373 251.438C660.723 253.222 664.549 254.001 668.3 253.197C672.704 251.551 675.037 249.352 677.082 245.181C677.622 243.384 677.772 241.738 677.81 239.866C677.822 239.288 677.835 238.71 677.847 238.119C677.86 237.189 677.86 237.189 677.872 236.247C677.885 235.606 677.898 234.978 677.91 234.324C677.948 232.289 677.985 230.266 678.023 228.23C678.048 226.861 678.073 225.479 678.098 224.109C678.161 220.742 678.224 217.362 678.286 213.994C680.645 213.994 683.016 213.994 685.462 213.994C685.462 229.035 685.462 244.075 685.462 259.568C683.091 259.568 680.72 259.568 678.286 259.568C678.086 257.595 677.885 255.61 677.684 253.574C677.308 254.102 676.944 254.642 676.555 255.183C673.594 258.776 668.99 260.46 664.461 260.887C659.268 261.013 654.689 259.769 650.611 256.464C647.249 252.984 645.894 248.975 645.907 244.226C645.907 243.547 645.907 242.881 645.907 242.19C645.907 241.461 645.907 240.745 645.907 239.991C645.919 238.886 645.919 238.886 645.919 237.742C645.919 235.782 645.919 233.809 645.932 231.849C645.932 229.839 645.944 227.828 645.944 225.818C645.944 221.872 645.957 217.927 645.97 213.994Z" fill="black"/>
<path d="M163.261 288.769C164.215 289.422 165.156 290.075 166.097 290.754C165.306 292.815 164.503 294.436 163.111 296.157C161.016 295.353 159.034 294.436 157.051 293.418C153.978 291.847 151.732 291.244 148.257 291.206C147.542 291.194 146.814 291.169 146.074 291.156C143.088 291.433 141.144 292.438 138.948 294.461C137.581 296.848 137.719 298.218 137.97 300.957C138.76 303.156 139.751 303.872 141.821 304.89C145.046 306.41 148.295 307.29 151.732 308.106C157.29 309.551 162.459 310.908 166.172 315.608C168.104 319.201 167.828 323.398 167.288 327.344C166.611 329.291 165.708 330.636 164.303 332.131C164.002 332.47 163.701 332.809 163.387 333.161C159.51 336.956 154.981 337.634 149.712 337.76C142.311 337.572 135.26 335.712 129.69 330.51C129.464 330.246 129.238 329.995 129 329.743C130.255 326.137 130.255 326.137 131.986 324.944C134.821 325.283 136.966 327.168 139.262 328.726C144.092 331.591 150.327 331.854 155.759 330.548C158.017 329.555 158.82 328.688 160.15 326.552C160.79 324.052 160.84 322.619 160.113 320.144C157.177 315.784 151.255 315.08 146.476 313.849C142.75 312.894 139.488 311.914 136.176 309.941C135.637 309.627 135.097 309.3 134.533 308.973C132.049 306.347 130.706 302.766 130.493 299.147C130.744 295.265 132.187 291.433 135.022 288.731C143.289 282.562 154.843 283.441 163.261 288.769Z" fill="black"/>
<path d="M215.162 283.554C217.333 283.554 219.503 283.554 221.749 283.554C221.937 289.887 222.138 296.219 222.338 302.753C224.12 301.27 224.12 301.27 225.939 299.75C229.891 297.426 234.532 297.287 238.923 298.343C242.536 299.612 244.845 301.296 246.877 304.55C248.659 308.458 248.909 312.127 248.847 316.374C248.847 316.964 248.834 317.555 248.834 318.171C248.822 320.043 248.809 321.902 248.784 323.775C248.771 325.056 248.759 326.325 248.759 327.607C248.734 330.711 248.709 333.827 248.671 336.93C246.701 336.93 244.719 336.93 242.687 336.93C242.674 335.938 242.674 335.938 242.649 334.932C242.599 332.444 242.549 329.969 242.499 327.494C242.474 326.426 242.449 325.358 242.436 324.29C242.411 322.744 242.373 321.199 242.336 319.653C242.323 319.188 242.323 318.711 242.311 318.233C242.198 313.672 241.922 309.073 238.497 305.744C235.549 303.909 232.274 304.198 228.925 304.55C225.976 305.43 224.295 307.201 222.84 309.89C221.899 312.265 221.987 314.677 221.974 317.203C221.962 317.768 221.962 318.334 221.949 318.912C221.924 320.709 221.912 322.506 221.899 324.302C221.874 325.521 221.862 326.753 221.836 327.971C221.799 330.962 221.761 333.952 221.749 336.93C219.578 336.93 217.395 336.93 215.162 336.93C215.162 319.314 215.162 301.71 215.162 283.554Z" fill="black"/>
<path d="M687.257 300.352C690.945 302.639 693.002 306.119 694.621 310.052C695.223 313.369 695.035 316.774 695.035 320.142C685.362 320.142 675.69 320.142 665.716 320.142C668.1 326.638 668.1 326.638 672.968 330.86C676.869 332.28 681.034 332.066 684.823 330.483C686.767 329.503 688.248 328.435 689.653 326.739C691.372 327.518 692.563 328.334 693.843 329.742C692.3 333.197 689.678 335.057 686.429 336.854C681.774 338.386 675.063 338.462 670.471 336.59C666.03 334.152 661.99 330.571 660.385 325.683C658.628 319.187 658.528 313.281 661.601 307.175C664.173 302.865 667.761 300.025 672.478 298.342C677.747 297.06 682.515 297.751 687.257 300.352ZM668.188 307.991C666.494 310.341 666.494 310.341 665.716 315.342C673.419 315.342 681.122 315.342 689.051 315.342C687.771 309.248 687.771 309.248 683.794 304.951C677.685 301.47 672.942 303.43 668.188 307.991Z" fill="black"/>
<path d="M333.226 301.924C336.914 304.927 339.411 309.476 340.214 314.15C340.816 320.709 339.486 326.476 335.296 331.666C331.557 335.448 327.179 337.647 321.847 337.76C315.386 337.747 310.745 336.616 305.965 332.093C301.536 327.23 300.432 322.292 300.533 315.796C300.947 310.808 303.155 306.284 306.705 302.753C314.96 296.597 324.607 296.157 333.226 301.924ZM310.004 308.056C307.345 311.851 306.203 315.947 306.943 320.533C308.135 325.22 310.556 328.173 314.483 330.937C317.971 332.608 321.647 332.646 325.297 331.502C328.797 330.032 331.031 327.444 333 324.265C334.531 319.98 334.28 315.004 332.436 310.883C330.328 307.214 327.568 305.191 323.654 303.721C318.36 302.728 313.68 303.985 310.004 308.056Z" fill="black"/>
<path d="M415.198 301.924C418.886 304.927 421.383 309.476 422.186 314.15C422.788 320.709 421.458 326.476 417.268 331.666C413.529 335.448 409.164 337.647 403.819 337.76C397.358 337.747 392.717 336.616 387.937 332.093C383.508 327.23 382.404 322.292 382.517 315.796C382.931 310.808 385.127 306.284 388.677 302.753C396.932 296.597 406.579 296.157 415.198 301.924ZM391.939 308.219C389.518 311.386 388.589 315.004 388.677 318.937C389.342 323.511 391.299 326.64 394.661 329.743C397.873 332.055 400.909 332.52 404.835 332.131C408.775 331.314 411.346 329.266 413.818 326.137C416.126 322.405 416.139 318.447 415.612 314.15C414.295 309.677 411.848 306.824 407.834 304.55C401.975 301.974 396.141 303.545 391.939 308.219Z" fill="black"/>
<path d="M288.05 301.661C291.902 304.689 294.424 309.376 295.339 314.151C296.042 320.433 294.7 325.723 290.999 330.862C287.624 334.908 283.421 337.258 278.152 337.735C271.327 337.886 266.184 336.906 261.09 332.093C256.637 327.193 255.596 322.293 255.708 315.759C256.047 310.444 258.054 306.524 261.831 302.754C269.947 296.647 279.444 296.22 288.05 301.661ZM264.227 309.351C261.893 312.768 261.442 316.953 262.056 320.999C263.236 325.233 265.908 328.362 269.421 330.9C272.971 332.533 276.697 332.684 280.423 331.503C283.923 330.033 286.156 327.444 288.126 324.265C289.656 319.981 289.405 315.005 287.561 310.884C285.454 307.215 282.694 305.192 278.779 303.721C272.682 302.578 268.066 304.513 264.227 309.351Z" fill="black"/>
<path d="M647.576 300.693C651.553 304.877 652.393 309.426 652.243 315.03C652.243 315.658 652.243 316.286 652.23 316.939C652.218 318.937 652.18 320.923 652.143 322.92C652.13 324.277 652.117 325.635 652.105 326.992C652.067 330.309 652.017 333.626 651.954 336.931C649.985 336.931 648.003 336.931 645.97 336.931C645.958 335.8 645.958 335.8 645.958 334.644C645.933 331.817 645.895 329.002 645.845 326.175C645.832 324.956 645.82 323.75 645.807 322.531C645.795 320.772 645.77 319.013 645.732 317.254C645.732 316.713 645.732 316.173 645.732 315.62C645.657 312.077 645.017 309.287 642.984 306.347C639.986 303.997 636.448 304.148 632.81 304.55C629.962 305.53 628.457 306.825 626.826 309.35C625.534 312.441 625.421 315.256 625.383 318.548C625.371 319.076 625.358 319.603 625.346 320.144C625.308 321.815 625.283 323.486 625.258 325.17C625.233 326.3 625.208 327.444 625.183 328.587C625.132 331.364 625.07 334.154 625.032 336.931C623.05 336.931 621.08 336.931 619.048 336.931C619.048 324.265 619.048 311.599 619.048 298.557C621.017 298.557 623 298.557 625.032 298.557C625.233 300.14 625.421 301.723 625.622 303.344C625.935 303.055 626.236 302.766 626.55 302.477C632.835 296.697 640.224 296.408 647.576 300.693Z" fill="black"/>
<path d="M524.506 298.557C526.476 298.557 528.458 298.557 530.49 298.557C530.49 299.311 530.503 300.064 530.503 300.843C530.528 303.658 530.565 306.485 530.616 309.312C530.628 310.519 530.641 311.737 530.653 312.956C530.666 314.715 530.691 316.474 530.728 318.234C530.728 318.774 530.728 319.314 530.728 319.867C530.804 323.423 531.481 326.162 533.488 329.14C535.859 331.251 538.757 331.615 541.856 331.54C544.528 331.037 546.536 330.082 548.367 328.047C550.776 324.428 551.027 321.161 551.077 316.939C551.09 316.412 551.102 315.884 551.115 315.344C551.152 313.672 551.177 312.001 551.202 310.318C551.228 309.187 551.253 308.043 551.278 306.9C551.34 304.123 551.391 301.334 551.428 298.557C553.41 298.557 555.38 298.557 557.412 298.557C557.412 311.222 557.412 323.888 557.412 336.93C555.443 336.93 553.473 336.93 551.428 336.93C551.14 334.556 551.14 334.556 550.839 332.131C550.525 332.42 550.211 332.709 549.898 333.01C549.471 333.387 549.057 333.764 548.631 334.166C548.217 334.531 547.803 334.907 547.389 335.297C543.587 338.237 539.284 337.936 534.68 337.534C531.092 336.667 528.746 334.933 526.413 332.118C524.217 328.462 524.343 324.83 524.393 320.684C524.393 320.056 524.393 319.427 524.393 318.774C524.406 316.751 524.418 314.74 524.431 312.718C524.443 311.348 524.443 309.978 524.443 308.609C524.456 305.254 524.481 301.899 524.506 298.557Z" fill="black"/>
<path d="M592.125 301.546C592.753 302.677 592.753 302.677 592.715 303.946C591.862 305.592 591.862 305.592 590.921 306.949C588.726 306.572 586.781 305.944 584.711 305.115C581.198 303.821 578.702 303.318 575.139 304.776C573.521 305.592 573.521 305.592 572.969 306.949C572.944 308.143 572.944 309.349 572.969 310.543C576.406 312.654 579.793 313.936 583.607 315.167C587.684 316.537 590.808 318.308 593.317 321.94C594.384 325.169 594.346 327.983 592.941 331.049C591.335 333.939 589.378 335.749 586.267 336.993C579.329 338.928 572.392 337.244 566.244 333.788C565.429 333.261 565.429 333.261 564.601 332.733C564.914 330.446 565.492 329.102 566.984 327.343C569.28 328.197 571.426 329.252 573.596 330.396C576.657 331.803 579.831 331.841 583.143 331.539C585.351 330.572 585.991 329.956 587.333 327.933C587.684 326.463 587.684 326.463 587.333 324.943C584.799 322.354 581.75 321.512 578.401 320.444C569.945 317.73 569.945 317.73 566.984 314.149C565.968 311.083 565.805 307.565 566.796 304.462C568.515 301.169 570.986 299.674 574.361 298.405C580.345 297.186 586.932 298.129 592.125 301.546Z" fill="black"/>
<path d="M725.921 300.617C727.351 301.547 727.351 301.547 728.016 302.677C727.903 304.613 726.824 305.555 725.545 306.95C721.957 305.743 721.957 305.743 720.665 305.266C717.014 303.947 714.103 303.218 710.365 304.814C708.897 305.605 708.897 305.605 708.194 306.347C707.843 308.369 707.843 308.369 708.194 310.543C710.904 312.792 713.765 313.685 717.102 314.665C721.969 316.21 725.745 317.617 728.581 322.091C729.496 325.785 729.233 328.876 727.602 332.319C724.742 335.498 721.518 337.357 717.24 337.659C710.453 337.759 705.585 336.264 699.827 332.733C700.216 330.446 700.705 329.114 702.21 327.343C704.519 328.21 706.689 329.265 708.872 330.396C711.958 331.891 715.019 331.816 718.369 331.54C720.614 330.572 721.204 329.981 722.559 327.933C722.647 326.137 722.647 326.137 721.957 324.34C719.197 322.116 716.349 321.148 712.987 320.143C708.345 318.748 704.318 317.253 701.621 312.943C700.906 309.324 700.956 305.567 703.001 302.414C709.11 295.591 718.494 297.664 725.921 300.617Z" fill="black"/>
<path d="M746.446 297.865C751.928 297.614 756.871 299.184 761.45 302.15C760.572 305.517 760.572 305.517 759.18 306.535C757.423 307.088 756.783 306.686 755.165 305.856C751.978 304.261 749.507 303.695 745.894 303.947C743.736 304.726 742.632 305.241 741.365 307.176C740.951 308.772 740.951 308.772 741.767 310.254C743.184 312.114 744.288 312.516 746.496 313.282C747.537 313.659 747.537 313.659 748.591 314.036C749.896 314.476 751.201 314.916 752.505 315.343C756.758 316.763 760.133 318.321 762.354 322.392C762.893 325.935 762.655 329.064 761.112 332.318C758.251 335.497 755.027 337.357 750.749 337.659C743.535 337.759 738.731 336.088 732.734 332.13C733.524 330.748 734.315 329.366 735.13 327.933C737.601 327.933 738.429 328.273 740.55 329.403C744.426 331.451 747.5 331.904 751.878 331.539C754.111 330.572 754.713 329.981 756.068 327.933C756.156 326.136 756.156 326.136 755.466 324.34C752.706 322.116 749.858 321.148 746.496 320.143C741.867 318.748 737.815 317.253 735.13 312.943C734.54 309.525 734.653 306.246 736.021 303.054C739.082 299.976 742.118 298.204 746.446 297.865Z" fill="black"/>
<path d="M887.255 213.353C888.359 213.378 888.359 213.378 889.501 213.39C889.501 215.966 889.501 218.542 889.501 221.193C888.309 221.42 887.13 221.658 885.913 221.897C880.819 223.103 877.733 224.435 874.911 228.946C872.602 233.017 871.962 236.573 871.9 241.184C871.887 241.712 871.875 242.24 871.862 242.78C871.824 244.451 871.799 246.122 871.774 247.806C871.749 248.937 871.724 250.08 871.699 251.224C871.649 254.001 871.599 256.79 871.548 259.567C868.977 259.567 866.417 259.567 863.77 259.567C863.77 244.527 863.77 229.486 863.77 213.994C866.33 213.994 868.901 213.994 871.548 213.994C871.749 216.758 871.937 219.535 872.151 222.387C872.828 221.558 873.505 220.728 874.208 219.874C877.721 215.903 881.848 213.265 887.255 213.353Z" fill="black"/>
<path d="M202.591 299.75C204.498 301.032 206.254 302.427 207.986 303.947C207.496 306.825 206.028 307.629 203.795 309.35C203.419 308.986 203.419 308.986 203.043 308.621C200.107 305.92 197.422 304.085 193.358 303.872C189.669 304.06 186.796 305.053 184.049 307.553C180.762 311.687 180.022 315.532 180.461 320.747C181.214 324.139 182.719 326.728 185.241 329.14C188.603 331.251 192.078 332.319 196.017 331.54C198.564 330.56 201.048 329.492 202.992 327.532C203.256 327.268 203.519 327.004 203.795 326.74C205.589 326.803 206.204 327.343 207.534 328.575C208.048 329.153 208.048 329.153 208.575 329.743C207.032 333.349 203.858 335.058 200.496 336.855C195.264 338.589 188.44 338.275 183.509 335.888C178.567 332.947 175.154 328.575 173.611 322.958C172.532 316.437 173.774 310.594 177.463 305.153C183.685 297.765 193.834 295.604 202.591 299.75Z" fill="black"/>
<path d="M449.71 283.554C449.71 285.539 449.71 287.512 449.71 289.56C449.233 289.497 448.744 289.421 448.242 289.359C447.289 289.258 447.289 289.258 446.31 289.145C445.357 289.032 445.357 289.032 444.391 288.906C442.22 288.969 441.242 289.409 439.535 290.753C438.469 293.555 438.181 296.144 437.741 299.147C441.693 299.147 445.645 299.147 449.71 299.147C449.71 300.931 449.71 302.715 449.71 304.55C445.959 304.55 442.208 304.55 438.344 304.55C438.344 315.23 438.344 325.923 438.344 336.93C436.173 336.93 434.003 336.93 431.757 336.93C431.757 326.25 431.757 315.557 431.757 304.55C430.189 304.55 428.608 304.55 426.978 304.55C426.978 302.564 426.978 300.592 426.978 298.556C428.558 298.556 430.139 298.556 431.757 298.556C431.72 297.777 431.695 296.998 431.644 296.194C431.657 292.399 432.661 289.296 434.567 286.029C438.733 282.196 444.491 282.247 449.71 283.554Z" fill="black"/>
<path d="M698.033 196C700.392 196 702.763 196 705.209 196C705.209 216.984 705.209 237.955 705.209 259.567C702.838 259.567 700.467 259.567 698.033 259.567C698.033 238.596 698.033 217.612 698.033 196Z" fill="black"/>
<path d="M348.594 283.554C350.564 283.554 352.546 283.554 354.578 283.554C354.578 301.17 354.578 318.786 354.578 336.93C352.596 336.93 350.627 336.93 348.594 336.93C348.594 319.314 348.594 301.71 348.594 283.554Z" fill="black"/>
<path d="M602.287 298.557C604.269 298.557 606.238 298.557 608.271 298.557C608.271 311.222 608.271 323.888 608.271 336.93C606.301 336.93 604.332 336.93 602.287 336.93C602.287 324.265 602.287 311.599 602.287 298.557Z" fill="black"/>
<path d="M387.485 196C393.205 196 398.939 196 404.835 196C404.835 200.159 404.835 204.318 404.835 208.59C399.114 208.59 393.381 208.59 387.485 208.59C387.485 204.444 387.485 200.285 387.485 196Z" fill="black"/>
<path d="M601.697 284.156C604.068 284.156 606.427 284.156 608.873 284.156C608.873 286.531 608.873 288.906 608.873 291.356C606.502 291.356 604.131 291.356 601.697 291.356C601.697 288.981 601.697 286.606 601.697 284.156Z" fill="black"/>
</svg>
