<svg width="1114" height="534" viewBox="0 0 1114 534" fill="none" xmlns="http://www.w3.org/2000/svg">
<rect width="1114" height="534" fill="white"/>
<path d="M814.081 287.329C813.019 297.486 805.182 305.618 795.068 307.056C793.571 307.274 792.056 307.382 790.541 307.379C786.615 307.629 782.729 306.48 779.571 304.139C775.105 300.592 774.283 294.134 777.715 289.579C782.475 285.43 788.775 283.506 795.039 284.285C798.378 284.285 801.59 284.459 804.181 284.459H814.495C814.415 285.386 814.266 286.358 814.081 287.329ZM809.898 238.286C805.265 236.017 800.205 234.752 795.05 234.575C778.339 233.665 764.053 246.468 763.136 263.173H777.306C778.161 258.673 780.532 254.596 784.027 251.632C787.166 249.171 791.059 247.859 795.05 247.921C799.172 247.957 803.174 249.309 806.469 251.78C812.327 256.39 815.201 263.815 813.984 271.163H803.464C800.778 271.163 797.946 271.127 795.057 271.163C789.185 271.084 783.33 271.787 777.643 273.247C770.146 274.87 763.991 280.194 761.301 287.372C756.545 301.918 769.798 321.084 792.099 320.732C793.096 320.732 794.082 320.681 795.057 320.591C809.485 319.906 822.002 310.397 826.526 296.685C828.879 289.267 829.944 281.505 829.676 273.729C830.47 259.093 822.774 245.301 809.898 238.286Z" fill="black"/>
<path d="M896.55 283.451C896.383 285.343 896.133 287.198 895.814 289.017C895.506 290.745 895.06 292.445 894.477 294.101C893.937 295.634 893.259 297.116 892.447 298.522C891.682 299.845 890.761 301.069 889.702 302.171C888.651 303.258 887.47 304.208 886.186 305.005C885.309 305.548 884.377 305.994 883.402 306.335C882.902 306.512 882.376 306.675 881.851 306.799C880.314 307.172 878.74 307.382 877.16 307.415H876.388C874.568 307.433 872.756 307.27 870.965 306.933C869.508 306.664 868.094 306.186 866.767 305.516C865.067 304.646 863.577 303.421 862.392 301.925C862.178 301.656 861.953 301.341 861.728 301.015C861.507 300.689 861.311 300.395 861.112 300.037C860.387 298.721 859.803 297.333 859.372 295.895C858.872 294.228 858.509 292.521 858.292 290.793C858.085 289.271 857.915 287.633 857.792 285.893L857.723 284.85C857.599 282.715 857.523 280.447 857.516 278.077V277.736C857.516 274.319 857.647 271.152 857.9 268.239L858.063 266.561C858.118 266.025 858.187 265.477 858.248 264.952V264.756C858.466 263.024 858.828 261.317 859.329 259.647C859.764 258.212 860.344 256.824 861.069 255.509C861.986 253.82 863.251 252.345 864.781 251.182C865.092 250.946 865.397 250.74 865.694 250.562C865.999 250.37 866.314 250.178 866.666 250.004H866.705C867.782 249.461 868.92 249.044 870.095 248.769L870.892 248.591C872.658 248.254 874.448 248.087 876.246 248.102H877.091C878.675 248.123 880.252 248.283 881.807 248.576C882.583 248.729 883.352 248.924 884.105 249.163C884.801 249.388 885.479 249.66 886.135 249.975H886.179C888.724 251.215 890.866 253.142 892.367 255.541C893.567 257.455 894.466 259.542 895.039 261.727C895.158 262.169 895.281 262.655 895.39 263.165C895.503 263.68 895.6 264.169 895.695 264.68V264.76C896.021 266.63 896.267 268.645 896.431 270.804C896.597 272.964 896.677 275.269 896.677 277.711C896.797 279.653 896.71 281.563 896.55 283.444V283.451ZM906.378 250.055C906.091 249.479 905.761 248.906 905.446 248.341C905.131 247.779 904.757 247.203 904.424 246.714V246.678C902.637 244.018 900.371 241.71 897.743 239.876C897.243 239.528 896.71 239.187 896.166 238.861C895.622 238.535 895.071 238.242 894.495 237.941C892.722 237.053 890.855 236.365 888.927 235.893C888.561 235.799 888.155 235.709 887.738 235.622C885.117 235.093 882.445 234.835 879.77 234.846H879.69C878.849 234.846 878.019 234.846 877.218 234.897C875.362 234.969 873.517 235.151 871.686 235.441C870.537 235.629 869.402 235.872 868.282 236.173C867.249 236.452 866.234 236.796 865.245 237.205H865.183C863.331 237.966 861.591 238.977 860.01 240.209C859.144 240.891 858.335 241.644 857.592 242.46V206.61H842.744V277.729C842.69 283.806 843.103 289.876 843.98 295.888C844.357 298.402 844.977 300.877 845.836 303.273C846.623 305.44 847.671 307.501 848.961 309.415C851.542 313.151 855.149 316.068 859.35 317.807C861.779 318.826 864.327 319.547 866.934 319.953C870.069 320.445 873.241 320.681 876.417 320.656H877.185C882.945 320.764 888.637 319.398 893.723 316.691C895.959 315.423 898.036 313.894 899.91 312.136C901.719 310.426 903.3 308.494 904.616 306.382C905.928 304.284 907.048 302.073 907.962 299.772C908.89 297.428 909.615 295.011 910.122 292.543C910.554 290.481 910.898 288.419 911.144 286.357L911.279 285.165C911.54 282.737 911.67 280.302 911.674 277.86V277.736C911.728 271.855 911.155 265.981 909.963 260.223C909.209 256.694 908.005 253.276 906.378 250.055Z" fill="black"/>
<path d="M965.994 267.776C966.94 261.22 970.489 255.328 975.836 251.422C976.239 251.157 976.63 250.911 976.993 250.704C977.359 250.501 977.812 250.241 978.232 250.038C980.36 248.994 982.651 248.316 985.007 248.041C986.508 247.845 988.02 247.747 989.535 247.755C993.457 247.505 997.343 248.653 1000.5 250.994C1004.95 254.553 1005.77 260.996 1002.36 265.554C997.601 269.7 991.3 271.624 985.036 270.841C981.694 270.841 978.479 270.675 975.894 270.675H965.574C965.654 269.693 965.802 268.74 965.994 267.75V267.776ZM1006.83 291.895C1004.73 301.925 995.136 308.557 985.007 306.977C973.755 306.259 965.215 296.559 965.929 285.311C965.958 284.843 966.005 284.376 966.07 283.908H976.587C979.265 283.908 982.104 283.941 984.993 283.908C990.876 283.992 996.742 283.289 1002.44 281.817C1009.93 280.194 1016.09 274.874 1018.77 267.692C1023.53 253.154 1010.28 233.988 987.984 234.34C986.972 234.34 985.99 234.401 985.026 234.477C960.651 236.333 949.588 256.035 950.378 281.343C951.077 303.125 964.367 319.174 985.026 320.428C986.581 320.526 988.143 320.537 989.702 320.464C1005.99 320.544 1019.6 308.115 1021 291.895H1006.83Z" fill="black"/>
<path d="M939.173 315.195C939.01 314.477 938.894 313.749 938.821 313.013C938.673 311.466 938.6 309.817 938.6 308.067V206.61H923.752V308.089C923.752 308.875 923.752 309.705 923.796 310.564C923.839 311.422 923.857 312.227 923.912 312.999C923.981 314.079 924.104 315.155 924.278 316.224L924.383 316.84L924.503 317.459L924.546 317.651L924.687 318.336H940.202L939.749 317.17C939.514 316.525 939.322 315.865 939.173 315.195Z" fill="black"/>
<path d="M606.902 283.854C606.779 286.011 606.586 288.04 606.333 289.913C606.039 292.301 605.452 294.642 604.589 296.885C604.426 297.295 604.256 297.675 604.085 298.03C603.918 298.382 603.73 298.77 603.549 299.085L603.512 299.154C602.856 300.331 602.037 301.408 601.08 302.353C600.123 303.277 599.036 304.057 597.85 304.665C596.774 305.213 595.635 305.626 594.461 305.901L593.671 306.075C591.902 306.412 590.107 306.575 588.309 306.564H588.229C586.413 306.582 584.597 306.423 582.81 306.086C581.349 305.814 579.935 305.336 578.609 304.665C577.427 304.057 576.343 303.277 575.386 302.353C574.425 301.408 573.606 300.331 572.954 299.154C572.225 297.838 571.641 296.45 571.21 295.012C570.71 293.341 570.351 291.634 570.126 289.91C569.872 288.054 569.684 286.011 569.557 283.847C569.434 281.684 569.372 279.39 569.372 276.933C569.372 274.48 569.434 272.164 569.564 270.012C569.688 267.856 569.887 265.834 570.133 263.953C570.358 262.225 570.724 260.514 571.228 258.844C571.66 257.405 572.243 256.017 572.975 254.705C573.624 253.528 574.444 252.451 575.404 251.509C576.358 250.585 577.445 249.802 578.63 249.197C579.479 248.759 580.367 248.407 581.284 248.146C581.784 248.001 582.284 247.875 582.792 247.773C584.561 247.436 586.355 247.273 588.157 247.284H588.244C590.734 247.237 593.214 247.567 595.606 248.262C595.991 248.382 596.378 248.527 596.755 248.675C597.132 248.828 597.488 248.991 597.814 249.161H597.857C599.043 249.766 600.13 250.545 601.087 251.473C602.048 252.415 602.867 253.491 603.52 254.669C604.571 256.611 605.339 258.695 605.8 260.855C605.905 261.329 606.006 261.811 606.09 262.297C606.177 262.779 606.257 263.279 606.333 263.812V263.91C606.586 265.787 606.775 267.809 606.902 269.976C607.029 272.146 607.098 274.465 607.112 276.933C607.112 279.39 607.043 281.698 606.909 283.854H606.902ZM620.97 263.518C620.869 262.833 620.753 262.109 620.63 261.38V261.224C620.042 257.724 619.002 254.314 617.538 251.078C617.251 250.458 616.954 249.839 616.657 249.295C616.363 248.752 616.04 248.139 615.692 247.581L615.663 247.527C613.155 243.432 609.621 240.062 605.412 237.75C603.027 236.431 600.453 235.482 597.781 234.934C594.649 234.293 591.456 233.985 588.255 234.014C583.861 233.931 579.486 234.576 575.299 235.92C574.589 236.159 573.882 236.445 573.197 236.743C572.511 237.036 571.855 237.359 571.243 237.714H571.192C569.053 238.895 567.074 240.337 565.29 242.012C563.576 243.628 562.086 245.469 560.868 247.483C559.099 250.437 557.747 253.618 556.844 256.941C556.677 257.564 556.507 258.249 556.337 258.985C556.177 259.692 556.036 260.402 555.909 261.101V261.181C555.55 263.268 555.26 265.399 555.046 267.569L554.927 268.809C554.709 271.367 554.6 274.002 554.593 276.687V276.853C554.593 280.575 554.814 284.293 555.264 287.985C555.354 288.728 555.445 289.449 555.554 290.149C555.652 290.83 555.771 291.555 555.894 292.301V292.464C556.315 294.957 556.953 297.411 557.805 299.791C558.606 302.038 559.628 304.198 560.861 306.242C562.626 309.155 564.939 311.703 567.665 313.743C568.187 314.138 568.756 314.536 569.354 314.924C569.956 315.315 570.59 315.678 571.156 316.015C573.12 317.095 575.219 317.928 577.391 318.486C577.837 318.606 578.29 318.714 578.757 318.816C581.842 319.457 584.985 319.769 588.139 319.744H588.219C591.419 319.773 594.609 319.461 597.745 318.816C600.417 318.272 602.987 317.323 605.376 316.008C608.395 314.355 611.092 312.17 613.336 309.557C613.757 309.05 614.166 308.525 614.536 307.999C614.906 307.474 615.265 306.93 615.62 306.354C617.393 303.39 618.745 300.19 619.633 296.853C619.818 296.168 619.999 295.468 620.148 294.787C620.296 294.109 620.448 293.359 620.568 292.656V292.573C620.927 290.468 621.217 288.33 621.434 286.166L621.55 284.931C621.768 282.383 621.88 279.778 621.888 277.143V276.933C621.888 273.172 621.666 269.414 621.217 265.678C621.166 264.935 621.076 264.214 620.97 263.518Z" fill="black"/>
<path d="M535.21 236.474H534.565L534.384 237.086L515.425 299.95L500.602 237.137L500.443 236.474H486.592L486.429 237.137L471.606 299.95L452.651 237.086L452.47 236.474H436.755L437.132 237.608L463.49 316.96L463.685 317.55H478.53L478.704 316.916L493.588 263.079L508.331 316.916L508.501 317.55H523.346L523.541 316.963L550.055 237.611L550.432 236.474H535.21Z" fill="black"/>
<path d="M671.503 236.238L670.216 236.194H667.74C663.408 236.129 659.084 236.604 654.868 237.608C654.143 237.792 653.443 237.995 652.776 238.224L652.356 238.361C651.848 238.539 651.333 238.731 650.826 238.941H650.757C647.832 240.104 645.113 241.742 642.717 243.79C642.296 244.163 641.887 244.551 641.477 244.946C641.071 245.344 640.73 245.757 640.386 246.185C639.179 247.645 638.142 249.24 637.29 250.932C636.446 252.624 635.797 254.403 635.354 256.241C634.985 257.737 634.691 259.256 634.474 260.785L634.358 261.658C634.136 263.463 634.024 265.282 634.017 267.101V317.539H648.865V267.224C648.868 266.333 648.93 265.441 649.05 264.557C649.173 263.629 649.361 262.629 649.615 261.564C649.967 260.096 650.536 258.69 651.312 257.397C651.478 257.129 651.642 256.853 651.812 256.61C651.979 256.371 652.164 256.096 652.356 255.842L652.392 255.802C653.429 254.454 654.697 253.302 656.133 252.392C656.43 252.2 656.753 252.008 657.068 251.823C657.387 251.639 657.742 251.454 658.072 251.287C661.103 249.939 664.398 249.305 667.711 249.432H669.999C670.836 249.566 671.644 249.566 672.362 249.566C672.764 249.617 673.163 249.66 673.537 249.685C673.964 249.685 674.399 249.722 674.82 249.722H675.686V236.542L674.892 236.473C673.765 236.376 672.616 236.289 671.503 236.238Z" fill="black"/>
<path d="M728.611 274.78L753.722 237.662L754.628 236.321H736.666L736.412 236.709L700.075 291.931V205.813H685.242V317.55H699.666L699.927 317.17L719.556 288.035L739.029 317.17L739.29 317.55H757.082L756.19 316.21L728.611 274.78Z" fill="black"/>
<mask id="mask0_417_140" style="mask-type:luminance" maskUnits="userSpaceOnUse" x="93" y="191" width="195" height="153">
<path d="M93 191H287.88V344H93V191Z" fill="white"/>
</mask>
<g mask="url(#mask0_417_140)">
<path d="M273.427 274.49C281.569 261.778 286.343 247.207 287.311 232.147C287.55 220.243 282.457 208.857 273.427 201.099C248.948 180.534 200.735 191.514 201.384 232.781C201.627 248.363 209.199 268.529 228.865 292.833C234.669 287.713 239.24 281.349 242.241 274.218C190.005 203.251 299.777 199.385 245.167 278.07C241.168 284.401 236.343 290.169 230.815 295.221C213.781 311.299 198.364 316.347 184.908 314.14C138.226 306.465 130.776 236.832 127.311 195.417H93C93 195.866 93 196.337 93 196.801V204.549C94.7944 286.723 152.968 401.048 245.942 311.125C251.166 305.969 255.995 300.428 260.392 294.551C265.115 288.115 269.465 281.418 273.427 274.49Z" fill="black"/>
</g>
<path d="M352.438 238.768C346.17 287.007 318.214 327.824 276.037 305.35C275.203 306.506 274.33 307.633 273.427 308.716C269.411 313.46 264.883 317.747 259.928 321.504C259.812 321.432 259.685 321.378 259.551 321.345C263.944 324.117 268.591 326.458 273.427 328.346C325.493 348.476 373.01 298.726 377.588 236.525L353.119 235.431C352.811 236.525 352.586 237.641 352.438 238.768Z" fill="black"/>
</svg>
