<svg width="770" height="183" viewBox="0 0 770 183" fill="none" xmlns="http://www.w3.org/2000/svg">
<path fill-rule="evenodd" clip-rule="evenodd" d="M75.6491 49.6146V9.27514L103.846 0V97.3154H103.796C103.404 105.609 101.242 113.314 97.3123 120.184C92.9895 127.791 86.7509 133.827 78.8912 138.146C71.0316 142.464 61.993 144.623 52.0211 144.623C42.0491 144.623 33.0105 142.464 25.1509 138.146C17.2912 133.827 11.0526 127.791 6.63158 120.184C2.25965 112.578 0 104.039 0 94.7635C0 85.3411 2.25965 76.753 6.6807 69.2446C11.0526 61.6871 17.2912 55.6508 25.1509 51.2832C33.0105 46.9155 42.0491 44.7072 52.0211 44.7072C60.6667 44.7072 68.5754 46.3757 75.6491 49.6146ZM52.0211 69.3427C45.2912 69.3427 39.986 71.6492 35.6632 76.4095C31.2912 81.2188 29.1789 87.206 29.1789 94.7635C29.1789 102.174 31.2912 108.112 35.6632 112.921C39.9368 117.681 45.2912 119.988 52.0211 119.988C58.6035 119.988 63.9088 117.681 68.2807 112.921C72.7018 108.112 74.8632 102.174 74.8632 94.7635C74.8632 87.206 72.7018 81.2188 68.2807 76.4095C63.9088 71.6492 58.6035 69.3427 52.0211 69.3427ZM646.947 111.547L663.158 132.698L661.144 134.171C651.516 141.09 640.267 144.623 627.691 144.623C618.063 144.623 609.319 142.415 601.607 138.047C593.895 133.631 587.754 127.595 583.382 120.086C579.06 112.578 576.849 104.039 576.849 94.7635C576.849 85.4883 579.06 76.9493 583.382 69.3427C587.754 61.7361 593.846 55.6999 601.607 51.2832C609.319 46.9155 618.112 44.7072 627.691 44.7072C640.267 44.7072 651.516 48.2405 661.144 55.1601L663.158 56.6323L646.947 77.7836L644.982 75.9187C642.87 73.9558 640.316 72.3363 637.467 71.2566C634.618 70.1279 631.572 69.539 628.477 69.539C621.502 69.539 616.098 71.7965 611.923 76.4586C607.747 81.1698 605.635 87.3041 605.635 94.7635C605.635 102.321 607.698 108.259 611.923 112.921C616.098 117.534 621.502 119.792 628.477 119.792C631.572 119.792 634.618 119.203 637.467 118.074C640.316 116.945 642.87 115.375 644.982 113.412L646.947 111.547ZM387.137 47.0628L377.116 75.8206H368.077V144.623H339.095V49.4674C339.144 40.2904 341.354 31.8986 345.628 24.4393C349.951 16.8327 356.14 10.7965 364.049 6.47788C371.86 2.15929 380.898 0 390.919 0C393.768 0 396.716 0.245374 400.253 0.785197L403.102 1.22687L394.898 24.8809L392.982 24.7337C392.196 24.6846 391.509 24.6356 390.919 24.6356C384.337 24.6356 378.982 26.9421 374.611 31.7023C370.779 35.8737 368.667 40.9284 368.175 47.0628H387.137ZM575.621 46.5229L567.27 70.1279L565.207 69.7353C563.733 69.4736 562.194 69.3427 560.589 69.3427C554.007 69.3427 548.702 71.6492 544.33 76.4095C539.909 81.1698 537.747 87.1569 537.747 94.5672V144.623H508.765V92.0153H508.814C509.207 83.6726 511.368 76.0169 515.298 69.1464C519.67 61.5398 525.86 55.5036 533.719 51.185C541.579 46.8665 550.618 44.7072 560.589 44.7072C564.667 44.7072 568.695 45.0998 572.919 45.9831L575.621 46.5229ZM296.751 47.0137H327.011L268.014 183H238.737L259.368 137.262L220.414 47.0137H250.674L273.516 103.94L296.751 47.0137ZM489.018 69.1955C493.389 76.7039 495.551 85.292 495.551 94.7144C495.551 103.99 493.389 112.529 489.018 120.135C484.695 127.742 478.456 133.778 470.596 138.097C462.786 142.415 453.747 144.574 443.726 144.574C433.754 144.574 424.716 142.415 416.856 138.097C408.996 133.778 402.758 127.742 398.337 120.135C393.965 112.529 391.705 103.99 391.705 94.7144C391.705 85.292 393.965 76.7039 398.337 69.1955C402.758 61.638 408.996 55.6018 416.856 51.2341C424.716 46.8665 433.754 44.6581 443.726 44.6581C453.747 44.6581 462.786 46.8665 470.596 51.2341C478.456 55.6018 484.646 61.638 489.018 69.1955ZM460.035 76.3113C455.663 71.6002 450.309 69.2936 443.726 69.2936C437.046 69.2936 431.691 71.6002 427.368 76.3113C423.046 81.1207 420.884 87.1569 420.884 94.7144C420.884 102.125 422.996 108.063 427.368 112.872C431.691 117.632 437.046 119.939 443.726 119.939C450.309 119.939 455.663 117.632 460.035 112.872C464.407 108.063 466.568 102.125 466.568 94.7144C466.568 87.1569 464.407 81.1698 460.035 76.3113ZM218.744 144.574H194.379V137.753C194.182 137.851 193.986 137.998 193.789 138.097C185.93 142.415 176.891 144.574 166.919 144.574C156.898 144.574 147.86 142.415 140.049 138.097C132.189 133.778 125.951 127.742 121.53 120.135C117.109 112.529 114.898 103.99 114.898 94.7144C114.898 85.292 117.109 76.7039 121.53 69.1955C125.951 61.638 132.189 55.6018 140 51.2341C147.86 46.8665 156.898 44.6581 166.919 44.6581C176.891 44.6581 185.93 46.8665 193.789 51.2341C201.649 55.6018 207.839 61.638 212.211 69.1955C216.533 76.7039 218.695 85.243 218.744 94.6163V144.574ZM189.712 94.6653C189.712 87.1569 187.551 81.1207 183.179 76.3113C178.807 71.6002 173.453 69.2936 166.87 69.2936C160.189 69.2936 154.835 71.6002 150.512 76.3113C146.189 81.1207 144.028 87.1569 144.028 94.6653C144.028 102.125 146.14 108.063 150.512 112.872C154.835 117.632 160.189 119.939 166.87 119.939C173.453 119.939 178.807 117.583 183.179 112.872C187.551 108.063 189.712 102.125 189.712 94.6653ZM739.298 108.75H770C768.919 112.725 767.347 116.553 765.284 120.086C760.961 127.693 754.723 133.778 746.863 138.097C739.053 142.366 730.014 144.574 719.993 144.574C710.021 144.574 700.982 142.366 693.123 138.097C685.263 133.778 679.025 127.742 674.653 120.135C670.232 112.529 667.972 103.99 667.972 94.7144C667.972 85.292 670.232 76.7039 674.653 69.1464C679.025 61.638 685.263 55.6018 693.123 51.2341C700.982 46.8665 710.021 44.6581 719.993 44.6581C730.014 44.6581 739.053 46.8665 746.863 51.2341C754.723 55.6018 760.961 61.638 765.284 69.1955C767.298 72.6798 768.87 76.4586 769.951 80.3846L742.786 95.9413L707.418 116.209C710.954 118.663 715.13 119.939 719.993 119.939C726.575 119.939 731.881 117.583 736.253 112.872C737.432 111.596 738.414 110.173 739.298 108.75ZM697.2 96.5792L734.877 74.9863C730.8 71.1585 725.888 69.2936 719.993 69.2936C713.312 69.2936 707.958 71.6002 703.635 76.3113C699.263 81.1207 697.151 87.1569 697.151 94.6653C697.151 95.3524 697.2 95.9413 697.2 96.5792Z" fill="black"/>
</svg>
