<svg width="770" height="211" viewBox="0 0 770 211" fill="none" xmlns="http://www.w3.org/2000/svg">
<path d="M276.011 50.5107C234.706 50.5107 215.869 77.6335 215.869 102.757C215.869 117.356 221.164 130.71 230.621 139.499C241.06 149.232 254.942 154.06 273.061 154.06C288.758 154.06 301.543 150.175 307.86 147.873L309.411 147.421V99.6637H292.011V136.708C289.515 137.651 284.068 139.046 274.12 139.046C249.685 139.046 234.025 124.561 234.025 102.153C234.025 79.8969 250.252 65.5622 275.519 65.5622C285.013 65.5622 292.352 67.0334 299.463 70.2021L301.808 71.1452L306.46 56.5841L304.758 55.7919C299.614 53.3777 288.985 50.5107 276.011 50.5107ZM675.9 50.6994V65.2604L709.148 65.4113C724.392 65.4113 735.777 69.1458 743.04 76.4264C748.903 82.2734 751.815 90.4215 751.74 100.456C751.74 111.584 748.26 120.977 741.64 127.579C733.924 135.312 721.744 139.273 706.69 139.197C702.113 139.197 697.007 139.122 693.337 138.745V92.8358H675.938V152.664L677.943 152.815C685.583 153.57 693.867 154.06 704.382 154.06C725.943 154.06 743.721 148.439 754.425 138.254C764.449 128.446 769.971 114.866 769.971 99.9654C769.971 85.6685 764.979 73.8612 755.22 64.9209C745.158 55.4902 729.574 50.6616 708.77 50.6616L675.9 50.6994ZM339.898 51.4538V152.966H357.449V51.4538H339.898ZM476.825 51.4538V152.966H541.318V137.915H494.376V107.699H536.514V92.6472H494.376V66.6184H538.972V51.4161L476.825 51.4538ZM599.266 51.4538L560.873 152.966H578.575L589.772 121.958H625.517L637.318 152.966H655.361L616.552 51.4538H599.266ZM390.886 51.6047V152.966H454.773V137.613H408.475V51.6047H390.886ZM607.512 71.4469C608.495 74.5402 618.216 100.154 621.016 107.548H594.273C594.311 107.548 606.566 74.5402 607.512 71.4469Z" fill="black"/>
<path d="M157.731 0C26.1751 12.4863 9.53197 102.983 52.5393 131.917C45.1256 164.585 51.9341 163.83 51.9341 163.83C53.258 154.06 55.1871 144.403 57.6836 134.859C74.478 71.1831 116.01 15.7682 157.921 1.24485V1.09396C158.185 1.05624 158.526 0.943072 158.526 0.641289C158.526 0.301783 158.261 0.0377229 157.921 0.0377229C157.921 0.0377229 157.921 0.0377229 157.883 0.0377229L157.731 0ZM150.923 20.7853C150.696 20.7853 150.431 21.0116 150.318 21.238C139.424 42.5137 136.36 72.9183 128.076 96.2688C118.582 122.901 101.712 140.933 75.6884 139.197V204.005C75.6884 204.005 6.20335 172.544 6.20335 122.184V27.764L62.9413 22.4828H63.0926C63.3952 22.4828 63.5465 22.3319 63.5465 22.0302C63.5465 21.6529 63.3952 21.4266 63.0926 21.4266H0V122.184C0 178.806 75.6884 210.343 75.6884 210.343C75.6884 210.343 151.528 178.316 151.528 122.147V21.3889C151.528 21.1248 151.226 20.7853 150.923 20.7853Z" fill="black"/>
</svg>
