<svg width="635" height="374" viewBox="0 0 635 374" fill="none" xmlns="http://www.w3.org/2000/svg">
<path fill-rule="evenodd" clip-rule="evenodd" d="M350.265 51.0096L350.845 53.3281L371.142 57.9653L372.881 57.3857L372.301 55.0671L368.822 53.3281L354.324 50.4299L350.265 51.0096ZM295.754 51.5892L294.594 50.4299L288.215 51.0096L284.735 52.7485L276.037 53.9078L273.137 55.6467L273.717 57.3857H277.196L292.854 53.9078L295.754 51.5892ZM350.845 44.0538V46.3724L353.164 46.9521H371.142L375.781 45.2131L375.201 44.0538H350.845ZM270.238 45.2131L273.717 46.9521H291.694L295.754 45.7928L295.174 44.0538L293.434 43.4742H271.977L270.238 45.2131ZM372.881 33.6202L371.722 32.4609L350.265 37.0981L350.845 39.4167H356.064L362.443 37.0981L371.142 35.9388L372.881 33.6202ZM273.137 33.6202L274.297 35.3592L278.936 37.0981H283.575L291.114 39.4167L295.754 38.837L294.594 36.5184L276.037 32.4609H273.717L273.137 33.6202Z" fill="black"/>
<path fill-rule="evenodd" clip-rule="evenodd" d="M419.274 162.301L353.744 166.359H329.388L328.228 167.518V179.691H405.936L411.155 174.474L419.274 162.301ZM215.726 162.301L227.904 178.531L316.63 179.691L317.21 169.257L314.311 165.779L292.854 166.359L215.726 162.301ZM434.932 142.593L428.553 142.014L411.155 144.332L375.781 146.651H328.228V154.766L329.388 155.925L369.982 155.345L429.712 150.708L430.292 147.81L434.932 142.593ZM200.648 142.014L206.448 150.708L220.365 151.288L227.324 153.027L255.74 153.607L260.379 154.766L314.89 155.925L317.21 154.186L316.63 146.651H273.717L200.648 142.014Z" fill="black"/>
<path fill-rule="evenodd" clip-rule="evenodd" d="M466.247 336.194L466.826 338.512H470.306L472.626 340.251V366.915L469.726 369.234L467.406 369.813L466.247 371.552L466.826 372.711L482.484 372.132L481.324 369.813L479.005 369.234L476.105 366.335L477.265 345.468L499.881 372.132L502.781 372.711L503.361 340.831L506.26 338.512L509.74 337.933V336.194L494.082 335.614L492.922 337.353L494.082 338.512H496.982L499.301 341.411L499.881 358.22L498.721 360.539L477.265 335.614L466.247 336.194ZM433.192 336.194L433.772 338.512H437.251L439.571 341.411V366.335L436.091 369.813H434.352L433.192 371.552L433.772 372.711L451.749 372.132L451.169 369.813H448.849L445.37 366.915V340.831L446.53 339.092L451.169 338.512L452.329 336.774L451.169 335.614L433.192 336.194ZM382.74 335.614L381.58 337.353L382.74 338.512L386.799 339.092L387.959 340.831V366.915L382.16 370.973L382.74 372.711H400.137L400.717 370.973L399.557 369.813H397.817L394.918 368.074V355.322L396.078 354.743L400.717 357.061L402.457 359.38L403.037 363.437L405.936 370.973L409.995 373.291H413.475L416.954 370.973L417.534 368.074L415.795 367.495L413.475 369.234L411.735 368.074L409.416 359.959L407.676 357.061L405.356 355.902L404.196 354.163L410.575 348.946L411.155 343.729L409.995 340.251L407.676 337.933L403.037 335.614H382.74ZM394.918 339.092H400.137L403.616 341.99L404.776 347.207L401.297 351.844H394.918L393.758 350.105L394.918 339.092ZM336.927 335.614L335.767 337.353L336.347 338.512H339.826L342.726 341.411V366.915L340.986 368.654L336.347 370.393L336.927 372.711H359.543L367.662 371.552L368.242 366.335L367.662 363.437L366.502 362.858L364.183 364.017L363.023 367.495L358.384 368.654H350.845L347.945 365.756V355.902L349.105 354.743H354.904L356.644 356.481L357.224 359.959L358.963 360.539L360.123 359.38L359.543 347.207H357.224L356.644 350.105L354.904 351.844L349.105 351.265L347.945 350.105V340.251L350.845 338.512L358.384 339.092L361.283 341.411L361.863 343.729L363.023 344.309L365.342 343.729L364.763 336.194L336.927 335.614ZM287.635 335.614L286.475 336.774L287.055 344.309H289.374L290.534 340.831L292.854 339.092L299.813 338.512L300.973 339.672V366.915L299.233 368.654L295.174 369.813L294.594 372.711L313.731 372.132L312.571 369.813L309.671 369.234L307.352 366.915L306.772 340.251L310.251 338.512L314.89 339.092L319.53 344.309H321.849V336.194L287.635 335.614ZM236.603 335.614L235.443 337.353L236.603 338.512L240.662 339.092L241.822 341.411V366.915L236.023 370.973L236.603 372.711H253.42L254.58 371.552L254 370.393L248.201 367.495L247.621 358.22L248.781 355.322L253.42 356.481L256.32 359.38L256.9 364.017L260.379 371.552L263.858 373.291H267.338L270.817 370.973L271.397 368.074H265.598L263.858 361.119L261.539 357.061L259.799 356.481L258.059 354.163L260.959 352.424L264.438 348.366V341.411L262.119 338.512L256.9 335.614H236.603ZM249.361 338.512L254 339.092L256.9 341.411L258.639 344.889L257.479 348.946L254.58 351.844H248.781L247.621 350.685V340.251L249.361 338.512ZM118.881 336.194V337.933L123.521 338.512L125.26 340.831V366.915L122.941 369.234L119.461 370.393L118.881 371.552L120.041 372.711L137.438 372.132L136.279 369.813L133.959 369.234L131.639 366.915L132.219 355.322L133.379 354.743H149.037L150.776 356.481V366.335L147.297 369.813L144.397 370.393L143.817 371.552L144.977 372.711L162.954 372.132V370.973L159.475 369.234L156.575 365.756V343.15L157.155 340.251L158.895 338.512H162.374L163.534 336.774L162.374 335.614L143.817 336.194V337.933L149.616 339.092L150.776 342.57V350.685L149.616 351.844H132.799L131.639 350.685V340.831L133.379 338.512H136.858L138.018 336.774L136.858 335.614L118.881 336.194ZM197.749 335.614L194.269 342.57V344.309L191.95 347.787L191.37 351.265L187.311 358.8L184.991 365.756L183.251 368.074L178.612 370.973L179.192 372.711H193.689V370.393L189.05 368.074L188.47 366.335L190.21 364.017L191.37 359.959L194.849 358.22L204.708 358.8L205.868 359.959L208.187 365.176L207.607 368.654L204.708 369.813L203.548 371.552L204.128 372.711L220.945 372.132L220.365 370.393L215.146 366.915L202.968 336.774L201.228 335.035L197.749 335.614ZM198.329 343.15L200.068 344.889L201.228 349.526L203.548 352.424L202.388 354.743H195.429V349.526L197.169 347.207V344.309L198.329 343.15ZM528.877 340.251L526.557 343.15L523.658 350.105L524.237 360.539L528.297 367.495L532.356 370.973L537.575 373.291H548.014L550.913 371.552L558.452 369.813L559.032 360.539L560.192 359.38L563.091 358.8V355.902H548.594L547.434 357.641L548.014 358.8L552.653 359.959L553.233 364.017L550.333 368.074L545.694 369.813H542.215L537.575 368.074L533.516 364.017L531.196 359.38V347.787L532.936 344.309L537.575 339.672L539.895 338.512H548.014L552.653 341.411L556.132 347.787L557.872 348.366L559.032 347.207L558.452 335.614L556.132 336.194L554.393 337.933L551.493 335.614L546.854 334.455H540.475L535.256 335.614L528.877 340.251ZM82.347 335.614L73.6484 343.15L71.3288 348.366V360.539L74.2283 366.335L78.2877 370.393L84.6667 373.291H94.5251L99.1644 370.973H100.324L102.064 372.711H103.804V359.38L101.484 359.959L99.1644 365.176L96.2648 368.074L92.2055 369.813H88.1461L83.5068 367.495L78.8676 361.119L78.2877 348.946L80.6073 343.729L86.9863 338.512L95.6849 339.092L99.1644 341.99L99.7443 344.889L102.064 347.207L103.804 346.627L104.384 336.774L102.644 335.614L99.7443 337.353L97.4247 335.614L92.7854 334.455L82.347 335.614ZM572.37 287.504L583.968 288.083L585.708 286.924V267.216L587.447 265.477H626.301L630.941 263.738L635 257.942V237.654L633.26 234.176L629.781 231.278L624.562 229.539H573.53L572.37 230.699V287.504ZM585.708 241.712L586.868 240.553L619.922 241.132L621.082 242.291V253.305L617.603 255.044H587.447L585.708 253.305V241.712ZM539.895 229.539L538.735 230.699L539.315 287.504L550.913 288.083L553.233 286.344V231.278L551.493 229.539H539.895ZM451.169 230.119L450.009 284.606L451.169 287.504H463.927L465.087 263.738H504.521L505.68 264.898L506.26 287.504L518.438 288.083L519.598 286.924V230.119H505.68V250.986L504.521 252.145H465.667L464.507 250.986L463.927 230.119H451.169ZM370.562 234.176L368.822 239.393V254.464L370.562 259.681L372.881 261.999L379.84 264.318L419.274 264.898V275.331L418.114 276.49H369.982L368.822 277.65V281.128L371.142 285.185L375.201 287.504L419.854 288.083L425.073 287.504L429.132 284.606L431.452 280.548V259.681L427.973 254.464L422.753 252.145H382.16L381 250.986V242.871L384.479 241.132L429.712 241.712L430.872 241.132L431.452 235.915L427.393 231.278L419.854 229.539H379.84L374.041 231.278L370.562 234.176ZM286.475 229.539L285.315 230.699L285.895 240.553L287.055 241.132L311.991 241.712L312.571 287.504L323.589 288.083L325.909 286.924L325.329 242.871L325.909 241.712L351.425 241.132L352.584 239.973V230.699L351.425 229.539H286.475ZM197.749 230.119L197.169 286.344L198.329 287.504H211.087L211.667 264.318L251.68 263.738L252.84 264.898V286.924L254.58 288.083L266.758 287.504V230.699L265.598 229.539L252.84 230.119V250.986L251.68 252.145L211.667 251.566L211.087 230.119H197.749ZM110.763 235.336L110.183 279.389L110.763 282.287L113.662 285.765L117.142 287.504L121.781 288.083H167.014L172.233 287.504L176.872 284.026L178.612 280.548L178.032 253.884H144.397L143.237 255.044L143.817 264.318L164.694 264.898V275.331L163.534 276.49H125.84L124.1 274.752L124.68 241.132H177.452L178.612 240.553V235.336L175.712 231.858L167.014 229.539H121.781L113.662 231.858L110.763 235.336ZM77.7078 229.539L76.5479 230.699L77.1279 287.504L89.3059 288.083L90.4658 286.924L89.8858 229.539H77.7078ZM0.579909 230.119L0 286.344L2.31963 288.083L57.411 287.504V277.07L15.6575 276.49L14.4977 275.331V230.699L13.3379 229.539L0.579909 230.119ZM333.447 124.624L330.548 127.522V131L332.288 132.739L335.187 133.318L338.667 130.42V128.101L335.187 124.624H333.447ZM334.027 127.522L335.767 128.101L334.607 130.42L333.447 129.261L334.027 127.522ZM321.269 124.624L318.37 128.101V129.84L320.11 132.159L323.589 133.318L326.489 131L327.068 128.101L323.589 124.624H321.269ZM322.429 127.522L324.169 128.101L323.009 130.42L321.269 128.681L322.429 127.522ZM310.251 124.624L306.772 128.101V129.84L309.091 132.739L311.991 133.318L314.89 131L315.47 128.681L311.991 124.624H310.251ZM310.831 127.522L312.571 128.101L311.411 130.42L309.671 128.681L310.831 127.522ZM443.63 138.535L443.05 136.216H439.571L426.233 138.535H417.534L396.078 140.854L333.447 82.3095L331.708 79.991L332.868 72.4556L338.667 71.8759L339.826 70.7166L339.247 59.7034L335.767 57.9645V38.8362L336.927 37.6769L340.406 38.2565L338.667 34.7787L335.767 33.6194L328.808 27.8229L329.968 24.3451L329.388 20.2876L325.329 19.7079L324.169 18.5486V0H320.11V18.5486L318.95 19.7079H316.05L314.89 20.8672L315.47 28.4026L311.411 31.8805L306.772 34.199L304.452 37.0973V38.2565L307.932 37.6769L309.091 38.8362V55.0662L308.511 58.5441L305.032 60.283V70.7166L306.192 71.8759H310.831L311.991 73.0352L312.571 79.4113L257.479 131.579L249.361 140.274L247.621 139.694V137.955L250.521 135.057L251.1 127.522L245.881 120.566L242.402 119.407L237.763 119.986L237.183 121.725L238.922 125.203L237.763 125.783L223.845 125.203L222.685 124.044V121.146L219.205 117.668L215.726 117.088L212.826 117.668L212.247 119.986L213.986 122.885L212.826 124.044L207.027 123.464L205.868 124.624V133.318L210.507 136.796L217.466 138.535H209.927L195.429 136.216L191.95 136.796V138.535L215.146 168.097L224.425 181.429L227.904 183.747H407.676L409.995 182.588L429.132 156.504L430.872 155.345L438.411 144.332L443.63 138.535ZM200.068 143.172L200.648 141.433H208.767L229.644 143.752H244.142L251.1 144.911L274.297 146.07L276.037 145.491L302.132 146.65H351.425L389.119 145.491L428.553 141.433H434.352L435.511 142.593L430.872 147.809L429.712 151.287H428.553V153.026L426.813 154.185L423.913 158.823L419.854 162.3L418.694 165.199L411.735 174.473L405.936 180.269L228.484 179.69L218.046 166.938L215.146 161.721L213.406 161.141L206.447 152.447L204.708 148.389L200.068 143.172ZM222.685 138.535L223.265 136.796L242.982 138.535V139.694L240.662 140.854L222.685 138.535ZM208.767 129.261L209.927 128.101H211.667L215.726 131.579L219.205 129.84H221.525L223.845 131.579H228.484L231.384 129.84L235.443 131.579H240.082L242.402 129.84H246.461L247.621 132.159L247.041 133.318H213.406L210.507 132.159L208.767 129.261ZM240.082 124.624L240.662 123.464H242.402L243.562 124.624L242.402 125.783L240.082 124.624ZM214.566 122.305L216.886 121.146L219.205 122.885L218.626 124.624H216.306L214.566 122.305ZM354.904 109.553L356.064 108.394L389.699 140.274L388.539 141.433L380.42 140.854L354.904 109.553ZM294.594 103.756L273.137 132.159L265.018 141.433L254.58 140.274L281.836 113.61L294.594 103.756ZM327.648 85.7874L329.968 84.0485L375.201 140.854L374.041 142.013L350.265 143.172L347.945 142.013V128.681L349.105 127.522L352.584 126.942V118.248L328.228 117.668L327.068 116.509L327.648 85.7874ZM314.89 83.4688L316.63 85.2078L317.21 87.5263V116.509L316.05 117.668L292.274 118.248L291.694 126.363L292.274 127.522L296.333 128.101L296.913 141.433L295.753 142.593L274.877 141.433L272.557 142.013L271.397 139.694L303.872 97.9599L313.151 84.6281L314.89 83.4688ZM316.05 72.4556L327.648 71.8759L328.808 73.0352L328.228 77.6724L326.489 79.4113V81.1502L324.749 82.8892L323.589 86.367L324.169 121.146H347.945L349.105 122.305L348.525 124.044H346.205L343.886 125.783L343.306 142.593L302.712 143.172L300.973 141.433V125.783L300.393 124.624H298.653L295.753 122.885L298.653 121.146H320.11L320.689 119.986V85.7874L316.05 77.6724V72.4556ZM324.169 63.7609L325.329 62.6016L335.767 63.1813L336.347 64.9202L335.187 68.3981H325.329L324.169 67.2388V63.7609ZM318.37 62.6016H320.689L322.429 64.3406L321.849 67.2388L320.689 68.3981H318.95L317.79 67.2388L317.21 63.7609L318.37 62.6016ZM314.31 62.6016L316.05 64.3406L314.89 68.3981L312.571 67.8184V63.7609L314.31 62.6016ZM309.671 62.6016L310.831 63.7609V67.2388L309.671 68.3981L308.511 66.6591V63.7609L309.671 62.6016ZM317.21 57.3848L321.269 52.7477L324.169 53.3273V54.4866L325.909 55.6459L327.068 57.9645L325.909 59.1238L317.21 58.5441V57.3848ZM317.21 45.7919L319.53 46.9512L320.11 49.8494L314.31 57.3848L312.571 55.0662V51.5884L315.47 46.3716L317.21 45.7919ZM328.228 44.053L332.868 49.8494L332.288 55.6459L331.128 57.9645L329.388 57.3848V56.2255L325.329 51.5884L324.169 48.6901L328.228 44.053ZM315.47 40.5751V44.053L313.731 45.2123L312.571 44.053L313.151 40.5751H315.47ZM323.589 38.2565L325.909 39.9955L326.489 42.3141L323.009 46.3716L320.11 44.6326L319.53 41.1548L323.589 38.2565ZM315.47 33.0397L321.269 28.4026H323.009L328.228 31.8805L328.808 34.199L315.47 33.0397Z" fill="black"/>
</svg>
