<svg width="561" height="408" viewBox="0 0 561 408" fill="none" xmlns="http://www.w3.org/2000/svg">
<path d="M336.478 130.1L447.327 210.428L447.307 210.409L447.375 210.418L557.877 130.438L557.907 130.358L515.701 0.928127L379.857 0.899024L379.083 0.887678L336.514 129.959L336.478 130.1Z" stroke="#231F20" stroke-width="1.77559" stroke-linecap="round" stroke-linejoin="round"/>
<path d="M515.701 0.928127L379.857 0.899024L379.083 0.887678L336.514 129.959L336.478 130.1L447.327 210.428L447.307 210.409L447.375 210.418L557.877 130.438L557.907 130.358L515.701 0.928127Z" fill="white"/>
<path d="M515.701 0.928127L379.857 0.899024L379.083 0.887678L336.514 129.959L336.478 130.1L447.327 210.428L447.307 210.409L447.375 210.418L557.877 130.438L557.907 130.358L515.701 0.928127Z" stroke="#231F20" stroke-width="0.361977"/>
<path d="M525.96 59.1952L542.461 110.325L542.792 110.932C548.34 127.757 531.578 139.431 531.578 139.431L465.006 188.027L464.088 188.59C458.23 192.862 451.657 194.269 447.056 194.269V59.1104L525.96 59.1952Z" fill="black"/>
<path d="M368.711 59.1963L379.605 25.4578C379.605 25.4578 382.486 8.8099 403.825 8.8099L405.24 8.82913L493.598 8.99285C493.598 8.99285 509.272 7.07817 515.552 26.658L515.765 27.5283L525.96 59.1825L368.711 59.1963Z" fill="black"/>
<path d="M368.711 59.1952L352.211 110.325L351.873 110.932C346.334 127.757 363.096 139.431 363.096 139.431L429.666 188.027L430.585 188.59C436.462 192.862 443.025 194.269 447.636 194.269V59.1104L368.711 59.1952Z" fill="black"/>
<path d="M447.307 59.4276V194.198" stroke="#231F20" stroke-width="0.577806"/>
<path d="M446.679 129.96L496.291 164.212L514.934 150.987L465.19 117.182L529.766 71.235L525.678 59.1409L510.118 58.9574L446.905 103.193L383.269 58.9574L368.798 59.1409L365.048 71.235L427.057 116.488L378.639 150.81L397.101 164.212L446.679 129.96Z" fill="white"/>
<path d="M446.679 129.96L496.291 164.212L514.934 150.987L465.19 117.182L529.766 71.235L525.678 59.1409L510.118 58.9574L446.905 103.193L383.269 58.9574L368.798 59.1409L365.048 71.235L427.057 116.488L378.639 150.81L397.101 164.212L446.679 129.96Z" stroke="#231F20" stroke-width="0.452384"/>
<path d="M375.085 106.174C375.967 105.367 379.673 102.574 375.816 100.673C368.015 96.8688 374.25 92.0651 377.421 91.3718C380.601 90.6938 380.697 88.7155 380.697 88.7155C380.697 88.7155 380.601 90.6938 383.679 91.7185C386.768 92.7219 392.461 98.1287 384.303 101.116C380.253 102.611 384.196 106.995 385.269 107.567C386.342 108.135 390.557 109.986 391.031 105.677C391.959 97.104 398.609 101.299 400.349 104.04C402.079 106.771 403.983 106.191 403.983 106.191C403.983 106.191 402.079 106.771 402.176 110.003C402.263 113.226 399.054 121.115 393.453 114.516C390.654 111.221 388.546 115.188 388.363 116.392C388.202 117.585 387.556 122.835 391.765 121.816C400.185 119.753 398.487 127.423 396.521 129.978C394.53 132.543 395.728 134.125 395.728 134.125C395.728 134.125 394.53 132.543 391.51 133.726C388.498 134.933 380.64 134.444 384.941 126.95C387.087 123.186 382.105 122.82 380.9 122.671L380.205 122.641C379.016 122.884 375.12 123.6 377.537 127.177C382.36 134.367 374.505 134.562 371.409 133.556C368.315 132.584 366.227 133.689 366.227 133.689C366.227 133.689 367.3 132.036 366.165 130.18C364.478 127.408 361.761 120.227 370.326 121.701C374.608 122.421 374.25 116.955 373.999 115.766L373.767 114.771C373.129 113.751 370.712 109.215 368.154 112.7C363.018 119.676 359.384 112.725 359.267 109.498C359.132 106.261 357.183 105.806 357.183 105.806C357.183 105.806 359.132 106.261 360.669 103.418C362.206 100.571 368.547 95.8999 370.074 104.422C370.848 108.663 373.742 107.232 374.763 106.594L375.085 106.174Z" fill="white"/>
<path d="M375.085 106.174C375.967 105.367 379.673 102.574 375.816 100.673C368.015 96.8688 374.25 92.0651 377.421 91.3718C380.601 90.6938 380.697 88.7155 380.697 88.7155C380.697 88.7155 380.601 90.6938 383.679 91.7185C386.768 92.7219 392.461 98.1287 384.303 101.116C380.253 102.611 384.196 106.995 385.269 107.567C386.342 108.135 390.557 109.986 391.031 105.677C391.959 97.104 398.609 101.299 400.349 104.04C402.079 106.771 403.983 106.191 403.983 106.191C403.983 106.191 402.079 106.771 402.176 110.003C402.263 113.226 399.054 121.115 393.453 114.516C390.654 111.221 388.546 115.188 388.363 116.392C388.202 117.585 387.556 122.835 391.765 121.816C400.185 119.753 398.487 127.423 396.521 129.978C394.53 132.543 395.728 134.125 395.728 134.125C395.728 134.125 394.53 132.543 391.51 133.726C388.498 134.933 380.64 134.444 384.941 126.95C387.087 123.186 382.105 122.82 380.9 122.671L380.205 122.641C379.016 122.884 375.12 123.6 377.537 127.177C382.36 134.367 374.505 134.562 371.409 133.556C368.315 132.584 366.227 133.689 366.227 133.689C366.227 133.689 367.3 132.036 366.165 130.18C364.478 127.408 361.761 120.227 370.326 121.701C374.608 122.421 374.25 116.955 373.999 115.766L373.767 114.771C373.129 113.751 370.712 109.215 368.154 112.7C363.018 119.676 359.384 112.725 359.267 109.498C359.132 106.261 357.183 105.806 357.183 105.806C357.183 105.806 359.132 106.261 360.669 103.418C362.206 100.571 368.547 95.8999 370.074 104.422C370.848 108.663 373.742 107.232 374.763 106.594L375.085 106.174Z" stroke="#231F20" stroke-width="0.305757"/>
<path d="M381.171 117.868C383.381 117.98 385.293 116.115 385.411 113.669C385.54 111.231 383.849 109.181 381.635 109.06C379.392 108.943 377.488 110.828 377.369 113.247C377.237 115.684 378.942 117.76 381.171 117.868Z" fill="white"/>
<path d="M381.171 117.868C383.381 117.98 385.293 116.115 385.411 113.669C385.54 111.231 383.849 109.181 381.635 109.06C379.392 108.943 377.488 110.828 377.369 113.247C377.237 115.684 378.942 117.76 381.171 117.868Z" stroke="#231F20" stroke-width="0.305639"/>
<path d="M380.398 98.7187C381.896 98.7995 383.166 97.6457 383.24 96.159C383.317 94.6778 382.167 93.3834 380.659 93.3198C379.176 93.2389 377.894 94.3868 377.817 95.876C377.74 97.3686 378.89 98.6437 380.398 98.7187Z" fill="white"/>
<path d="M380.398 98.7187C381.896 98.7995 383.166 97.6457 383.24 96.159C383.317 94.6778 382.167 93.3834 380.659 93.3198C379.176 93.2389 377.894 94.3868 377.817 95.876C377.74 97.3686 378.89 98.6437 380.398 98.7187Z" stroke="#231F20" stroke-width="0.305639"/>
<path d="M364.632 110.963C366.121 111.04 367.407 109.904 367.484 108.407C367.561 106.899 366.424 105.624 364.916 105.556C363.405 105.481 362.129 106.627 362.051 108.122C361.984 109.615 363.134 110.896 364.632 110.963Z" fill="white"/>
<path d="M364.632 110.963C366.121 111.04 367.407 109.904 367.484 108.407C367.561 106.899 366.424 105.624 364.916 105.556C363.405 105.481 362.129 106.627 362.051 108.122C361.984 109.615 363.134 110.896 364.632 110.963Z" stroke="#231F20" stroke-width="0.305639"/>
<path d="M397.101 111.808C398.599 111.889 399.875 110.741 399.943 109.241C400.034 107.756 398.879 106.492 397.372 106.392C395.879 106.323 394.597 107.463 394.53 108.958C394.443 110.458 395.583 111.726 397.101 111.808Z" fill="white"/>
<path d="M397.101 111.808C398.599 111.889 399.875 110.741 399.943 109.241C400.034 107.756 398.879 106.492 397.372 106.392C395.879 106.323 394.597 107.463 394.53 108.958C394.443 110.458 395.583 111.726 397.101 111.808Z" stroke="#231F20" stroke-width="0.305639"/>
<path d="M390.654 131.363C392.162 131.438 393.428 130.298 393.505 128.797C393.588 127.31 392.442 126.025 390.93 125.956C389.432 125.868 388.154 127.016 388.073 128.51C387.995 130.013 389.15 131.292 390.654 131.363Z" fill="white"/>
<path d="M390.654 131.363C392.162 131.438 393.428 130.298 393.505 128.797C393.588 127.31 392.442 126.025 390.93 125.956C389.432 125.868 388.154 127.016 388.073 128.51C387.995 130.013 389.15 131.292 390.654 131.363Z" stroke="#231F20" stroke-width="0.305639"/>
<path d="M370.896 130.326C372.404 130.412 373.657 129.245 373.719 127.758C373.825 126.273 372.665 125.002 371.167 124.915C369.678 124.842 368.393 125.986 368.315 127.48C368.224 128.966 369.398 130.249 370.896 130.326Z" fill="white"/>
<path d="M370.896 130.326C372.404 130.412 373.657 129.245 373.719 127.758C373.825 126.273 372.665 125.002 371.167 124.915C369.678 124.842 368.393 125.986 368.315 127.48C368.224 128.966 369.398 130.249 370.896 130.326Z" stroke="#231F20" stroke-width="0.305639"/>
<path d="M364.667 109.215C365.995 109.273 367.155 108.233 367.213 106.898C367.296 105.556 366.26 104.406 364.903 104.333C363.553 104.279 362.419 105.298 362.341 106.648C362.274 107.985 363.304 109.123 364.667 109.215Z" fill="white"/>
<path d="M397.121 110.053C398.474 110.116 399.605 109.1 399.686 107.742C399.759 106.392 398.715 105.242 397.372 105.182C396.028 105.12 394.878 106.137 394.8 107.484C394.743 108.834 395.764 109.984 397.121 110.053Z" fill="white"/>
<path d="M390.606 129.884C391.926 129.959 393.089 128.933 393.151 127.582C393.234 126.242 392.2 125.09 390.837 125.014C389.484 124.959 388.334 125.985 388.272 127.332C388.202 128.667 389.223 129.822 390.606 129.884Z" fill="white"/>
<path d="M370.906 128.987C372.245 129.055 373.4 128.022 373.467 126.685C373.545 125.335 372.501 124.185 371.157 124.108C369.814 124.043 368.663 125.081 368.605 126.42C368.522 127.756 369.562 128.92 370.906 128.987Z" fill="white"/>
<path d="M381.268 115.973C383.414 116.094 385.241 114.45 385.347 112.323C385.453 110.201 383.81 108.373 381.674 108.257C379.538 108.147 377.711 109.779 377.604 111.909C377.489 114.051 379.132 115.868 381.268 115.973Z" fill="white"/>
<path d="M432.402 89.9003C432.402 92.2273 439.075 94.1553 447.307 94.1553C455.543 94.1553 462.212 92.2273 462.212 89.9003" fill="white"/>
<path d="M432.402 89.9003C432.402 92.2273 439.075 94.1553 447.307 94.1553C455.543 94.1553 462.212 92.2273 462.212 89.9003" stroke="#231F20" stroke-width="0.319695"/>
<path d="M432.402 89.9004V84.8329L432.431 84.0799C432.431 74.6953 422.272 67.0198 422.272 67.0198C437.709 69.0844 436.201 82.0227 436.201 82.0227C436.201 70.7718 432.814 61.9484 432.814 61.9484C443.547 63.8261 442.6 80.3373 442.6 80.3373C441.663 66.4552 447.11 61.0159 447.11 61.0159C447.11 61.0159 452.566 66.4552 451.638 80.3373C451.638 80.3373 450.7 63.8261 461.436 61.9484C461.436 61.9484 458.037 70.7718 458.037 82.0227C458.037 82.0227 456.529 69.0844 471.972 67.0198C471.972 67.0198 461.227 74.7032 461.797 84.0799L462.213 84.8329V89.9004" fill="white"/>
<path d="M432.402 89.9004V84.8329L432.431 84.0799C432.431 74.6953 422.272 67.0198 422.272 67.0198C437.709 69.0844 436.201 82.0227 436.201 82.0227C436.201 70.7718 432.814 61.9484 432.814 61.9484C443.547 63.8261 442.6 80.3373 442.6 80.3373C441.663 66.4552 447.11 61.0159 447.11 61.0159C447.11 61.0159 452.566 66.4552 451.638 80.3373C451.638 80.3373 450.7 63.8261 461.436 61.9484C461.436 61.9484 458.037 70.7718 458.037 82.0227C458.037 82.0227 456.529 69.0844 471.972 67.0198C471.972 67.0198 461.227 74.7032 461.797 84.0799L462.213 84.8329V89.9004" stroke="#231F20" stroke-width="0.319695"/>
<path d="M432.402 89.6191V84.5556C432.402 82.1976 439.075 80.2967 447.307 80.2967C455.543 80.2967 462.212 82.1976 462.212 84.5556V89.6191" stroke="#231F20" stroke-width="0.319695"/>
<path d="M447.307 94.1553C455.543 94.1553 462.212 92.2273 462.212 89.9003C462.212 87.5488 455.543 85.6533 447.307 85.6533C439.075 85.6533 432.402 87.5488 432.402 89.9003C432.402 92.2273 439.075 94.1553 447.307 94.1553Z" stroke="#231F20" stroke-width="0.319695"/>
<path d="M447.023 93.1289C452.15 93.1289 458.704 92.1176 458.704 90.6595C458.704 89.1881 452.15 87.8148 447.023 87.8148C441.885 87.8148 435.543 89.1881 435.543 90.6595C435.543 92.1176 441.885 93.1289 447.023 93.1289Z" stroke="#231F20" stroke-width="0.319695"/>
<path d="M447.504 84.3701C448.616 84.3701 449.492 83.7133 449.492 82.9046C449.492 82.1053 448.616 81.454 447.504 81.454C446.399 81.454 445.509 82.1053 445.509 82.9046C445.509 83.7133 446.399 84.3701 447.504 84.3701Z" stroke="#231F20" stroke-width="0.150199"/>
<path d="M455.021 85.0723C455.998 85.0723 456.765 84.481 456.765 83.7705C456.765 83.021 455.998 82.4298 455.021 82.4298C454.064 82.4298 453.281 83.021 453.281 83.7705C453.281 84.481 454.064 85.0723 455.021 85.0723Z" stroke="#231F20" stroke-width="0.150199"/>
<path d="M460.782 87.082C461.381 87.082 461.832 86.439 461.832 85.6338C461.832 84.8074 461.381 84.1678 460.782 84.1678C460.173 84.1678 459.699 84.8074 459.699 85.6338C459.699 86.439 460.173 87.082 460.782 87.082Z" stroke="#231F20" stroke-width="0.150199"/>
<path d="M440.029 84.8984C439.075 84.8984 438.308 84.2915 438.308 83.5829C438.308 82.826 439.075 82.2402 440.029 82.2402C440.989 82.2402 441.772 82.826 441.772 83.5829C441.772 84.2915 440.989 84.8984 440.029 84.8984Z" stroke="#231F20" stroke-width="0.150199"/>
<path d="M434.277 86.9111C433.697 86.9111 433.224 86.2464 433.224 85.4432C433.224 84.6365 433.697 83.993 434.277 83.993C434.877 83.993 435.35 84.6365 435.35 85.4432C435.35 86.2464 434.877 86.9111 434.277 86.9111Z" stroke="#231F20" stroke-width="0.150199"/>
<path d="M376.116 37.518L424.795 37.4198C424.795 37.4198 426.85 37.2231 427.144 36.6437C427.434 36.056 428.516 34.3996 428.516 34.3996C428.516 34.3996 429.135 32.5811 429.991 35.6669L430.572 38.1901C430.572 38.1901 431.053 40.7384 431.745 36.4489C432.421 32.1556 432.814 30.3987 432.814 30.3987C432.814 30.3987 434.277 27.4751 434.374 30.6995V44.6313C434.374 44.6313 434.47 48.2314 435.143 48.2314C435.843 48.2314 436.82 48.9129 436.82 46.0968V23.2932C436.82 23.2932 436.439 20.7449 438.308 20.5619C438.308 20.5619 439.468 20.5619 439.468 22.7966C439.468 25.0441 439.468 49.9977 439.468 49.9977C439.468 49.9977 439.259 51.442 441.227 51.442C441.227 51.442 441.904 51.6461 442.12 49.6027L442 19.5777C442 19.5777 442.793 15.8815 444.959 19.0984V51.8448C444.959 51.8448 444.756 54.4854 446.524 54.4854" stroke="white" stroke-width="0.395449"/>
<path d="M518.017 37.518L468.215 37.4198C468.215 37.4198 466.17 37.2231 465.886 36.6437C465.586 36.056 464.513 34.3996 464.513 34.3996C464.513 34.3996 463.895 32.5811 463.05 35.6669L462.464 38.1901C462.464 38.1901 461.961 40.7384 461.271 36.4489C460.598 32.1556 460.206 30.3987 460.206 30.3987C460.206 30.3987 458.752 27.4751 458.636 30.6995V44.6313C458.636 44.6313 458.539 48.2314 457.863 48.2314C457.163 48.2314 456.216 48.9129 456.216 46.0968V23.2932C456.216 23.2932 456.581 20.7449 454.731 20.5619C454.731 20.5619 453.552 20.5619 453.552 22.7966C453.552 25.0441 453.552 49.9977 453.552 49.9977C453.552 49.9977 453.764 51.442 451.792 51.442C451.792 51.442 451.087 51.6461 450.903 49.6027L451.013 19.5777C451.013 19.5777 450.23 15.8815 448.1 19.0984V51.8448C448.1 51.8448 448.268 54.4854 446.524 54.4854" stroke="white" stroke-width="0.395449"/>
<path d="M405.24 8.82882L493.598 8.99254C493.598 8.99254 509.272 7.07786 515.552 26.6577L515.765 27.528L541.738 108.199C541.738 108.199 548.038 127.582 535.265 136.666L534.691 137.188L461.797 189.972C461.797 189.972 447.524 200.967 430.585 188.591L429.666 188.028L363.096 139.432C363.096 139.432 346.334 127.757 351.873 110.932L352.211 110.325L379.605 25.4575C379.605 25.4575 382.486 8.80959 403.825 8.80959L405.24 8.82882Z" stroke="#231F20" stroke-width="0.678576"/>
<path d="M368.242 59.1406H525.678" stroke="#231F20" stroke-width="0.452384"/>
<path d="M384.487 55.8545L387.532 53.1006" stroke="#231F20" stroke-width="0.113751"/>
<path d="M414.632 53.1006L417.681 55.8545" stroke="#231F20" stroke-width="0.113751"/>
<path d="M387.489 24.6031C387.489 24.6031 386.404 25.9414 385.144 26.3556L384.487 26.4828V55.8545L399.736 50.895C399.736 50.895 400.703 52.6247 402.733 51.0488L402.911 51.0468L417.681 55.8545V26.4828L417.41 26.4325C415.908 25.9532 414.632 24.291 414.632 24.291" fill="white"/>
<path d="M387.489 24.6031C387.489 24.6031 386.404 25.9414 385.144 26.3556L384.487 26.4828V55.8545L399.736 50.895C399.736 50.895 400.703 52.6247 402.733 51.0488L402.911 51.0468L417.681 55.8545V26.4828L417.41 26.4325C415.908 25.9532 414.632 24.291 414.632 24.291" stroke="#231F20" stroke-width="0.301709"/>
<path d="M388.691 24.2711C388.691 24.2711 390.692 25.1242 393.637 22.8032C396.579 20.4975 401.006 22.5912 401.049 24.4388L401.055 49.0087C401.055 49.0087 397.516 45.3298 392.287 50.3223C392.287 50.3223 390.064 52.8879 387.532 53.167V24.1321L388.691 24.2711Z" fill="white"/>
<path d="M388.691 24.2711C388.691 24.2711 390.692 25.1242 393.637 22.8032C396.579 20.4975 401.006 22.5912 401.049 24.4388L401.055 49.0087C401.055 49.0087 397.516 45.3298 392.287 50.3223C392.287 50.3223 390.064 52.8879 387.532 53.167V24.1321L388.691 24.2711Z" stroke="#231F20" stroke-width="0.22786"/>
<path d="M413.476 24.2708C413.476 24.2708 411.465 25.1239 408.511 22.8029C405.549 20.4972 401.132 22.5909 401.103 24.4385V49.0084C401.103 49.0084 404.641 45.3294 409.87 50.322C409.87 50.322 412.103 52.8876 414.632 53.0996V24.0647L413.476 24.2708Z" fill="white"/>
<path d="M413.476 24.2708C413.476 24.2708 411.465 25.1239 408.511 22.8029C405.549 20.4972 401.132 22.5909 401.103 24.4385V49.0084C401.103 49.0084 404.641 45.3294 409.87 50.322C409.87 50.322 412.103 52.8876 414.632 53.0996V24.0647L413.476 24.2708Z" stroke="#231F20" stroke-width="0.22786"/>
<path d="M384.487 26.4828C384.487 26.4828 386.793 26.4981 387.532 24.1327V53.1006L384.487 55.8545V26.4828Z" fill="#ED1248"/>
<path d="M384.487 26.4828C384.487 26.4828 386.793 26.4981 387.532 24.1327V53.1006L384.487 55.8545V26.4828Z" fill="white" stroke="#231F20" stroke-width="0.150795"/>
<path d="M417.681 26.41C417.681 26.41 415.361 26.4312 414.632 24.0658V53.0252L417.681 55.793V26.41Z" fill="#B0B0B0"/>
<path d="M417.681 26.41C417.681 26.41 415.361 26.4312 414.632 24.0658V53.0252L417.681 55.793V26.41Z" fill="white" stroke="#231F20" stroke-width="0.150795"/>
<path d="M399.566 50.5586C399.566 50.5586 399.982 49.4994 400.822 49.1602Z" fill="white"/>
<path d="M399.566 50.5586C399.566 50.5586 399.982 49.4994 400.822 49.1602" stroke="#231F20" stroke-width="0.11387"/>
<path d="M402.804 50.7764C402.804 50.7764 402.301 49.5471 401.383 49.1792Z" fill="white"/>
<path d="M402.804 50.7764C402.804 50.7764 402.301 49.5471 401.383 49.1792" stroke="#231F20" stroke-width="0.11387"/>
<path d="M440.899 156.58C441.807 155.785 445.509 152.993 441.614 151.083C433.842 147.286 440.077 142.481 443.257 141.799C446.437 141.126 446.534 139.118 446.534 139.118C446.534 139.118 446.437 141.126 449.511 142.124C452.566 143.141 458.288 148.54 450.159 151.535C446.079 153.018 450.023 157.414 451.087 157.971C452.15 158.539 456.393 160.398 456.838 156.098C457.782 147.514 464.416 151.719 466.17 154.457C467.9 157.177 469.82 156.595 469.82 156.595C469.82 156.595 467.9 157.177 468.012 160.423C468.09 163.641 464.881 171.527 459.274 164.932C456.49 161.63 454.383 165.61 454.199 166.796C454.019 167.987 453.374 173.262 457.602 172.23C466.011 170.173 464.329 177.833 462.338 180.389C460.337 182.953 461.545 184.532 461.545 184.532C461.545 184.532 460.337 182.953 457.341 184.14C454.325 185.345 446.462 184.858 450.778 177.363C452.914 173.609 447.926 173.241 446.737 173.091L446.031 173.041C444.852 173.303 440.947 174.01 443.373 177.602C448.187 184.771 440.328 184.973 437.245 183.972C434.152 182.999 432.044 184.105 432.044 184.105C432.044 184.105 433.131 182.448 432 180.589C430.295 177.826 427.598 170.641 436.152 172.12C440.434 172.848 440.077 167.376 439.826 166.186L439.604 165.186C438.946 164.155 436.539 159.627 433.987 163.119C428.86 170.108 425.211 163.139 425.075 159.899C424.959 156.661 422.997 156.233 422.997 156.233C422.997 156.233 424.959 156.661 426.486 153.83C428.033 150.979 434.36 146.327 435.911 154.831C436.671 159.086 439.58 157.653 440.599 157L440.899 156.58Z" fill="white"/>
<path d="M440.899 156.58C441.807 155.785 445.509 152.993 441.614 151.083C433.842 147.286 440.077 142.481 443.257 141.799C446.437 141.126 446.534 139.118 446.534 139.118C446.534 139.118 446.437 141.126 449.511 142.124C452.566 143.141 458.288 148.54 450.159 151.535C446.079 153.018 450.023 157.414 451.087 157.971C452.15 158.539 456.393 160.398 456.838 156.098C457.782 147.514 464.416 151.719 466.17 154.457C467.9 157.177 469.82 156.595 469.82 156.595C469.82 156.595 467.9 157.177 468.012 160.423C468.09 163.641 464.881 171.527 459.274 164.932C456.49 161.63 454.383 165.61 454.199 166.796C454.019 167.987 453.374 173.262 457.602 172.23C466.011 170.173 464.329 177.833 462.338 180.389C460.337 182.953 461.545 184.532 461.545 184.532C461.545 184.532 460.337 182.953 457.341 184.14C454.325 185.345 446.462 184.858 450.778 177.363C452.914 173.609 447.926 173.241 446.737 173.091L446.031 173.041C444.852 173.303 440.947 174.01 443.373 177.602C448.187 184.771 440.328 184.973 437.245 183.972C434.152 182.999 432.044 184.105 432.044 184.105C432.044 184.105 433.131 182.448 432 180.589C430.295 177.826 427.598 170.641 436.152 172.12C440.434 172.848 440.077 167.376 439.826 166.186L439.604 165.186C438.946 164.155 436.539 159.627 433.987 163.119C428.86 170.108 425.211 163.139 425.075 159.899C424.959 156.661 422.997 156.233 422.997 156.233C422.997 156.233 424.959 156.661 426.486 153.83C428.033 150.979 434.36 146.327 435.911 154.831C436.671 159.086 439.58 157.653 440.599 157L440.899 156.58Z" stroke="#231F20" stroke-width="0.305757"/>
<path d="M446.973 168.28C449.212 168.411 451.116 166.527 451.241 164.083C451.386 161.652 449.675 159.595 447.452 159.473C445.239 159.367 443.325 161.238 443.199 163.661C443.068 166.1 444.765 168.156 446.973 168.28Z" fill="white"/>
<path d="M446.973 168.28C449.212 168.411 451.116 166.527 451.241 164.083C451.386 161.652 449.675 159.595 447.452 159.473C445.239 159.367 443.325 161.238 443.199 163.661C443.068 166.1 444.765 168.156 446.973 168.28Z" stroke="#231F20" stroke-width="0.305639"/>
<path d="M446.215 149.137C447.723 149.212 448.999 148.068 449.076 146.576C449.144 145.084 447.994 143.802 446.511 143.734C444.997 143.65 443.731 144.797 443.644 146.287C443.566 147.787 444.726 149.058 446.215 149.137Z" fill="white"/>
<path d="M446.215 149.137C447.723 149.212 448.999 148.068 449.076 146.576C449.144 145.084 447.994 143.802 446.511 143.734C444.997 143.65 443.731 144.797 443.644 146.287C443.566 147.787 444.726 149.058 446.215 149.137Z" stroke="#231F20" stroke-width="0.305639"/>
<path d="M430.453 161.38C431.938 161.465 433.249 160.307 433.32 158.825C433.397 157.322 432.247 156.064 430.739 155.983C429.241 155.907 427.959 157.043 427.891 158.54C427.801 160.022 428.957 161.303 430.453 161.38Z" fill="white"/>
<path d="M430.453 161.38C431.938 161.465 433.249 160.307 433.32 158.825C433.397 157.322 432.247 156.064 430.739 155.983C429.241 155.907 427.959 157.043 427.891 158.54C427.801 160.022 428.957 161.303 430.453 161.38Z" stroke="#231F20" stroke-width="0.305639"/>
<path d="M462.932 162.219C464.416 162.304 465.708 161.15 465.779 159.663C465.857 158.161 464.706 156.913 463.208 156.818C461.7 156.73 460.424 157.88 460.337 159.385C460.26 160.877 461.42 162.142 462.932 162.219Z" fill="white"/>
<path d="M462.932 162.219C464.416 162.304 465.708 161.15 465.779 159.663C465.857 158.161 464.706 156.913 463.208 156.818C461.7 156.73 460.424 157.88 460.337 159.385C460.26 160.877 461.42 162.142 462.932 162.219Z" stroke="#231F20" stroke-width="0.305639"/>
<path d="M456.461 181.777C457.969 181.86 459.255 180.706 459.342 179.21C459.419 177.73 458.249 176.453 456.765 176.366C455.263 176.287 453.977 177.439 453.9 178.945C453.813 180.426 454.967 181.702 456.461 181.777Z" fill="white"/>
<path d="M456.461 181.777C457.969 181.86 459.255 180.706 459.342 179.21C459.419 177.73 458.249 176.453 456.765 176.366C455.263 176.287 453.977 177.439 453.9 178.945C453.813 180.426 454.967 181.702 456.461 181.777Z" stroke="#231F20" stroke-width="0.305639"/>
<path d="M436.694 180.738C438.221 180.81 439.493 179.671 439.58 178.172C439.652 176.683 438.502 175.414 437.013 175.331C435.505 175.25 434.22 176.42 434.142 177.897C434.059 179.394 435.215 180.649 436.694 180.738Z" fill="white"/>
<path d="M436.694 180.738C438.221 180.81 439.493 179.671 439.58 178.172C439.652 176.683 438.502 175.414 437.013 175.331C435.505 175.25 434.22 176.42 434.142 177.897C434.059 179.394 435.215 180.649 436.694 180.738Z" stroke="#231F20" stroke-width="0.305639"/>
<path d="M430.478 159.624C431.832 159.691 432.982 158.659 433.046 157.322C433.131 155.983 432.083 154.822 430.736 154.76C429.392 154.685 428.236 155.704 428.168 157.06C428.1 158.397 429.125 159.552 430.478 159.624Z" fill="white"/>
<path d="M462.947 160.463C464.291 160.521 465.441 159.502 465.518 158.15C465.576 156.817 464.533 155.658 463.195 155.596C461.855 155.519 460.695 156.553 460.637 157.898C460.559 159.248 461.594 160.389 462.947 160.463Z" fill="white"/>
<path d="M456.417 180.304C457.762 180.369 458.897 179.333 458.984 177.991C459.056 176.662 458.027 175.506 456.664 175.423C455.321 175.369 454.157 176.378 454.103 177.742C454.019 179.094 455.05 180.227 456.417 180.304Z" fill="white"/>
<path d="M436.738 179.395C438.076 179.479 439.236 178.439 439.304 177.087C439.371 175.748 438.337 174.594 436.984 174.525C435.64 174.448 434.49 175.506 434.428 176.827C434.355 178.173 435.376 179.327 436.738 179.395Z" fill="white"/>
<path d="M447.094 166.377C449.221 166.513 451.068 164.876 451.174 162.738C451.28 160.606 449.631 158.795 447.504 158.682C445.374 158.576 443.547 160.196 443.431 162.343C443.325 164.462 444.964 166.283 447.094 166.377Z" fill="white"/>
<path d="M508.95 106.622C509.866 105.807 513.588 103.024 509.693 101.117C501.908 97.3131 508.139 92.5188 511.311 91.8274C514.488 91.1317 514.582 89.1558 514.582 89.1558C514.582 89.1558 514.488 91.1317 517.567 92.1603C520.655 93.1642 526.356 98.5764 518.22 101.564C514.157 103.063 518.096 107.444 519.146 107.997C520.224 108.571 524.446 110.432 524.911 106.138C525.842 97.5305 532.488 101.747 534.235 104.478C535.958 107.219 537.868 106.628 537.868 106.628C537.868 106.628 535.958 107.219 536.047 110.459C536.151 113.689 532.953 121.573 527.361 114.947C524.545 111.657 522.442 115.633 522.254 116.84C522.1 118.021 521.457 123.305 525.654 122.274C534.087 120.223 532.389 127.866 530.395 130.414C528.425 132.98 529.608 134.568 529.608 134.568C529.608 134.568 528.425 132.98 525.396 134.181C522.372 135.383 514.518 134.886 518.829 127.392C520.992 123.632 516.003 123.277 514.785 123.127L514.102 123.073C512.9 123.325 509.015 124.044 511.435 127.631C516.25 134.81 508.376 135.002 505.313 134.018C502.2 133.033 500.121 134.141 500.121 134.141C500.121 134.141 501.19 132.498 500.047 130.62C498.374 127.856 495.657 120.677 504.214 122.151C508.485 122.884 508.149 117.405 507.906 116.238L507.659 115.218C507.035 114.192 504.59 109.671 502.041 113.157C496.924 120.128 493.267 113.18 493.148 109.939C493.029 106.709 491.072 106.262 491.072 106.262C491.072 106.262 493.029 106.709 494.558 103.866C496.103 101.013 502.432 96.3496 503.981 104.855C504.744 109.114 507.654 107.668 508.658 107.036L508.95 106.622Z" fill="white"/>
<path d="M508.95 106.622C509.866 105.807 513.588 103.024 509.693 101.117C501.908 97.3131 508.139 92.5188 511.311 91.8274C514.488 91.1317 514.582 89.1558 514.582 89.1558C514.582 89.1558 514.488 91.1317 517.567 92.1603C520.655 93.1642 526.356 98.5764 518.22 101.564C514.157 103.063 518.096 107.444 519.146 107.997C520.224 108.571 524.446 110.432 524.911 106.138C525.842 97.5305 532.488 101.747 534.235 104.478C535.958 107.219 537.868 106.628 537.868 106.628C537.868 106.628 535.958 107.219 536.047 110.459C536.151 113.689 532.953 121.573 527.361 114.947C524.545 111.657 522.442 115.633 522.254 116.84C522.1 118.021 521.457 123.305 525.654 122.274C534.087 120.223 532.389 127.866 530.395 130.414C528.425 132.98 529.608 134.568 529.608 134.568C529.608 134.568 528.425 132.98 525.396 134.181C522.372 135.383 514.518 134.886 518.829 127.392C520.992 123.632 516.003 123.277 514.785 123.127L514.102 123.073C512.9 123.325 509.015 124.044 511.435 127.631C516.25 134.81 508.376 135.002 505.313 134.018C502.2 133.033 500.121 134.141 500.121 134.141C500.121 134.141 501.19 132.498 500.047 130.62C498.374 127.856 495.657 120.677 504.214 122.151C508.485 122.884 508.149 117.405 507.906 116.238L507.659 115.218C507.035 114.192 504.59 109.671 502.041 113.157C496.924 120.128 493.267 113.18 493.148 109.939C493.029 106.709 491.072 106.262 491.072 106.262C491.072 106.262 493.029 106.709 494.558 103.866C496.103 101.013 502.432 96.3496 503.981 104.855C504.744 109.114 507.654 107.668 508.658 107.036L508.95 106.622Z" stroke="#231F20" stroke-width="0.305757"/>
<path d="M515.058 118.319C517.265 118.435 519.185 116.544 519.309 114.12C519.437 111.674 517.735 109.615 515.523 109.499C513.296 109.38 511.405 111.26 511.262 113.704C511.153 116.141 512.83 118.198 515.058 118.319Z" fill="white"/>
<path d="M515.058 118.319C517.265 118.435 519.185 116.544 519.309 114.12C519.437 111.674 517.735 109.615 515.523 109.499C513.296 109.38 511.405 111.26 511.262 113.704C511.153 116.141 512.83 118.198 515.058 118.319Z" stroke="#231F20" stroke-width="0.305639"/>
<path d="M514.29 99.1729C515.785 99.2405 517.037 98.0946 517.136 96.6054C517.22 95.099 516.062 93.8318 514.553 93.7568C513.063 93.6814 511.801 94.8278 511.712 96.3145C511.628 97.7957 512.766 99.0901 514.29 99.1729Z" fill="white"/>
<path d="M514.29 99.1729C515.785 99.2405 517.037 98.0946 517.136 96.6054C517.22 95.099 516.062 93.8318 514.553 93.7568C513.063 93.6814 511.801 94.8278 511.712 96.3145C511.628 97.7957 512.766 99.0901 514.29 99.1729Z" stroke="#231F20" stroke-width="0.305639"/>
<path d="M498.518 111.408C500.027 111.483 501.304 110.342 501.378 108.853C501.448 107.361 500.299 106.076 498.81 106.018C497.32 105.922 496.033 107.079 495.949 108.57C495.87 110.053 497.023 111.336 498.518 111.408Z" fill="white"/>
<path d="M498.518 111.408C500.027 111.483 501.304 110.342 501.378 108.853C501.448 107.361 500.299 106.076 498.81 106.018C497.32 105.922 496.033 107.079 495.949 108.57C495.87 110.053 497.023 111.336 498.518 111.408Z" stroke="#231F20" stroke-width="0.305639"/>
<path d="M530.989 112.264C532.488 112.329 533.75 111.191 533.849 109.69C533.923 108.2 532.77 106.929 531.266 106.848C529.766 106.772 528.494 107.918 528.425 109.405C528.341 110.906 529.479 112.179 530.989 112.264Z" fill="white"/>
<path d="M530.989 112.264C532.488 112.329 533.75 111.191 533.849 109.69C533.923 108.2 532.77 106.929 531.266 106.848C529.766 106.772 528.494 107.918 528.425 109.405C528.341 110.906 529.479 112.179 530.989 112.264Z" stroke="#231F20" stroke-width="0.305639"/>
<path d="M524.54 131.811C526.045 131.893 527.326 130.739 527.406 129.238C527.48 127.738 526.327 126.482 524.827 126.391C523.323 126.332 522.056 127.462 521.986 128.959C521.892 130.455 523.041 131.723 524.54 131.811Z" fill="white"/>
<path d="M524.54 131.811C526.045 131.893 527.326 130.739 527.406 129.238C527.48 127.738 526.327 126.482 524.827 126.391C523.323 126.332 522.056 127.462 521.986 128.959C521.892 130.455 523.041 131.723 524.54 131.811Z" stroke="#231F20" stroke-width="0.305639"/>
<path d="M504.793 130.769C506.263 130.85 507.565 129.7 507.624 128.204C507.708 126.713 506.57 125.447 505.055 125.369C503.551 125.282 502.289 126.42 502.2 127.934C502.116 129.427 503.289 130.692 504.793 130.769Z" fill="white"/>
<path d="M504.793 130.769C506.263 130.85 507.565 129.7 507.624 128.204C507.708 126.713 506.57 125.447 505.055 125.369C503.551 125.282 502.289 126.42 502.2 127.934C502.116 129.427 503.289 130.692 504.793 130.769Z" stroke="#231F20" stroke-width="0.305639"/>
<path d="M498.552 109.65C499.884 109.724 501.042 108.686 501.121 107.342C501.19 106.002 500.151 104.855 498.79 104.776C497.449 104.707 496.291 105.739 496.226 107.08C496.172 108.438 497.206 109.586 498.552 109.65Z" fill="white"/>
<path d="M530.999 110.493C532.36 110.564 533.513 109.534 533.572 108.199C533.646 106.847 532.607 105.702 531.266 105.615C529.905 105.556 528.776 106.594 528.687 107.933C528.633 109.273 529.652 110.431 530.999 110.493Z" fill="white"/>
<path d="M524.49 130.325C525.817 130.412 526.985 129.367 527.064 128.037C527.123 126.686 526.079 125.539 524.728 125.463C523.382 125.401 522.229 126.421 522.174 127.771C522.1 129.123 523.12 130.271 524.49 130.325Z" fill="white"/>
<path d="M504.803 129.428C506.144 129.51 507.297 128.476 507.371 127.116C507.451 125.776 506.411 124.636 505.045 124.56C503.709 124.485 502.556 125.531 502.482 126.862C502.413 128.205 503.447 129.355 504.803 129.428Z" fill="white"/>
<path d="M515.166 116.429C517.314 116.528 519.116 114.888 519.23 112.752C519.344 110.626 517.705 108.835 515.582 108.713C513.434 108.59 511.598 110.227 511.494 112.369C511.395 114.484 513.028 116.312 515.166 116.429Z" fill="white"/>
<path d="M446.235 147.965C447.574 148.04 448.728 147.01 448.806 145.65C448.864 144.334 447.826 143.172 446.476 143.107C445.132 143.034 443.969 144.066 443.905 145.419C443.853 146.767 444.872 147.894 446.235 147.965Z" fill="white"/>
<path d="M514.29 98.1406C515.646 98.2161 516.79 97.1855 516.854 95.8527C516.933 94.4868 515.899 93.3488 514.548 93.2925C513.192 93.2117 512.053 94.2363 511.954 95.5869C511.905 96.9311 512.929 98.0948 514.29 98.1406Z" fill="white"/>
<path d="M380.524 97.4014C381.896 97.4769 383.027 96.4325 383.101 95.0923C383.172 93.7264 382.148 92.5957 380.794 92.5302C379.451 92.4592 378.297 93.4917 378.214 94.8285C378.146 96.1727 379.176 97.3265 380.524 97.4014Z" fill="white"/>
<path d="M475.243 55.2607L478.278 52.5048" stroke="#231F20" stroke-width="0.113751"/>
<path d="M505.367 52.5048L508.426 55.2607" stroke="#231F20" stroke-width="0.113751"/>
<path d="M478.229 24.0129C478.229 24.0129 477.137 25.3422 475.881 25.7559L475.243 25.8851V55.2607L490.476 50.2973C490.476 50.2973 491.44 52.0463 493.485 50.4703L493.678 50.4437L508.426 55.2607V25.8851L508.173 25.8314C506.659 25.3556 505.367 23.6854 505.367 23.6854" fill="white"/>
<path d="M478.229 24.0129C478.229 24.0129 477.137 25.3422 475.881 25.7559L475.243 25.8851V55.2607L490.476 50.2973C490.476 50.2973 491.44 52.0463 493.485 50.4703L493.678 50.4437L508.426 55.2607V25.8851L508.173 25.8314C506.659 25.3556 505.367 23.6854 505.367 23.6854" stroke="#231F20" stroke-width="0.301709"/>
<path d="M479.434 23.6665C479.434 23.6665 481.464 24.5141 484.387 22.2124C487.345 19.8988 491.772 21.9944 491.792 23.8455L491.802 48.4351C491.802 48.4351 488.276 44.731 483.033 49.7275C483.033 49.7275 480.797 52.2911 478.278 52.582V23.5358L479.434 23.6665Z" fill="white"/>
<path d="M479.434 23.6665C479.434 23.6665 481.464 24.5141 484.387 22.2124C487.345 19.8988 491.772 21.9944 491.792 23.8455L491.802 48.4351C491.802 48.4351 488.276 44.731 483.033 49.7275C483.033 49.7275 480.797 52.2911 478.278 52.582V23.5358L479.434 23.6665Z" stroke="#231F20" stroke-width="0.22786"/>
<path d="M504.214 23.6663C504.214 23.6663 502.229 24.5139 499.275 22.2121C496.325 19.8985 491.896 21.9942 491.876 23.8452V48.4349C491.876 48.4349 495.385 44.7308 500.611 49.7273C500.611 49.7273 502.868 52.2909 505.367 52.5049V23.468L504.214 23.6663Z" fill="white"/>
<path d="M504.214 23.6663C504.214 23.6663 502.229 24.5139 499.275 22.2121C496.325 19.8985 491.896 21.9942 491.876 23.8452V48.4349C491.876 48.4349 495.385 44.7308 500.611 49.7273C500.611 49.7273 502.868 52.2909 505.367 52.5049V23.468L504.214 23.6663Z" stroke="#231F20" stroke-width="0.22786"/>
<path d="M475.243 25.8851C475.243 25.8851 477.544 25.9044 478.278 23.5355V52.5048L475.243 55.2607V25.8851Z" fill="#ED1248"/>
<path d="M475.243 25.8851C475.243 25.8851 477.544 25.9044 478.278 23.5355V52.5048L475.243 55.2607V25.8851Z" fill="white" stroke="#231F20" stroke-width="0.150795"/>
<path d="M508.421 25.793C508.421 25.793 506.105 25.8315 505.367 23.4602V52.4414L508.421 55.1973V25.793Z" fill="#B0B0B0"/>
<path d="M508.421 25.793C508.421 25.793 506.105 25.8315 505.367 23.4602V52.4414L508.421 55.1973V25.793Z" fill="white" stroke="#231F20" stroke-width="0.150795"/>
<path d="M490.293 49.9639C490.293 49.9639 490.728 48.9101 491.589 48.5635Z" fill="white"/>
<path d="M490.293 49.9639C490.293 49.9639 490.728 48.9101 491.589 48.5635" stroke="#231F20" stroke-width="0.11387"/>
<path d="M493.564 50.1855C493.564 50.1855 493.064 48.9474 492.148 48.5638Z" fill="white"/>
<path d="M493.564 50.1855C493.564 50.1855 493.064 48.9474 492.148 48.5638" stroke="#231F20" stroke-width="0.11387"/>
<path d="M14.8512 153.857V181.601C14.8512 184.207 15.0967 185.727 15.5839 186.642C16.566 188.518 18.5649 189.548 21.3643 189.548C25.0974 189.548 27.4811 187.738 27.8387 184.639C27.9605 183.728 27.9605 183.123 27.9605 180.873V153.857H36.6002V182.271C36.6002 186.282 36.5538 187.066 35.9409 188.88C34.8429 192.226 30.7057 196.843 21.5576 196.843C15.0967 196.843 10.3448 194.894 7.96888 191.201C6.56922 188.998 6.14197 187.316 6.14197 183.248V153.857H14.8512Z" fill="black"/>
<path d="M50.1306 164.173C50.8749 165.452 51.3005 166.789 51.3005 168.07C52.5205 167.212 53.5509 166.482 54.8886 165.752C56.5298 164.905 58.6643 164.421 60.5029 164.421C63.9673 164.421 67.0214 166.244 67.9884 168.917C68.4096 170.053 68.5932 171.401 68.5932 173.339V196.051H60.5509V175.828C60.5509 172.319 59.9476 171.275 57.8175 171.275C56.1724 171.275 54.032 172.374 52.1528 174.081V196.051H43.9773V173.526C43.9773 170.853 43.6061 168.3 42.8889 166.244L50.1306 164.173Z" fill="black"/>
<path d="M85.5439 156.403C85.5439 159.201 83.2881 161.439 80.481 161.439C77.7357 161.439 75.4854 159.201 75.4854 156.403C75.4854 153.606 77.7956 151.37 80.6027 151.37C83.3519 151.37 85.5439 153.606 85.5439 156.403ZM84.5561 164.229V196.051H76.4054V165.513L84.5561 164.229Z" fill="black"/>
<path d="M95.8365 164.421L100.349 178.436C101.006 180.514 101.926 183.902 102.367 185.906C102.611 184.093 103.272 181.119 104.254 178.022L108.459 164.972H116.977L105.586 196.051H98.8193L87.4849 165.452L95.8365 164.421Z" fill="black"/>
<path d="M143.972 192.593C140.378 195.499 136.601 196.909 132.218 196.909C123.261 196.909 117.477 190.586 117.477 180.814C117.477 175.24 118.637 171.526 121.382 168.489C123.927 165.636 127.031 164.295 131.182 164.295C134.787 164.295 138.198 165.515 140.206 167.57C143.071 170.492 144.346 174.689 144.346 181.171C144.346 181.853 144.346 182.519 144.346 183.053H126.303V183.295C126.303 188.095 128.678 190.836 132.885 190.836C135.696 190.836 138.312 189.792 140.811 187.739L143.972 192.593ZM135.87 177.099V176.733C135.87 174.446 135.628 173.231 134.909 172.081C134.099 170.854 132.947 170.25 131.304 170.25C128.197 170.25 126.426 172.686 126.426 176.983V177.099H135.87Z" fill="black"/>
<path d="M156.171 164.229C156.896 165.513 157.323 166.906 157.445 168.667C158.605 167.091 160.558 165.381 162.079 164.72C162.76 164.421 163.848 164.229 164.763 164.229C165.984 164.229 166.533 164.354 167.795 164.905L165.551 172.08C164.763 171.647 164.084 171.464 163.169 171.464C161.339 171.464 159.692 172.319 158.182 174.081V196.051H150.014V175.289C150.014 171.103 149.532 167.938 148.852 166.182L156.171 164.229Z" fill="black"/>
<path d="M190.726 172.489C187.608 170.905 185.359 170.248 183.045 170.248C180.656 170.248 179.084 171.464 179.084 173.288C179.084 174.863 180.114 175.715 182.972 176.433L186.747 177.414C190.592 178.382 191.882 179.538 192.968 180.938C194.142 182.389 194.677 184.145 194.677 186.232C194.677 192.653 189.311 197.025 181.326 197.025C177.497 197.025 173.292 195.804 168.727 193.441L171.629 187.495C174.141 188.997 178.473 191.01 181.995 191.01C184.327 191.01 186.146 189.492 186.146 187.495C186.146 185.361 184.628 184.272 181.326 183.664L177.686 183.001C175.61 182.626 173.044 181.169 171.954 179.843C170.856 178.502 170.175 176.25 170.175 174.258C170.175 168.187 174.993 164.111 182.249 164.111C187.242 164.111 190.536 165.635 193.394 167.029L190.726 172.489Z" fill="black"/>
<path d="M209.416 156.403C209.416 159.201 207.172 161.439 204.369 161.439C201.629 161.439 199.369 159.201 199.369 156.403C199.369 153.606 201.681 151.37 204.498 151.37C207.228 151.37 209.416 153.606 209.416 156.403ZM208.444 164.229V196.051H200.29V165.513L208.444 164.229Z" fill="black"/>
<path d="M229.843 170.555H224.606V186.162C224.606 190.097 225.333 191.129 228.124 191.129C228.861 191.129 229.594 190.952 231.055 190.521L232.088 195.382C229.704 196.355 227.576 196.775 225.456 196.775C221.309 196.775 218.009 194.963 217.043 192.226C216.564 190.881 216.503 190.272 216.503 187.431V170.555H213.389V164.972H216.503C216.503 161.941 216.503 159.934 216.795 157.615L225.083 155.562C224.784 158.406 224.606 161.814 224.606 164.972H231.906L229.843 170.555Z" fill="black"/>
<path d="M242.449 164.472L247.868 182.625C248.418 184.527 249.516 189.061 249.516 189.061C249.516 189.061 250.129 185.615 250.496 184.093C250.745 183.051 251.227 181.239 251.706 179.786L256.402 164.972H264.999L253.668 196.538C251.536 202.548 249.949 205.15 247.699 206.797C245.618 208.322 242.927 209.295 240.141 209.657L237.327 204.302C239.094 203.821 241.17 203.099 242.386 202.251C243.292 201.575 244.039 200.727 244.694 199.691C245.487 198.41 245.744 197.869 246.467 196.051H244.404C243.424 193.137 241.784 188.271 241.479 187.316L234.098 165.452L242.449 164.472Z" fill="black"/>
<path d="M297.771 169.039C300.255 171.946 301.358 175.361 301.358 180.392C301.358 185.727 300.14 189.376 297.466 192.417C295.093 195.079 291.981 196.722 287.167 196.722C278.696 196.722 273.142 190.406 273.142 180.634C273.142 170.853 278.754 164.355 287.167 164.355C291.614 164.355 295.093 165.878 297.771 169.039ZM283.088 173.527C282.532 175.178 282.234 177.35 282.234 180.446C282.234 184.038 282.595 186.7 283.268 188.272C283.997 189.98 285.833 190.836 287.399 190.836C290.943 190.836 292.464 187.678 292.464 180.332C292.464 176.143 291.923 173.41 290.821 172.013C290.038 170.981 288.753 170.374 287.283 170.374C285.35 170.374 283.765 171.584 283.088 173.527Z" fill="black"/>
<path d="M318.727 157C316.663 157 315.316 158.293 315.316 160.531V164.972H323.241L321.173 170.554H315.379V196.051H307.389V170.554H304.592V164.972H307.573C307.389 163.68 307.263 162.11 307.263 160.727C307.263 154.583 310.931 151.054 317.336 151.054C320.007 151.054 322.207 151.603 324.701 153.009L322.091 158.046C320.303 157.19 319.694 157 318.727 157Z" fill="black"/>
<path d="M193.626 281.252C193.626 280.886 193.626 280.54 193.626 280.173L193.985 259.554C194.101 252.957 193.741 251.031 192.911 248.508C190.492 241.689 183.389 237.837 173.05 237.837C167.382 237.837 162.214 238.915 156.198 241.439C151.872 243.23 149.459 244.44 146.207 246.475L153.07 258C159.68 253.554 165.704 251.031 170.879 251.031C176.772 251.031 178.107 253.323 178.107 260.141V262.665C176.772 262.549 175.689 262.549 174.481 262.549C154.876 262.549 144.892 269.252 144.892 283.65C144.892 295.862 152.341 302.834 166.075 302.834C171.123 302.834 175.457 301.637 178.469 299.467C179.662 298.636 180.992 297.431 182.19 296.228C183.751 299.354 187.118 302.112 190.857 303.682L199.396 293.839C194.708 290.359 193.626 287.843 193.626 281.252ZM177.622 286.882C175.212 289.531 172.207 291.075 169.209 291.075C165.105 291.075 162.079 287.843 162.079 283.053C162.079 275.737 165.959 273.692 177.133 273.692H177.862L177.622 286.882ZM95.5425 290.825C90.0079 290.825 88.5692 288.793 88.5692 281.011V250.193H98.9203L103.003 239.169H88.5692C88.5692 235.069 88.7395 230.793 89.0122 226.729H72.9375C72.5678 230.479 72.5564 234.09 72.5564 239.169H66.422V250.193H72.5564V283.519C72.5564 289.159 72.6916 290.359 73.6448 293.002C75.5818 298.394 82.0622 301.987 90.2534 301.987C94.4641 301.987 98.6763 301.149 103.378 299.233L101.319 289.65C98.4367 290.472 96.9926 290.825 95.5425 290.825ZM139.708 237.717C137.914 237.717 135.748 238.087 134.42 238.694C131.406 240.004 127.557 243.355 125.274 246.475C125.028 242.989 124.189 240.244 122.738 237.717L108.3 241.564C109.621 245.031 110.595 251.262 110.595 259.554V300.548H126.718V257.14C129.728 253.679 132.982 251.994 136.579 251.994C138.401 251.994 139.708 252.35 141.287 253.188L145.724 239.04C143.216 237.962 142.118 237.717 139.708 237.717ZM41.8759 249.48L31.7612 246.722C24.7783 244.805 22.5087 242.623 22.5087 238.318C22.5087 232.684 27.3206 228.722 34.17 228.722C40.4221 228.722 46.0942 230.536 53.6648 235.082L61.6046 223.107C54.2775 217.814 43.9271 214.704 33.6906 214.704C15.9937 214.704 3.7273 225.265 3.7273 240.479C3.7273 245.165 4.92592 249.48 7.21097 253.188C10.2288 258.225 15.4002 261.471 23.7073 263.753L32.9675 266.266C40.4221 268.298 43.9271 271.66 43.9271 277.047C43.9271 284.478 38.8697 288.442 29.2344 288.442C20.8055 288.442 14.0778 285.798 6.25599 281.724L0 294.793C8.42315 299.589 19.0134 302.347 28.5114 302.347C49.3462 302.347 63.0606 291.204 63.0606 274.298C63.0606 261.956 55.5944 253.188 41.8759 249.48ZM229.961 290.825C224.42 290.825 222.982 288.793 222.982 281.011V250.193H233.334L237.423 239.169H222.982C222.982 235.069 223.146 230.793 223.431 226.729H207.342C206.988 230.479 206.98 234.09 206.98 239.169H200.856V250.193H206.98V283.519C206.98 289.159 207.104 290.359 208.059 293.002C209.981 298.394 216.488 301.987 224.666 301.987C228.878 301.987 233.103 301.149 237.79 299.233L235.745 289.65C232.851 290.472 231.405 290.825 229.961 290.825ZM379.064 290.969C377.74 290.969 376.421 290.359 375.816 289.274C374.85 287.599 374.737 286.164 374.737 275.609V227.778C374.737 225.59 374.714 220.177 374.689 218.527H357.953C358.171 221.93 358.249 229.169 358.249 234.004V279.817C358.249 288.556 358.475 290.472 359.677 293.599C361.626 298.751 367.155 301.987 374.018 301.987C377.498 301.987 380.872 301.39 383.646 300.311L380.872 290.719C380.021 290.969 379.663 290.969 379.064 290.969ZM497.34 218.527H481.342V232.935C481.342 236.527 481.58 240.726 481.815 242.036C478.809 239.637 475.33 238.568 470.873 238.568C455.234 238.568 444.524 251.757 444.524 270.937C444.524 289.997 454.389 302.112 470.033 302.112C475.562 302.112 480.265 300.436 484.232 296.96C484.474 298.636 484.716 299.589 485.189 300.548H499.616C498.552 298.16 497.34 293.242 497.34 278.132V218.527ZM481.58 284.6C480.008 286.53 476.644 288.556 473.629 288.556C465.209 288.556 462.451 284.253 462.451 271.053C462.451 257.397 465.576 251.397 472.797 251.397C475.687 251.397 478.558 252.716 481.58 255.351V284.6ZM278.594 237.484C272.33 237.484 265.341 240.128 261.125 244.077C261.125 243.355 261.376 240.845 261.376 238.915V218.527H244.967C244.986 219.465 245.013 228.62 245.013 229.573V300.548H261.376V256.549C264.987 253.323 270.166 250.915 274.138 250.915C278.704 250.915 280.395 253.188 280.395 259.313V300.548H296.153V257.624C296.153 251.757 295.799 249.711 294.591 246.234C292.662 240.845 286.4 237.484 278.594 237.484ZM561 274.89C561 273.807 561 272.498 561 271.178C561 258.35 558.476 250.068 552.824 244.322C548.84 240.244 542.114 237.837 535.017 237.837C526.831 237.837 520.69 240.479 515.646 246.119C510.222 252.119 507.946 259.423 507.946 270.456C507.946 289.765 519.358 302.234 537.061 302.234C545.717 302.234 553.18 299.467 560.277 293.724L554.022 284.141C549.092 288.205 543.911 290.247 538.393 290.247C530.068 290.247 525.391 284.844 525.391 275.377V274.89H561ZM525.614 262.9C525.614 254.382 529.118 249.596 535.24 249.596C538.496 249.596 540.788 250.79 542.357 253.188C543.797 255.471 544.267 257.869 544.267 262.414V263.146H525.614V262.9ZM344.407 284.729C340.448 288.205 337.074 289.765 333.333 289.765C330.569 289.765 327.798 288.442 326.112 286.285C324.073 283.65 322.994 278.85 322.994 270.812C322.994 256.424 326.248 250.193 333.449 250.193C336.465 250.193 339.955 251.994 343.206 254.999L351.032 244.44C348.377 242.157 347.301 241.327 345.006 240.128C341.656 238.318 337.199 237.351 333.092 237.351C327.916 237.351 321.908 239.169 317.799 241.93C310.589 246.841 305.166 256.193 305.166 270.33C305.166 290.247 315.054 301.987 332.019 301.987C337.915 301.987 342.725 300.662 347.063 298.16C349.234 296.834 350.307 295.997 352.714 293.599L345.377 283.887L344.407 284.729ZM427.56 239.169L418.289 268.418C417.333 271.303 416.362 274.89 415.892 276.937C415.167 279.942 413.949 286.77 413.949 286.77C413.949 286.77 411.804 277.775 410.721 274.058L400.007 238.193L383.515 240.128L398.077 283.29C398.677 285.21 401.934 294.793 403.848 300.548H407.956C406.503 304.141 406.023 305.223 404.447 307.75C403.133 309.782 401.683 311.454 399.875 312.774C397.468 314.455 393.38 315.899 389.9 316.857L395.429 327.412C400.958 326.69 406.265 324.764 410.353 321.778C414.81 318.548 417.932 313.371 422.156 301.519L444.533 239.169H427.56Z" fill="black"/>
<path d="M44.0605 341.242C40.0027 337.91 35.767 336.398 30.9822 336.398C27.2839 336.398 24.1327 337.477 21.981 339.538C17.7511 343.563 16.6627 350.305 16.6627 359.647C16.6627 368.54 18.2015 374.276 21.3546 377.415C23.6842 379.669 27.106 380.902 31.1697 380.902C33.971 380.902 36.2154 380.478 38.3111 379.39V365.204H28.7299L27.106 354.976H51.3486V384.773C44.9595 388.558 37.9128 390.344 30.5395 390.344C21.1516 390.344 14.2287 387.287 9.181 380.834C4.59923 375.008 2.50745 368.343 2.50745 359.021C2.50745 345.817 6.84761 336.481 15.5897 330.652C20.1754 327.611 24.8635 326.257 30.8217 326.257C38.3903 326.257 45.2224 328.674 50.7246 333.418L44.0605 341.242Z" fill="black"/>
<path d="M73.3493 335.143V370.945C73.3493 378.851 73.4285 379.93 74.1377 381.192C74.6039 382.001 75.5819 382.453 76.589 382.453C77.0206 382.453 77.3027 382.453 77.9193 382.28L79.9955 389.445C77.9193 390.254 75.4082 390.697 72.8099 390.697C67.6579 390.697 63.5185 388.265 62.0743 384.408C61.1637 382.097 60.9959 380.647 60.9959 374.1V339.799C60.9959 333.799 60.8217 330.11 60.3634 325.985L72.7129 323.195C73.1479 325.7 73.3493 328.675 73.3493 335.143Z" fill="black"/>
<path d="M92.7838 345.383C97.2959 343.477 101.172 342.668 105.387 342.668C113.145 342.668 118.457 345.567 120.269 350.658C120.899 352.545 121.181 353.984 121.075 358.915L120.806 374.353C120.806 374.632 120.806 374.902 120.806 375.168C120.806 380.103 121.616 382 125.129 384.61L118.745 391.958C115.94 390.793 113.419 388.732 112.25 386.382C111.343 387.287 110.365 388.198 109.466 388.809C107.211 390.436 103.972 391.326 100.192 391.326C89.9208 391.326 84.3239 386.126 84.3239 376.967C84.3239 366.192 91.8059 361.168 106.475 361.168C107.386 361.168 108.186 361.168 109.184 361.265V359.381C109.184 354.25 108.186 352.545 103.774 352.545C99.8982 352.545 95.4014 354.431 90.4429 357.74L85.3196 349.136C87.7476 347.628 89.5382 346.718 92.7838 345.383ZM108.47 369.518C100.099 369.518 97.2227 371.065 97.2227 376.52C97.2227 380.103 99.4419 382.526 102.524 382.526C104.779 382.526 107.024 381.358 108.824 379.39L109.009 369.518H108.47Z" fill="black"/>
<path d="M159.547 354.803C154.957 352.462 151.624 351.47 148.202 351.47C144.678 351.47 142.345 353.272 142.345 355.968C142.345 358.299 143.868 359.56 148.111 360.629L153.696 362.074C159.369 363.503 161.258 365.204 162.87 367.3C164.596 369.438 165.412 372.036 165.412 375.079C165.412 384.61 157.482 391.062 145.666 391.062C139.998 391.062 133.79 389.262 127.018 385.756L131.354 376.967C135.043 379.197 141.443 382.183 146.658 382.183C150.085 382.183 152.798 379.929 152.798 376.967C152.798 373.823 150.543 372.2 145.666 371.306L140.274 370.331C137.208 369.788 133.419 367.631 131.803 365.66C130.175 363.682 129.2 360.36 129.2 357.393C129.2 348.418 136.307 342.418 147.03 342.418C154.408 342.418 159.264 344.646 163.519 346.718L159.547 354.803Z" fill="black"/>
<path d="M218.472 348.696C215.856 351.123 213.326 352.096 210.018 352.096C208.832 352.096 207.56 351.913 206.851 351.833C208.641 353.984 209.548 356.334 209.548 359.381C209.548 367.299 202.346 373.03 192.523 373.03C191.975 373.03 191.629 373.03 190.716 372.937C187.654 374.353 185.945 375.445 185.945 376.697C185.945 377.333 186.66 377.772 187.936 377.772L194.411 377.864C201.438 377.968 205.136 379.033 208.376 382C211.091 384.513 212.351 387.653 212.351 391.775C212.351 395.646 211.185 398.603 208.641 401.29C204.605 405.605 197.651 407.223 190.459 407.223C183.884 407.223 177.114 406.144 172.973 402.282C170.457 399.955 169.178 397.245 169.178 394.125C169.178 391.602 169.827 390.344 170.257 389.444H181.446C180.992 390.523 180.897 391.143 180.897 392.407C180.897 396.093 183.96 398.054 189.547 398.054C192.605 398.054 195.215 397.717 197.119 396.542C198.927 395.45 200.075 393.749 200.075 391.862C200.075 387.74 196.404 386.478 191.629 386.382L186.494 386.305C181.079 386.218 177.562 385.756 175.395 384.86C173.234 384.066 171.878 382 171.878 378.85C171.878 375.903 172.778 373.101 180.366 371.136C173.692 369.437 170.457 365.204 170.457 358.37C170.457 348.953 178.107 342.851 189.922 342.851C192.523 342.851 194.855 343.207 198.2 344.026C200.719 344.646 202.346 345.017 203.872 345.017C207.206 345.017 210.64 343.563 213.431 341.069L218.472 348.696ZM182.616 358.481C182.616 363.129 185.488 365.04 189.728 365.04C194.509 365.04 197.119 362.69 197.119 358.481C197.119 354.167 194.411 351.663 189.821 351.663C185.226 351.663 182.616 354.167 182.616 358.481Z" fill="black"/>
<path d="M253.879 349.669C257.569 353.984 259.191 359.021 259.191 366.465C259.191 374.353 257.403 379.746 253.423 384.253C249.922 388.198 245.311 390.609 238.198 390.609C225.682 390.609 217.472 381.277 217.472 366.816C217.472 352.369 225.754 342.764 238.198 342.764C244.783 342.764 249.922 345.017 253.879 349.669ZM232.165 356.333C231.341 358.751 230.904 361.983 230.904 366.561C230.904 371.853 231.45 375.791 232.443 378.138C233.516 380.645 236.219 381.913 238.562 381.913C243.787 381.913 246.036 377.232 246.036 366.369C246.036 360.172 245.228 356.154 243.606 354.086C242.444 352.545 240.532 351.663 238.372 351.663C235.509 351.663 233.161 353.438 232.165 356.333Z" fill="black"/>
<path d="M272.069 343.13L275.848 360.812C277.027 366.105 278.468 375.079 278.468 375.079C278.468 375.079 279.637 366.902 281.816 359.117L286.123 343.678H297.485L301.183 358.828C303.256 367.366 304.592 375.079 304.592 375.079C304.866 373.101 305.852 365.935 307.109 360.093L310.637 343.678H323.077L309.921 389.627H298.825L294.694 373.823C293.702 370.134 292.615 365.743 292.081 362.69C291.72 360.532 291.62 359.91 291.349 358.125C291.102 360.093 290.989 360.715 290.27 364.042C289.365 368.016 287.396 375.903 286.307 380.189L283.974 389.627H272.697L260.085 344.468L272.069 343.13Z" fill="black"/>
</svg>
