<svg width="928" height="153" viewBox="0 0 928 153" fill="none" xmlns="http://www.w3.org/2000/svg">
<path d="M721.081 96.3288C720.019 106.486 712.182 114.618 702.068 116.056C700.571 116.274 699.056 116.382 697.541 116.379C693.615 116.629 689.729 115.48 686.571 113.139C682.105 109.592 681.283 103.134 684.715 98.5791C689.475 94.43 695.775 92.5058 702.039 93.2849C705.378 93.2849 708.59 93.4588 711.181 93.4588H721.495C721.415 94.3865 721.266 95.3576 721.081 96.3288ZM716.898 47.2856C712.265 45.0171 707.205 43.7525 702.05 43.5749C685.339 42.6654 671.053 55.4679 670.136 72.1732H684.306C685.161 67.6725 687.532 63.5959 691.027 60.6317C694.166 58.1712 698.059 56.8594 702.05 56.921C706.172 56.9572 710.174 58.3089 713.469 60.7803C719.327 65.3896 722.201 72.8146 720.983 80.1634H710.464C707.778 80.1634 704.946 80.1272 702.057 80.1634C696.185 80.0837 690.33 80.7867 684.643 82.2471C677.146 83.8705 670.991 89.1937 668.301 96.3723C663.545 110.918 676.798 130.084 699.099 129.732C700.096 129.732 701.082 129.681 702.057 129.591C716.485 128.906 729.002 119.397 733.526 105.685C735.879 98.2675 736.944 90.5055 736.676 82.729C737.47 68.0929 729.774 54.3011 716.898 47.2856Z" fill="black"/>
<path d="M803.55 92.451C803.383 94.3426 803.133 96.1979 802.814 98.017C802.506 99.7455 802.06 101.445 801.477 103.101C800.937 104.634 800.259 106.116 799.447 107.522C798.682 108.845 797.761 110.069 796.703 111.171C795.651 112.258 794.469 113.208 793.186 114.005C792.309 114.548 791.377 114.994 790.402 115.335C789.902 115.512 789.376 115.675 788.851 115.798C787.314 116.172 785.74 116.382 784.16 116.415H783.388C781.568 116.433 779.756 116.27 777.965 115.933C776.508 115.664 775.094 115.186 773.767 114.516C772.067 113.646 770.577 112.421 769.392 110.925C769.178 110.656 768.953 110.341 768.728 110.015C768.507 109.689 768.311 109.395 768.112 109.037C767.387 107.721 766.803 106.333 766.372 104.895C765.872 103.228 765.509 101.521 765.292 99.7926C765.085 98.2706 764.915 96.6327 764.792 94.8934L764.723 93.8497C764.599 91.7154 764.523 89.4469 764.516 87.077V86.7364C764.516 83.3192 764.647 80.1521 764.9 77.2387L765.063 75.5609C765.118 75.0246 765.187 74.4774 765.248 73.952V73.7563C765.466 72.0242 765.828 70.3174 766.329 68.6469C766.764 67.2119 767.344 65.824 768.069 64.5086C768.986 62.82 770.251 61.3451 771.781 60.1819C772.092 59.9464 772.397 59.7398 772.694 59.5622C772.999 59.3702 773.314 59.1781 773.666 59.0042H773.705C774.782 58.4606 775.92 58.0439 777.095 57.7685L777.892 57.591C779.658 57.2539 781.448 57.0873 783.246 57.1018H784.091C785.675 57.1235 787.252 57.2829 788.807 57.5765C789.583 57.7287 790.351 57.9243 791.105 58.1635C791.801 58.3882 792.479 58.6599 793.135 58.9752H793.179C795.724 60.2145 797.866 62.1423 799.367 64.5412C800.567 66.4545 801.466 68.5418 802.039 70.7269C802.158 71.169 802.281 71.6545 802.39 72.1655C802.503 72.6801 802.6 73.1693 802.695 73.6802V73.7599C803.021 75.6297 803.267 77.6445 803.431 79.8043C803.597 81.964 803.677 84.2687 803.677 86.711C803.797 88.6533 803.71 90.563 803.55 92.4437V92.451ZM813.378 59.0549C813.091 58.4788 812.761 57.9062 812.446 57.3409C812.131 56.7792 811.757 56.2031 811.424 55.7139V55.6776C809.637 53.0178 807.371 50.7095 804.743 48.8759C804.243 48.5281 803.71 48.1874 803.166 47.8613C802.622 47.5352 802.071 47.2417 801.495 46.9409C799.722 46.0531 797.855 45.3646 795.927 44.8935C795.561 44.7993 795.155 44.7087 794.738 44.6217C792.117 44.0927 789.445 43.8354 786.77 43.8462H786.69C785.849 43.8462 785.019 43.8462 784.218 43.897C782.362 43.9695 780.517 44.1506 778.686 44.4405C777.537 44.629 776.402 44.8718 775.282 45.1725C774.249 45.4515 773.234 45.7958 772.245 46.2053H772.183C770.331 46.9663 768.591 47.9773 767.01 49.2093C766.144 49.8906 765.335 50.6443 764.592 51.4596V15.6104H749.744V86.7292C749.69 92.8061 750.103 98.8758 750.98 104.888C751.357 107.402 751.977 109.877 752.836 112.273C753.623 114.44 754.671 116.501 755.961 118.415C758.542 122.151 762.149 125.068 766.35 126.807C768.779 127.826 771.327 128.547 773.934 128.953C777.069 129.445 780.241 129.681 783.417 129.656H784.185C789.945 129.764 795.637 128.398 800.723 125.691C802.959 124.423 805.036 122.894 806.911 121.136C808.719 119.426 810.3 117.494 811.616 115.382C812.928 113.284 814.048 111.073 814.962 108.772C815.89 106.428 816.615 104.011 817.122 101.543C817.554 99.481 817.898 97.4191 818.144 95.3572L818.279 94.165C818.54 91.7371 818.67 89.302 818.674 86.8596V86.7364C818.728 80.8551 818.155 74.9811 816.963 69.223C816.209 65.6936 815.005 62.2764 813.378 59.0549Z" fill="black"/>
<path d="M872.994 76.7756C873.94 70.2204 877.489 64.3282 882.836 60.4219C883.239 60.1573 883.63 59.9109 883.993 59.7044C884.359 59.5014 884.812 59.2405 885.232 59.0376C887.36 57.994 889.651 57.3163 892.007 57.0409C893.508 56.8453 895.02 56.7474 896.535 56.7547C900.457 56.5046 904.343 57.6534 907.504 59.9943C911.949 63.5527 912.771 69.9957 909.36 74.5543C904.601 78.6998 898.3 80.624 892.036 79.8413C888.694 79.8413 885.479 79.6746 882.894 79.6746H872.574C872.654 78.6926 872.802 77.7395 872.994 76.7503V76.7756ZM913.826 100.895C911.731 110.925 902.136 117.557 892.007 115.977C880.755 115.259 872.215 105.559 872.929 94.3107C872.958 93.8433 873.005 93.3758 873.07 92.9084H883.587C886.265 92.9084 889.104 92.941 891.993 92.9084C897.876 92.9917 903.742 92.2887 909.44 90.8175C916.933 89.1941 923.088 83.8745 925.774 76.6923C930.534 62.154 917.285 42.9882 894.984 43.3397C893.972 43.3397 892.99 43.4013 892.026 43.4774C867.651 45.3328 856.588 65.0348 857.378 90.3428C858.077 112.125 871.367 128.174 892.026 129.428C893.581 129.526 895.143 129.537 896.702 129.464C912.985 129.544 926.604 117.115 928 100.895H913.826Z" fill="black"/>
<path d="M846.173 124.195C846.01 123.477 845.894 122.749 845.821 122.013C845.673 120.466 845.6 118.817 845.6 117.067V15.6104H830.752V117.089C830.752 117.875 830.752 118.705 830.796 119.564C830.839 120.422 830.857 121.227 830.912 121.999C830.981 123.079 831.104 124.155 831.278 125.224L831.383 125.84L831.503 126.459L831.546 126.651L831.687 127.336H847.202L846.749 126.17C846.514 125.525 846.322 124.865 846.173 124.195Z" fill="black"/>
<path d="M513.902 92.8544C513.779 95.0105 513.587 97.0398 513.333 98.9132C513.039 101.301 512.452 103.642 511.589 105.885C511.426 106.295 511.256 106.675 511.085 107.03C510.919 107.382 510.73 107.77 510.549 108.085L510.513 108.154C509.856 109.331 509.037 110.408 508.08 111.353C507.123 112.277 506.036 113.057 504.85 113.665C503.774 114.213 502.635 114.626 501.461 114.901L500.671 115.075C498.902 115.412 497.107 115.575 495.309 115.564H495.23C493.413 115.582 491.597 115.423 489.81 115.086C488.349 114.814 486.936 114.336 485.609 113.665C484.427 113.057 483.343 112.277 482.386 111.353C481.426 110.408 480.606 109.331 479.954 108.154C479.225 106.838 478.642 105.45 478.21 104.012C477.71 102.341 477.351 100.634 477.126 98.9096C476.873 97.0543 476.684 95.0105 476.557 92.8472C476.434 90.6838 476.372 88.39 476.372 85.9331C476.372 83.4799 476.434 81.1643 476.564 79.0119C476.688 76.8558 476.887 74.8337 477.134 72.953C477.358 71.2245 477.724 69.5141 478.228 67.8436C478.66 66.405 479.243 65.0171 479.976 63.7053C480.624 62.5276 481.444 61.4514 482.404 60.5092C483.358 59.5852 484.445 58.8025 485.631 58.1973C486.479 57.7588 487.367 57.4073 488.284 57.1464C488.784 57.0015 489.285 56.8747 489.792 56.7732C491.561 56.4362 493.355 56.2731 495.157 56.284H495.244C497.734 56.2369 500.214 56.5666 502.606 57.2624C502.991 57.382 503.379 57.5269 503.756 57.6755C504.133 57.8277 504.488 57.9908 504.814 58.1611H504.858C506.043 58.7662 507.13 59.5453 508.087 60.473C509.048 61.4152 509.867 62.4914 510.52 63.6691C511.571 65.6114 512.34 67.695 512.8 69.8548C512.905 70.3295 513.007 70.8114 513.09 71.297C513.177 71.7789 513.257 72.279 513.333 72.8117V72.9095C513.587 74.7866 513.775 76.8086 513.902 78.9756C514.029 81.1462 514.098 83.4654 514.112 85.9331C514.112 88.39 514.043 90.6983 513.909 92.8544H513.902ZM527.971 72.5182C527.869 71.8333 527.753 71.1086 527.63 70.3802V70.2244C527.043 66.7239 526.002 63.314 524.538 60.078C524.251 59.4584 523.954 58.8387 523.657 58.2951C523.363 57.7516 523.041 57.1392 522.693 56.5811L522.664 56.5268C520.155 52.432 516.621 49.062 512.412 46.75C510.027 45.431 507.453 44.4816 504.781 43.9344C501.649 43.293 498.456 42.985 495.255 43.014C490.861 42.9306 486.486 43.5757 482.299 44.9201C481.589 45.1592 480.882 45.4455 480.197 45.7426C479.512 46.0362 478.855 46.3587 478.243 46.7138H478.192C476.053 47.8951 474.074 49.3374 472.291 51.0115C470.576 52.6277 469.086 54.4685 467.868 56.4833C466.099 59.4366 464.747 62.6182 463.844 65.9412C463.678 66.5644 463.507 67.2493 463.337 67.9849C463.177 68.6916 463.036 69.4018 462.909 70.1012V70.1809C462.55 72.2681 462.26 74.3989 462.046 76.5695L461.927 77.8088C461.709 80.3671 461.6 83.0016 461.593 85.6867V85.8534C461.593 89.575 461.814 93.2929 462.264 96.9854C462.354 97.7283 462.445 98.4494 462.554 99.1488C462.652 99.83 462.771 100.555 462.895 101.301V101.464C463.315 103.957 463.953 106.411 464.805 108.791C465.606 111.038 466.628 113.198 467.861 115.242C469.626 118.155 471.939 120.703 474.665 122.743C475.187 123.138 475.756 123.536 476.354 123.924C476.956 124.315 477.59 124.678 478.156 125.015C480.121 126.095 482.219 126.928 484.391 127.486C484.837 127.606 485.29 127.714 485.757 127.816C488.842 128.457 491.985 128.769 495.139 128.744H495.219C498.42 128.773 501.61 128.461 504.745 127.816C507.417 127.272 509.987 126.323 512.376 125.008C515.395 123.355 518.092 121.17 520.336 118.557C520.757 118.05 521.166 117.525 521.536 116.999C521.906 116.474 522.265 115.93 522.62 115.354C524.393 112.39 525.745 109.19 526.633 105.853C526.818 105.168 526.999 104.468 527.148 103.787C527.296 103.109 527.449 102.359 527.568 101.656V101.573C527.927 99.4677 528.217 97.3297 528.435 95.1663L528.551 93.9306C528.768 91.3832 528.88 88.7777 528.888 86.1433V85.9331C528.888 82.1717 528.667 78.4139 528.217 74.6779C528.166 73.9351 528.076 73.2139 527.971 72.5182Z" fill="black"/>
<path d="M442.21 45.4736H441.565L441.384 46.086L422.425 108.95L407.602 46.1368L407.443 45.4736H393.592L393.429 46.1368L378.606 108.95L359.651 46.086L359.47 45.4736H343.755L344.132 46.6079L370.49 125.96L370.685 126.55H385.53L385.704 125.916L400.588 72.0789L415.331 125.916L415.501 126.55H430.346L430.541 125.963L457.055 46.6115L457.432 45.4736H442.21Z" fill="black"/>
<path d="M578.503 45.2379L577.216 45.1944H574.74C570.408 45.1292 566.084 45.6039 561.868 46.6076C561.143 46.7924 560.443 46.9954 559.776 47.2237L559.356 47.3614C558.848 47.5389 558.333 47.731 557.826 47.9412H557.757C554.832 49.1044 552.113 50.7423 549.717 52.7897C549.296 53.1629 548.887 53.5506 548.477 53.9456C548.071 54.3442 547.73 54.7573 547.386 55.1849C546.179 56.6453 545.142 58.2397 544.29 59.932C543.446 61.6243 542.797 63.4035 542.354 65.2407C541.985 66.7373 541.691 68.2556 541.474 69.7848L541.358 70.6582C541.136 72.4628 541.024 74.2819 541.017 76.101V126.539H555.865V76.2242C555.868 75.3327 555.93 74.4413 556.05 73.5571C556.173 72.6294 556.361 71.6293 556.615 70.5639C556.967 69.0963 557.536 67.6903 558.312 66.3967C558.478 66.1285 558.642 65.8531 558.812 65.6103C558.979 65.3712 559.164 65.0958 559.356 64.8421L559.392 64.8022C560.429 63.4542 561.697 62.3019 563.133 61.3923C563.43 61.2003 563.753 61.0082 564.068 60.8234C564.387 60.6386 564.742 60.4538 565.072 60.2871C568.103 58.9391 571.398 58.3049 574.711 58.4318H576.999C577.836 58.5659 578.644 58.5659 579.362 58.5659C579.764 58.6166 580.163 58.6601 580.537 58.6854C580.964 58.6854 581.399 58.7217 581.82 58.7217H582.686V45.5423L581.892 45.4734C580.765 45.3756 579.616 45.2886 578.503 45.2379Z" fill="black"/>
<path d="M635.611 83.7798L660.722 46.6622L661.628 45.3214H643.666L643.412 45.7092L607.075 100.931V14.8135H592.242V126.55H606.666L606.927 126.17L626.556 97.0353L646.029 126.17L646.29 126.55H664.082L663.19 125.21L635.611 83.7798Z" fill="black"/>
<mask id="mask0_435_647" style="mask-type:luminance" maskUnits="userSpaceOnUse" x="0" y="0" width="195" height="153">
<path d="M0 0H194.88V153H0V0Z" fill="white"/>
</mask>
<g mask="url(#mask0_435_647)">
<path d="M180.427 83.4897C188.569 70.7778 193.343 56.2069 194.311 41.1467C194.55 29.2429 189.457 17.8572 180.427 10.0989C155.948 -10.4657 107.735 0.514162 108.384 41.7809C108.627 57.3628 116.199 77.5287 135.865 101.833C141.669 96.7126 146.24 90.3494 149.241 83.2179C97.005 12.2513 206.777 8.38485 152.167 87.0699C148.168 93.4005 143.343 99.1695 137.815 104.221C120.781 120.299 105.364 125.347 91.9083 123.14C45.2255 115.465 37.7761 45.8322 34.3106 4.41689H0C0 4.86623 0 5.33731 0 5.80115V13.5486C1.79438 95.7233 59.9684 210.048 152.942 120.125C158.166 114.969 162.995 109.428 167.392 103.551C172.115 97.1148 176.465 90.4182 180.427 83.4897Z" fill="black"/>
</g>
<path d="M259.438 47.7681C253.17 96.0068 225.214 136.824 183.037 114.35C182.203 115.506 181.33 116.633 180.427 117.716C176.411 122.46 171.883 126.747 166.928 130.504C166.812 130.432 166.685 130.378 166.551 130.345C170.944 133.117 175.591 135.458 180.427 137.346C232.493 157.476 280.01 107.726 284.588 45.525L260.119 44.4307C259.811 45.525 259.586 46.6411 259.438 47.7681Z" fill="black"/>
</svg>
